<svg width="596" height="438" viewBox="0 0 596 438" fill="none" xmlns="http://www.w3.org/2000/svg">
<path d="M18.5723 88.1329C-5.92817 146.67 -6.9271 295.068 25.5297 397.753C32.7672 420.65 55.5211 436.227 82.2451 431.761C298.814 395.588 423.953 467.981 539.488 419.518C558.06 411.745 572.397 393.744 575.889 371.885C590.718 279.068 586.392 164.401 574.129 100.308C569.896 78.0949 555.394 63.5548 536.394 56.3453C443.633 21.3119 140.716 32.4316 60.7949 48.485C41.7144 54.7967 27.0814 67.7835 18.5273 88.1387L18.5723 88.1329Z" fill="#5F1888"/>
<mask id="mask0_757_4014" style="mask-type:alpha" maskUnits="userSpaceOnUse" x="0" y="33" width="586" height="404">
<path d="M18.5723 88.1329C-5.92817 146.67 -6.9271 295.068 25.5297 397.753C32.7672 420.65 55.5211 436.227 82.2451 431.761C298.814 395.588 423.953 467.981 539.488 419.518C558.06 411.745 572.397 393.744 575.889 371.885C590.718 279.068 586.392 164.401 574.129 100.308C569.896 78.0949 555.394 63.5548 536.394 56.3453C443.633 21.3119 140.716 32.4316 60.7949 48.485C41.7144 54.7967 27.0814 67.7835 18.5273 88.1387L18.5723 88.1329Z" fill="#5F1888"/>
</mask>
<g mask="url(#mask0_757_4014)">
<path opacity="0.05" d="M-27.6704 224.458C-27.6704 224.458 -4.9008 138.478 66.298 133.788C103.08 131.365 119.811 162.64 155.755 155.729C193.84 148.406 188.465 110.312 224.786 99.084C291.028 78.6074 308.586 151.998 377.088 170.16C443.69 187.818 488.609 153.924 508.205 114.885C522.898 85.6119 488.024 69.1637 468.563 92.1144C441.209 124.374 508.311 240.701 636.248 235.136" stroke="white" stroke-width="4" stroke-linecap="round"/>
</g>
<path d="M542.465 134.194C545.646 140.223 553.383 141.761 558.657 137.427C555.477 131.399 547.74 129.861 542.465 134.194Z" fill="#97C124"/>
<path d="M559.945 166.928C560.866 173.775 556.173 180.179 549.481 181.226C542.775 182.264 536.607 177.553 535.673 170.696C534.753 163.849 537.91 158.033 546.439 158.601C554.591 155.731 559.025 160.081 559.945 166.928Z" fill="#E7194A"/>
<path d="M581.409 149.691C586.976 153.935 588.061 162.038 583.852 167.79C579.633 173.556 571.712 174.788 566.145 170.544C560.577 166.301 558.776 159.76 565.495 153.801C569.479 145.652 575.856 145.458 581.409 149.691Z" fill="#E7194A"/>
<path d="M546.013 163.579C544.501 163.81 542.903 163.463 541.606 162.459C541.275 162.224 541.219 161.749 541.463 161.405C541.698 161.074 542.169 160.994 542.49 161.243C544.467 162.75 547.287 162.309 548.782 160.263C549.026 159.919 549.488 159.853 549.809 160.102C550.139 160.336 550.196 160.811 549.951 161.156C548.969 162.509 547.534 163.334 546.023 163.565" fill="#262626"/>
<path d="M546.347 161.415C546.097 161.445 545.836 161.404 545.625 161.234C537.192 154.81 535.533 142.466 541.929 133.751C542.251 133.297 542.868 133.217 543.299 133.544C543.73 133.871 543.824 134.497 543.488 134.942C537.755 142.781 539.236 153.858 546.807 159.628C547.238 159.955 547.332 160.582 546.996 161.026C546.839 161.246 546.596 161.385 546.347 161.415Z" fill="#262626"/>
<path d="M564.53 160.034C564.13 160.102 563.754 159.814 563.709 159.41C563.651 158.995 563.939 158.62 564.325 158.542C566.769 158.165 568.502 155.812 568.163 153.313C568.105 152.899 568.392 152.523 568.779 152.446C569.18 152.378 569.556 152.666 569.614 153.08C570.07 156.407 567.775 159.521 564.516 160.024" fill="#262626"/>
<path d="M566.219 157.132C554.638 158.934 543.648 148.727 541.72 134.369C541.651 133.823 542.013 133.314 542.555 133.222C543.087 133.144 543.587 133.52 543.655 134.066C545.433 147.322 555.433 156.764 565.94 155.132C566.472 155.054 566.972 155.43 567.04 155.975C567.109 156.521 566.747 157.031 566.205 157.122" fill="#262626"/>
<path d="M578.065 209.423C581.347 209.962 583.587 211.372 585.929 212.498C588.228 213.619 590.296 215.235 592.556 216.247C593.409 215.423 592.887 214.892 592.554 214.54C589.105 210.873 584.965 208.136 580.46 205.983C579.685 205.605 578.804 205.39 577.932 205.253C575.812 204.911 574.17 206 573.786 208.176C573.535 209.584 573.727 211.078 573.63 212.513C573.563 213.463 573.324 214.393 573.166 215.376C571.286 215.523 570.103 214.532 568.787 214.022C566.877 213.295 565.035 212.358 563.087 211.809C559.999 210.953 557.941 212.029 556.988 215.132C556.492 216.772 556.325 218.582 556.413 220.299C556.517 222.175 557.11 224.038 557.513 225.887C557.576 226.173 557.717 226.451 557.882 226.679C558.326 227.28 558.923 227.845 559.691 227.525C560.158 227.336 560.694 226.771 560.773 226.31C561.079 224.43 561.195 222.536 561.415 220.645C561.538 219.51 561.729 218.392 561.914 217.028C562.831 217.231 563.56 217.255 564.191 217.52C565.545 218.078 566.83 218.785 568.162 219.392C569.097 219.815 570.02 220.262 571.007 220.542C575.481 221.759 578.15 219.701 578.201 215.074C578.215 214.204 578.081 213.327 578.053 212.452C578.03 211.596 578.033 210.752 578.022 209.418L578.065 209.423Z" fill="white"/>
<path d="M506.784 40.6414C506.905 41.5195 506.967 42.3471 506.975 43.1369C506.976 44.5409 506.815 45.8311 506.508 47.0162C506.508 47.0162 506.516 47.0413 506.504 47.0454C506.478 47.1372 506.452 47.229 506.435 47.3041C506.435 47.3041 506.444 47.3292 506.418 47.3375C506.244 47.9508 506.036 48.5472 505.791 49.1142C504.137 52.9789 496.903 58.7823 491.98 60.5197C491.942 60.5321 491.892 60.5485 491.854 60.5609C491.854 60.5609 491.842 60.565 491.829 60.5691C491.163 60.787 490.46 61.0173 489.732 61.2141C488.966 61.4232 488.18 61.6112 487.36 61.7824C487.138 61.8272 486.904 61.8761 486.678 61.9084C485.52 62.107 484.328 62.247 483.1 62.274C479.99 62.3746 476.742 61.8394 473.693 60.1688C471.355 58.8904 469.427 56.8245 467.939 54.4893C467.832 54.33 467.736 54.1665 467.641 54.0031C467.554 53.8647 467.48 53.7222 467.397 53.5965C467.243 53.3408 467.099 53.0684 466.958 52.8086C466.73 52.3687 466.52 51.9372 466.321 51.5016C466.317 51.489 466.309 51.4639 466.305 51.4514C465.908 50.6637 465.591 49.8222 465.327 49.0186C464.632 46.8965 464.334 44.8809 464.434 43.3605C464.557 41.4432 464.803 39.8609 465.191 38.413C465.357 37.7746 465.561 37.1656 465.781 36.5651C466.197 35.4558 466.716 34.4098 467.328 33.3057C467.387 33.189 467.459 33.0682 467.522 32.9641C467.716 32.6225 467.964 32.277 468.238 31.9232C468.566 31.5238 468.935 31.1246 469.322 30.7339C470.149 29.9067 471.09 29.1261 471.92 28.4787C472.231 28.238 472.52 28.018 472.801 27.8148C473.003 27.6654 473.195 27.5327 473.363 27.4082C473.971 26.9727 474.374 26.7157 474.374 26.7157C474.374 26.7157 474.428 26.6701 474.529 26.5954C474.63 26.5207 474.777 26.417 474.961 26.301C475.02 26.2679 475.074 26.2222 475.133 26.1891C475.271 26.102 475.443 25.9901 475.619 25.8908C475.644 25.8825 475.669 25.8743 475.69 25.8535C476.193 25.5637 476.843 25.2119 477.614 24.8483C477.882 24.7327 478.146 24.6046 478.443 24.4933C478.811 24.3448 479.217 24.184 479.628 24.0357C479.803 23.9781 479.979 23.9206 480.155 23.863C480.256 23.8301 480.356 23.7972 480.444 23.7684C481.185 23.5258 481.98 23.321 482.841 23.1501C482.892 23.1336 482.942 23.1172 482.984 23.1174C484.941 22.7265 487.194 22.5169 489.696 22.6847C490.377 22.7259 491.045 22.8129 491.701 22.9459C491.759 22.9546 491.834 22.9717 491.893 22.9803C491.951 22.989 492.026 23.0061 492.085 23.0148C492.131 23.0276 492.172 23.0278 492.218 23.0406C492.264 23.0533 492.31 23.0661 492.352 23.0663C492.398 23.0791 492.456 23.0878 492.502 23.1005C492.531 23.1049 492.561 23.1092 492.594 23.1261C492.623 23.1304 492.657 23.1473 492.698 23.1475C492.744 23.1603 492.79 23.1731 492.836 23.1859C492.836 23.1859 492.849 23.1818 492.865 23.1902C492.911 23.203 492.957 23.2157 493.003 23.2285C493.049 23.2413 493.111 23.2625 493.157 23.2753C493.157 23.2753 493.186 23.2796 493.203 23.2881C493.216 23.284 493.249 23.3009 493.266 23.3093C493.312 23.3221 493.345 23.339 493.391 23.3517C493.42 23.3561 493.437 23.3645 493.47 23.3814C493.608 23.4197 493.75 23.4706 493.891 23.5215C494.55 23.7506 495.197 24.0256 495.822 24.3214C496.184 24.4946 496.526 24.6886 496.872 24.8951C496.905 24.912 496.938 24.9289 496.972 24.9458C497.284 25.1355 497.584 25.3293 497.884 25.5231C497.992 25.5988 498.1 25.6746 498.208 25.7504C498.446 25.923 498.683 26.0955 498.908 26.2722C499.453 26.7054 499.981 27.172 500.472 27.6509C502.301 29.4573 503.756 31.6084 504.785 33.8576C504.95 34.2346 505.111 34.5989 505.259 34.9674C505.272 35.0051 505.284 35.0428 505.296 35.0804C506.08 37.0902 506.559 38.9354 506.796 40.6373L506.784 40.6414Z" fill="#FFBB29"/>
<path d="M476.625 28.621C476.625 28.621 474.785 28.862 474.875 29.1383C474.966 29.4145 476.283 29.2752 476.16 29.6213C476.049 29.9634 474.506 31.025 474.497 31.2506C474.5 31.472 476.289 30.3992 476.77 30.4644C477.25 30.5296 476.769 32.2444 476.998 32.3083C477.632 32.5038 477.456 30.2257 478.167 30.0623C478.878 29.8989 479.632 31.1814 479.85 31.0405C480.156 30.829 478.865 29.2219 478.865 29.2219C478.865 29.2219 480.642 29.1268 480.714 28.8806C480.786 28.6345 478.87 28.3027 478.87 28.3027C478.87 28.3027 479.704 27.0702 479.317 26.8217C478.929 26.5731 477.998 28.1435 477.781 27.9919C477.577 27.8363 476.265 27.0146 476.163 27.4235C476.056 27.8199 476.437 28.5573 476.616 28.6376L476.625 28.621Z" fill="#8CC747"/>
<path d="M107.363 108.28C111.312 99.838 100.472 92.5561 96.0248 91.0658C93.0452 90.0606 79.0204 83.875 75.0762 92.3318C71.1271 100.774 71.525 113.6 81.7127 119.058C92.7242 124.961 103.418 116.737 107.367 108.295L107.363 108.28Z" fill="#975B2E"/>
<path d="M75.3204 91.8932C78.537 85.8068 88.2752 84.6296 97.0712 89.2637C105.867 93.8979 110.39 102.589 107.174 108.675C103.957 114.761 94.219 115.939 85.4229 111.304C76.6268 106.67 72.1038 97.9796 75.3204 91.8932Z" fill="#7EB73C"/>
<path d="M85.555 96.3734C86.5176 94.4904 90.1385 94.4114 93.6424 96.1969C97.1464 97.9825 99.2065 100.956 98.2439 102.839C97.2813 104.722 93.6605 104.802 90.1566 103.016C86.6526 101.23 84.5924 98.2565 85.555 96.3734Z" fill="#B9D988"/>
<path d="M88.6754 108.13C88.4599 108.597 88.7174 109.192 89.2488 109.45C89.7801 109.708 90.3914 109.544 90.6069 109.077C90.8224 108.61 90.893 107.33 90.3617 107.071C89.8304 106.813 88.9059 107.658 88.6754 108.13Z" fill="black"/>
<path d="M82.4716 103.995C81.9357 104.136 81.6944 104.677 81.9127 105.202C82.1309 105.726 82.7414 106.025 83.2725 105.87C83.8085 105.73 84.8263 104.97 84.6128 104.46C84.3946 103.936 83.0075 103.855 82.4716 103.995Z" fill="black"/>
<path d="M101.639 105.721C102.171 105.98 102.782 105.815 102.997 105.348C103.213 104.881 102.956 104.286 102.424 104.028C101.893 103.77 100.512 103.554 100.297 104.021C100.081 104.488 101.108 105.463 101.644 105.736L101.639 105.721Z" fill="black"/>
<path d="M97.9203 111.415C98.1388 111.94 98.7498 112.239 99.2814 112.084C99.8179 111.943 100.059 111.402 99.8409 110.877C99.6224 110.351 98.6858 109.297 98.1542 109.452C97.6178 109.593 97.6868 110.895 97.9155 111.4L97.9203 111.415Z" fill="black"/>
<path d="M94.8698 93.0829C95.0853 92.6161 94.8278 92.0209 94.2965 91.7626C93.7652 91.5042 93.1538 91.6689 92.9383 92.1357C92.7228 92.6026 92.6523 93.8829 93.1836 94.1413C93.7149 94.3996 94.6392 93.5546 94.8698 93.0829Z" fill="black"/>
<path d="M100.507 98.9078C101.043 98.7675 101.284 98.2264 101.066 97.7016C100.848 97.1768 100.237 96.8781 99.7059 97.0334C99.17 97.1736 98.1522 97.9328 98.3656 98.4426C98.5839 98.9674 99.9709 99.048 100.507 98.9078Z" fill="black"/>
<path d="M81.014 97.7178C80.4827 97.4594 79.8713 97.6241 79.6558 98.0908C79.4403 98.5576 79.6978 99.1528 80.229 99.4111C80.7603 99.6695 82.1413 99.8847 82.3568 99.4179C82.5722 98.9511 81.5453 97.9761 81.0092 97.7028L81.014 97.7178Z" fill="black"/>
<path d="M84.7474 92.22C84.5289 91.6947 83.9179 91.3957 83.3863 91.5511C82.8498 91.6915 82.6083 92.2332 82.8268 92.7584C83.0453 93.2837 83.9819 94.3381 84.5135 94.1827C85.0499 94.0423 84.9809 92.7404 84.7522 92.235L84.7474 92.22Z" fill="black"/>
<path d="M44.254 171.373C47.1653 171.285 49.0199 172.96 48.9936 175.65C48.9579 180.212 43.1516 185.872 38.2845 186.056C34.9641 186.19 32.5084 183.174 33.2815 179.923C34.1861 175.976 39.9553 171.501 44.2539 171.352L44.254 171.373ZM44.7057 174.099C41.0629 173.693 36.4068 177.951 36.4526 181.175C36.4587 182.035 37.5577 183.023 38.4218 182.971C41.7191 182.774 45.7181 178.9 45.6954 175.718C45.6908 175.073 45.0472 174.143 44.7057 174.099Z" fill="white"/>
<path d="M52.385 203.896C51.8621 207.157 48.5828 210.023 45.2836 210.091C42.8946 210.147 41.6316 208.543 42.2755 206.287C43.1634 203.155 45.1738 201.054 48.5595 200.356C51.2181 199.81 52.7991 201.33 52.3849 203.874L52.385 203.896ZM48.9014 203.63C47.5986 202.825 46.6246 203.465 45.7198 204.229C44.8602 204.948 45.0006 205.5 46.2836 206.715C47.6901 206.093 48.8219 205.25 48.9014 203.63Z" fill="white"/>
<path d="M64.1839 194.226C64.6864 191.288 67.6284 188.937 70.7242 189.01C72.2949 189.045 73.4874 190.31 73.3616 191.825C73.0867 194.771 69.9893 197.67 66.8729 197.9C65.0303 198.032 63.8123 196.381 64.1839 194.226ZM69.812 191.951C68.2615 191.548 67.3793 192.312 66.612 193.219C66.4541 193.423 66.4117 193.856 66.5497 194.063C66.6879 194.292 67.1224 194.589 67.3495 194.511C68.6667 194.109 69.8003 193.503 69.8346 191.928L69.812 191.951Z" fill="white"/>
<path d="M557.302 339.783C562.075 345.583 561.287 361.376 555.33 366.037C549.392 370.695 533.453 368.058 528.678 362.24C520.044 351.739 528.408 345.161 534.346 340.503C540.285 335.844 549.499 330.297 557.302 339.783Z" fill="#C10230"/>
<path d="M538.873 330.774C536.251 331.617 534.438 333.622 534.184 335.694C533.484 335.817 532.815 336.084 532.237 336.525C531.984 336.732 531.75 336.956 531.556 337.213C529.608 337.295 527.539 338.558 526.283 340.655C524.476 343.647 523.493 349.646 525.914 351.035C528.103 352.3 532.345 349.343 534.465 346.558C537.028 348.463 540.47 349.824 542.097 348.531C543.828 347.173 543.042 343.267 541.551 340.361C541.712 340.327 541.871 340.275 542.03 340.223C545.396 339.143 550.206 335.271 549.328 332.653C548.449 330.035 542.237 329.676 538.871 330.756" fill="#B0DF30"/>
<path d="M535.861 341.213C535.437 341.547 534.827 341.479 534.495 341.073C530.033 335.645 530.912 327.664 536.477 323.298C536.901 322.964 537.511 323.032 537.843 323.438C538.176 323.844 538.106 324.436 537.7 324.768C532.966 328.486 532.223 335.247 536.003 339.865C536.335 340.271 536.265 340.863 535.859 341.195" fill="#262626"/>
<path d="M544.415 354.243C544.062 353.821 544.127 353.175 544.569 352.839C545.009 352.485 545.657 352.568 546.009 352.99C546.363 353.43 546.815 354.683 546.373 355.019C545.933 355.373 544.767 354.665 544.415 354.243Z" fill="#262626"/>
<path d="M549.084 359.907C548.731 359.485 548.796 358.839 549.238 358.503C549.678 358.149 550.326 358.232 550.678 358.654C551.032 359.094 551.484 360.347 551.042 360.683C550.602 361.037 549.436 360.329 549.084 359.907Z" fill="#262626"/>
<path d="M534.997 355.863C534.644 355.441 534.709 354.795 535.151 354.459C535.591 354.105 536.239 354.188 536.591 354.61C536.945 355.05 537.397 356.303 536.955 356.639C536.515 356.993 535.349 356.285 534.997 355.863Z" fill="#262626"/>
<path d="M539.969 360.912C539.532 360.552 539.487 359.917 539.866 359.496C540.245 359.075 540.881 359.031 541.318 359.39C541.737 359.751 542.417 360.909 542.038 361.33C541.66 361.751 540.406 361.271 539.967 360.893" fill="#262626"/>
<path d="M549.605 344.395C549.253 343.973 548.605 343.89 548.165 344.244C547.724 344.598 547.658 345.226 548.01 345.648C548.364 346.089 549.528 346.778 549.969 346.424C550.409 346.071 549.957 344.817 549.605 344.395Z" fill="#262626"/>
<path d="M553.578 350.236C553.311 349.751 552.691 349.574 552.187 349.843C551.684 350.112 551.505 350.714 551.772 351.199C552.039 351.685 553.058 352.572 553.562 352.303C554.065 352.034 553.845 350.722 553.578 350.236Z" fill="#262626"/>
<path d="M559.998 373.344C560.626 379.08 565.142 384.356 569.635 387.075C575.683 390.736 585.013 391.385 586.835 387.935C587.602 386.483 587.695 385.186 586.24 383.921C584.445 382.36 580.859 383.89 580.937 387.737C581.048 393.295 587.118 398.858 593.522 400.068" stroke="white" stroke-width="3" stroke-linecap="round"/>
<path d="M544.917 18.8729C543.808 20.328 542.408 21.5167 540.933 22.6049C537.435 25.1598 533.587 26.9543 529.351 27.8461C528.605 28.01 527.848 28.0783 527.092 28.1465C526.628 28.1767 526.16 28.0469 525.931 27.6252C525.642 27.0943 525.9 26.6092 526.291 26.2139C526.665 25.8275 527.048 25.4566 527.448 25.117C530.073 22.9163 532.655 20.6375 535.364 18.553C537.232 17.1096 539.259 15.8829 541.235 14.6026C542.087 14.057 543.027 13.7877 544.044 13.699C545.712 13.5791 546.783 14.7777 546.279 16.6926C545.949 17.2372 545.487 18.1165 544.885 18.8905L544.917 18.8729ZM541.031 17.1441C539.248 18.319 537.514 19.5477 535.806 20.8232C533.562 22.533 531.367 24.2965 529.173 26.06C529.013 26.1878 528.911 26.385 528.768 26.544C528.949 26.6075 529.082 26.7373 529.187 26.7002C534.151 25.1888 538.606 22.8204 542.273 19.0796C542.958 18.3818 543.519 17.5698 544.088 16.7734C544.104 16.7646 544.112 16.7403 544.119 16.7159C544.33 16.2972 543.929 15.8677 543.483 15.9692C542.559 16.1897 541.77 16.66 541.031 17.1441Z" fill="white"/>
<path d="M522.822 37.623C524.8 37.5847 526.776 37.5061 528.762 37.4835C532.439 37.4363 536.05 37.7716 539.516 38.9612C540.674 39.3495 541.761 39.8784 542.57 40.7839C543.496 41.829 543.27 43.1149 542.071 43.8502C541.69 44.0783 541.243 44.2611 540.802 44.3791C540.215 44.5364 539.61 44.6622 538.995 44.6917C532.551 45.0653 526.945 42.8807 521.74 39.5391C520.982 39.0347 521.259 37.8432 522.175 37.6702C522.346 37.6378 522.535 37.6368 522.831 37.6387L522.822 37.623ZM525.06 40.0739C529.077 42.0441 533.3 43.3104 537.902 43.1463C538.73 43.1227 539.555 42.9379 540.372 42.7373C540.388 42.7285 540.404 42.7196 540.421 42.7108C540.803 42.5633 540.882 42.0511 540.556 41.8004C539.678 41.0759 538.99 40.778 537.686 40.4693C535.326 39.9207 532.93 39.5756 530.491 39.5392C528.684 39.5047 526.863 39.5598 524.827 39.5686C525 39.9638 525.002 40.0444 525.035 40.067L525.06 40.0739Z" fill="white"/>
<path d="M516.945 18.1103C517.423 15.9724 517.86 13.8365 518.437 11.7262C519.067 9.40344 519.788 7.0925 520.492 4.7904C520.867 3.54544 521.54 2.4234 522.43 1.46854C523.793 -0.00947543 525.774 0.420284 526.349 2.2897C526.437 2.568 526.502 2.87973 526.475 3.17967C526.357 4.5092 526.347 5.88201 526.006 7.18991C525.259 10.1479 523.816 12.8325 522.098 15.3608C521.12 16.8123 520.009 18.1733 518.898 19.5343C518.77 19.6857 518.642 19.8372 518.505 19.9729C517.782 20.6937 516.579 20.1056 516.737 19.1212C516.788 18.7879 516.887 18.4683 516.954 18.126L516.945 18.1103ZM519.736 16.5881C521.709 13.7569 523.301 10.7261 524.221 7.42885C524.511 6.414 524.652 5.35785 524.744 4.32824C524.742 4.24761 524.765 4.17385 524.763 4.09322C524.825 3.20227 523.563 2.93183 523.196 3.76475C522.586 5.1582 521.902 6.531 521.466 7.97264C520.649 10.7241 519.98 13.5169 519.261 16.296C519.255 16.3609 519.248 16.4258 519.241 16.4907C519.263 16.7238 519.585 16.8133 519.728 16.6126L519.736 16.5881Z" fill="white"/>
</svg>
