<svg width="673" height="511" viewBox="0 0 673 511" fill="none" xmlns="http://www.w3.org/2000/svg">
<path d="M578.465 151.196C581.646 157.224 589.383 158.762 594.657 154.429C591.477 148.4 583.74 146.862 578.465 151.196Z" fill="#97C124"/>
<path d="M595.945 183.929C596.866 190.776 592.173 197.18 585.481 198.227C578.775 199.265 572.607 194.554 571.673 187.697C570.753 180.85 573.91 175.034 582.439 175.602C590.591 172.732 595.025 177.082 595.945 183.929Z" fill="#E7194A"/>
<path d="M617.409 166.693C622.977 170.936 624.062 179.039 619.852 184.792C615.633 190.558 607.712 191.789 602.145 187.546C596.578 183.302 594.777 176.762 601.495 170.803C605.48 162.654 611.856 162.459 617.409 166.693Z" fill="#E7194A"/>
<path d="M582.013 180.58C580.501 180.812 578.904 180.464 577.606 179.46C577.276 179.225 577.219 178.75 577.464 178.406C577.698 178.076 578.169 177.996 578.49 178.244C580.467 179.752 583.288 179.311 584.782 177.265C585.027 176.92 585.488 176.854 585.809 177.103C586.139 177.338 586.196 177.813 585.951 178.157C584.969 179.511 583.534 180.335 582.023 180.567" fill="#262626"/>
<path d="M582.347 178.417C582.098 178.447 581.837 178.406 581.626 178.236C573.193 171.812 571.533 159.468 577.929 150.753C578.252 150.299 578.868 150.219 579.3 150.546C579.731 150.873 579.825 151.499 579.488 151.943C573.755 159.783 575.236 170.86 582.807 176.63C583.238 176.957 583.333 177.583 582.996 178.028C582.84 178.248 582.597 178.386 582.347 178.417Z" fill="#262626"/>
<path d="M600.53 177.036C600.13 177.103 599.754 176.816 599.709 176.411C599.651 175.997 599.939 175.621 600.325 175.544C602.769 175.166 604.503 172.814 604.163 170.315C604.105 169.9 604.392 169.525 604.779 169.447C605.18 169.379 605.556 169.667 605.614 170.081C606.07 173.409 603.775 176.523 600.516 177.026" fill="#262626"/>
<path d="M602.219 174.133C590.639 175.935 579.649 165.728 577.72 151.37C577.652 150.824 578.014 150.315 578.555 150.223C579.087 150.145 579.587 150.521 579.656 151.067C581.434 164.323 591.434 173.765 601.94 172.133C602.472 172.055 602.972 172.431 603.041 172.976C603.109 173.522 602.747 174.031 602.206 174.123" fill="#262626"/>
<path d="M542.783 57.6414C542.904 58.5195 542.967 59.3471 542.975 60.1369C542.976 61.5409 542.815 62.8311 542.507 64.0162C542.507 64.0162 542.516 64.0413 542.503 64.0454C542.478 64.1372 542.452 64.229 542.435 64.3041C542.435 64.3041 542.443 64.3292 542.418 64.3375C542.243 64.9508 542.036 65.5472 541.79 66.1142C540.136 69.9789 532.902 75.7823 527.979 77.5197C527.941 77.5321 527.891 77.5485 527.854 77.5609C527.854 77.5609 527.841 77.565 527.828 77.5691C527.163 77.787 526.46 78.0173 525.732 78.2141C524.966 78.4232 524.179 78.6112 523.36 78.7824C523.138 78.8272 522.904 78.8761 522.678 78.9084C521.519 79.107 520.328 79.247 519.099 79.274C515.99 79.3746 512.742 78.8394 509.692 77.1688C507.355 75.8904 505.427 73.8245 503.939 71.4893C503.831 71.33 503.736 71.1665 503.641 71.0031C503.554 70.8647 503.479 70.7222 503.396 70.5965C503.243 70.3408 503.098 70.0684 502.957 69.8086C502.73 69.3687 502.519 68.9372 502.321 68.5016C502.317 68.489 502.309 68.4639 502.304 68.4514C501.907 67.6637 501.59 66.8222 501.327 66.0186C500.632 63.8965 500.333 61.8809 500.433 60.3605C500.556 58.4432 500.803 56.8609 501.19 55.413C501.357 54.7746 501.561 54.1656 501.781 53.5651C502.196 52.4558 502.716 51.4098 503.327 50.3057C503.386 50.189 503.458 50.0682 503.521 49.9641C503.715 49.6225 503.964 49.277 504.237 48.9232C504.565 48.5238 504.935 48.1246 505.321 47.7339C506.149 46.9067 507.089 46.1261 507.92 45.4787C508.23 45.238 508.52 45.018 508.801 44.8148C509.002 44.6654 509.195 44.5327 509.363 44.4082C509.971 43.9727 510.373 43.7157 510.373 43.7157C510.373 43.7157 510.428 43.6701 510.529 43.5954C510.629 43.5207 510.776 43.417 510.961 43.301C511.019 43.2679 511.074 43.2222 511.132 43.1891C511.271 43.102 511.443 42.9901 511.619 42.8908C511.644 42.8825 511.669 42.8743 511.69 42.8535C512.193 42.5637 512.842 42.2119 513.613 41.8483C513.881 41.7327 514.145 41.6046 514.442 41.4933C514.811 41.3448 515.217 41.184 515.627 41.0357C515.803 40.9781 515.979 40.9206 516.155 40.863C516.255 40.8301 516.356 40.7972 516.443 40.7684C517.184 40.5258 517.979 40.321 518.841 40.1501C518.891 40.1336 518.941 40.1172 518.983 40.1174C520.941 39.7265 523.194 39.5169 525.696 39.6847C526.377 39.7259 527.045 39.8129 527.7 39.9459C527.759 39.9546 527.834 39.9717 527.892 39.9803C527.951 39.989 528.026 40.0061 528.084 40.0148C528.13 40.0276 528.172 40.0278 528.218 40.0406C528.264 40.0533 528.31 40.0661 528.351 40.0663C528.397 40.0791 528.456 40.0878 528.502 40.1005C528.531 40.1049 528.56 40.1092 528.593 40.1261C528.623 40.1304 528.656 40.1473 528.698 40.1475C528.744 40.1603 528.79 40.1731 528.835 40.1859C528.835 40.1859 528.848 40.1818 528.865 40.1902C528.911 40.203 528.957 40.2157 529.002 40.2285C529.048 40.2413 529.111 40.2625 529.157 40.2753C529.157 40.2753 529.186 40.2796 529.203 40.2881C529.215 40.284 529.249 40.3009 529.265 40.3093C529.311 40.3221 529.344 40.339 529.39 40.3517C529.42 40.3561 529.436 40.3645 529.47 40.3814C529.607 40.4197 529.749 40.4706 529.891 40.5215C530.55 40.7506 531.196 41.0256 531.821 41.3214C532.184 41.4946 532.525 41.6886 532.871 41.8951C532.905 41.912 532.938 41.9289 532.971 41.9458C533.284 42.1355 533.583 42.3293 533.883 42.5231C533.992 42.5988 534.1 42.6746 534.208 42.7504C534.445 42.923 534.683 43.0955 534.907 43.2722C535.452 43.7054 535.981 44.172 536.471 44.6509C538.3 46.4573 539.755 48.6084 540.784 50.8576C540.949 51.2346 541.11 51.5989 541.259 51.9674C541.271 52.0051 541.283 52.0428 541.296 52.0804C542.079 54.0902 542.558 55.9354 542.796 57.6373L542.783 57.6414Z" fill="#FFBB29"/>
<path d="M512.624 45.6205C512.624 45.6205 510.784 45.8615 510.875 46.1378C510.965 46.414 512.282 46.2747 512.159 46.6209C512.048 46.9629 510.505 48.0245 510.496 48.2501C510.499 48.4715 512.289 47.3987 512.769 47.4639C513.249 47.5291 512.768 49.2439 512.997 49.3078C513.631 49.5034 513.455 47.2252 514.166 47.0618C514.878 46.8984 515.631 48.1809 515.849 48.04C516.156 47.8285 514.864 46.2214 514.864 46.2214C514.864 46.2214 516.641 46.1263 516.713 45.8801C516.785 45.634 514.869 45.3022 514.869 45.3022C514.869 45.3022 515.703 44.0698 515.316 43.8212C514.929 43.5726 513.997 45.143 513.78 44.9914C513.576 44.8358 512.265 44.0141 512.162 44.423C512.056 44.8194 512.436 45.5568 512.615 45.6372L512.624 45.6205Z" fill="#8CC747"/>
<path d="M143.363 125.282C147.312 116.84 136.473 109.558 132.025 108.068C129.046 107.063 115.021 100.877 111.077 109.334C107.128 117.775 107.526 130.602 117.713 136.06C128.725 141.963 139.419 133.739 143.368 125.297L143.363 125.282Z" fill="#975B2E"/>
<path d="M111.321 108.895C114.538 102.809 124.276 101.632 133.072 106.266C141.868 110.9 146.391 119.591 143.175 125.677C139.958 131.763 130.22 132.941 121.424 128.306C112.628 123.672 108.105 114.982 111.321 108.895Z" fill="#7EB73C"/>
<path d="M121.556 113.374C122.518 111.491 126.139 111.412 129.643 113.197C133.147 114.983 135.207 117.957 134.244 119.84C133.282 121.723 129.661 121.802 126.157 120.017C122.653 118.231 120.593 115.257 121.556 113.374Z" fill="#B9D988"/>
<path d="M124.676 125.13C124.461 125.597 124.718 126.192 125.249 126.45C125.781 126.708 126.392 126.544 126.607 126.077C126.823 125.61 126.894 124.33 126.362 124.071C125.831 123.813 124.907 124.658 124.676 125.13Z" fill="black"/>
<path d="M118.472 120.995C117.936 121.136 117.695 121.677 117.913 122.202C118.131 122.726 118.742 123.025 119.273 122.87C119.809 122.73 120.827 121.97 120.613 121.46C120.395 120.936 119.008 120.855 118.472 120.995Z" fill="black"/>
<path d="M137.64 122.721C138.172 122.98 138.783 122.815 138.998 122.348C139.214 121.881 138.957 121.286 138.425 121.028C137.894 120.77 136.513 120.554 136.298 121.021C136.082 121.488 137.109 122.463 137.645 122.736L137.64 122.721Z" fill="black"/>
<path d="M133.921 128.415C134.14 128.941 134.751 129.24 135.282 129.084C135.819 128.944 136.06 128.402 135.842 127.877C135.623 127.352 134.687 126.297 134.155 126.453C133.619 126.593 133.688 127.895 133.916 128.4L133.921 128.415Z" fill="black"/>
<path d="M130.87 110.083C131.086 109.617 130.828 109.021 130.297 108.763C129.766 108.505 129.154 108.669 128.939 109.136C128.723 109.603 128.653 110.883 129.184 111.142C129.715 111.4 130.64 110.555 130.87 110.083Z" fill="black"/>
<path d="M136.508 115.908C137.044 115.768 137.285 115.226 137.067 114.702C136.848 114.177 136.238 113.878 135.707 114.033C135.171 114.174 134.153 114.933 134.366 115.443C134.585 115.967 135.972 116.048 136.508 115.908Z" fill="black"/>
<path d="M117.015 114.718C116.484 114.459 115.872 114.624 115.657 115.091C115.441 115.558 115.699 116.153 116.23 116.411C116.761 116.669 118.142 116.885 118.358 116.418C118.573 115.951 117.546 114.976 117.01 114.703L117.015 114.718Z" fill="black"/>
<path d="M120.748 109.22C120.529 108.695 119.918 108.396 119.386 108.551C118.85 108.692 118.608 109.233 118.827 109.758C119.045 110.284 119.982 111.338 120.514 111.183C121.05 111.042 120.981 109.74 120.752 109.235L120.748 109.22Z" fill="black"/>
<path d="M593.301 356.782C598.074 362.582 597.286 378.375 591.33 383.036C585.391 387.694 569.452 385.057 564.678 379.239C556.044 368.739 564.407 362.16 570.346 357.502C576.284 352.843 585.498 347.296 593.301 356.782Z" fill="#C10230"/>
<path d="M574.872 347.773C572.25 348.616 570.437 350.621 570.184 352.693C569.483 352.816 568.815 353.083 568.237 353.524C567.983 353.731 567.749 353.955 567.555 354.212C565.608 354.294 563.539 355.557 562.283 357.654C560.475 360.646 559.493 366.645 561.914 368.034C564.103 369.299 568.345 366.342 570.465 363.557C573.028 365.462 576.469 366.823 578.097 365.53C579.828 364.172 579.042 360.266 577.55 357.36C577.711 357.326 577.871 357.274 578.03 357.222C581.396 356.142 586.206 352.27 585.327 349.652C584.449 347.034 578.237 346.675 574.871 347.755" fill="#B0DF30"/>
<path d="M571.861 358.212C571.436 358.546 570.827 358.478 570.494 358.072C566.032 352.644 566.911 344.663 572.477 340.297C572.901 339.963 573.51 340.031 573.843 340.437C574.175 340.843 574.105 341.435 573.699 341.767C568.966 345.485 568.223 352.246 572.002 356.864C572.335 357.27 572.265 357.862 571.859 358.194" fill="#262626"/>
<path d="M580.414 371.243C580.062 370.82 580.126 370.174 580.568 369.838C581.009 369.485 581.656 369.567 582.009 369.989C582.362 370.43 582.814 371.683 582.372 372.019C581.932 372.373 580.766 371.665 580.414 371.243Z" fill="#262626"/>
<path d="M585.083 376.906C584.731 376.484 584.795 375.838 585.237 375.502C585.678 375.148 586.325 375.231 586.678 375.653C587.032 376.093 587.484 377.346 587.041 377.682C586.601 378.036 585.435 377.328 585.083 376.906Z" fill="#262626"/>
<path d="M570.996 372.862C570.644 372.44 570.709 371.794 571.151 371.458C571.591 371.104 572.239 371.187 572.591 371.609C572.945 372.049 573.397 373.302 572.955 373.638C572.515 373.992 571.349 373.284 570.996 372.862Z" fill="#262626"/>
<path d="M575.969 377.911C575.531 377.552 575.487 376.916 575.866 376.495C576.245 376.074 576.881 376.03 577.318 376.389C577.737 376.75 578.417 377.908 578.038 378.329C577.659 378.75 576.406 378.27 575.967 377.893" fill="#262626"/>
<path d="M585.604 361.394C585.252 360.971 584.604 360.889 584.164 361.243C583.724 361.597 583.657 362.225 584.009 362.647C584.363 363.087 585.528 363.777 585.968 363.423C586.408 363.069 585.956 361.816 585.604 361.394Z" fill="#262626"/>
<path d="M589.578 367.236C589.311 366.75 588.69 366.574 588.187 366.842C587.683 367.111 587.505 367.713 587.772 368.199C588.039 368.684 589.058 369.571 589.562 369.302C590.065 369.034 589.845 367.721 589.578 367.236Z" fill="#262626"/>
<path d="M614.065 226.423C617.347 226.962 619.586 228.372 621.929 229.498C624.228 230.619 626.296 232.235 628.555 233.247C629.409 232.423 628.887 231.892 628.554 231.54C625.105 227.873 620.964 225.136 616.46 222.983C615.685 222.605 614.804 222.39 613.932 222.253C611.812 221.911 610.17 223 609.786 225.176C609.535 226.584 609.727 228.078 609.63 229.513C609.563 230.463 609.324 231.393 609.166 232.376C607.285 232.523 606.103 231.532 604.786 231.022C602.877 230.295 601.035 229.358 599.087 228.809C595.999 227.953 593.94 229.029 592.987 232.132C592.492 233.772 592.325 235.582 592.412 237.299C592.516 239.175 593.11 241.038 593.513 242.887C593.575 243.173 593.717 243.451 593.882 243.679C594.326 244.28 594.922 244.845 595.691 244.525C596.157 244.336 596.693 243.771 596.773 243.31C597.079 241.43 597.195 239.536 597.415 237.645C597.538 236.51 597.729 235.392 597.914 234.028C598.831 234.231 599.559 234.255 600.191 234.52C601.545 235.078 602.83 235.785 604.162 236.392C605.097 236.815 606.02 237.262 607.006 237.542C611.481 238.759 614.15 236.701 614.2 232.074C614.214 231.204 614.081 230.327 614.052 229.452C614.03 228.596 614.032 227.752 614.022 226.418L614.065 226.423Z" fill="white"/>
<path d="M80.2539 188.373C83.1652 188.285 85.0198 189.96 84.9935 192.65C84.9577 197.212 79.1515 202.872 74.2844 203.056C70.9639 203.19 68.5083 200.174 69.2813 196.923C70.1859 192.976 75.9552 188.501 80.2537 188.352L80.2539 188.373ZM80.7055 191.099C77.0627 190.693 72.4067 194.951 72.4524 198.175C72.4586 199.035 73.5576 200.023 74.4217 199.971C77.7189 199.774 81.718 195.9 81.6953 192.718C81.6907 192.073 81.0471 191.143 80.7055 191.099Z" fill="white"/>
<path d="M88.3845 220.896C87.8616 224.157 84.5823 227.023 81.2832 227.091C78.8941 227.147 77.6311 225.543 78.275 223.287C79.163 220.155 81.1733 218.054 84.559 217.356C87.2176 216.81 88.7986 218.33 88.3844 220.874L88.3845 220.896ZM84.9009 220.63C83.5981 219.825 82.6241 220.465 81.7193 221.229C80.8597 221.948 81.0002 222.5 82.2832 223.715C83.6896 223.093 84.8214 222.25 84.9009 220.63Z" fill="white"/>
<path d="M100.184 211.226C100.686 208.288 103.628 205.936 106.724 206.01C108.295 206.045 109.487 207.309 109.361 208.824C109.086 211.77 105.989 214.67 102.873 214.899C101.03 215.031 99.8119 213.381 100.184 211.226ZM105.812 208.951C104.261 208.548 103.379 209.311 102.612 210.219C102.454 210.422 102.411 210.856 102.549 211.063C102.688 211.292 103.122 211.589 103.349 211.51C104.666 211.109 105.8 210.502 105.834 208.928L105.812 208.951Z" fill="white"/>
<path d="M595.998 390.344C596.626 396.08 601.142 401.356 605.635 404.075C611.683 407.736 621.013 408.385 622.835 404.935C623.602 403.483 623.695 402.186 622.24 400.921C620.445 399.36 616.86 400.89 616.937 404.737C617.048 410.295 623.118 415.858 629.522 417.068" stroke="white" stroke-width="3" stroke-linecap="round"/>
<path d="M580.916 35.8734C579.807 37.3285 578.407 38.5172 576.932 39.6053C573.434 42.1603 569.586 43.9548 565.35 44.8466C564.604 45.0105 563.847 45.0787 563.091 45.147C562.627 45.1772 562.159 45.0474 561.93 44.6257C561.641 44.0947 561.899 43.6097 562.29 43.2144C562.664 42.828 563.047 42.4571 563.447 42.1175C566.072 39.9168 568.654 37.638 571.363 35.5535C573.231 34.1101 575.258 32.8834 577.234 31.603C578.086 31.0575 579.026 30.7882 580.043 30.6995C581.711 30.5796 582.782 31.7782 582.278 33.6931C581.948 34.2377 581.486 35.117 580.884 35.891L580.916 35.8734ZM577.03 34.1446C575.247 35.3195 573.513 36.5482 571.805 37.8237C569.561 39.5335 567.366 41.297 565.172 43.0605C565.012 43.1883 564.91 43.3854 564.767 43.5445C564.948 43.608 565.081 43.7378 565.186 43.7007C570.15 42.1893 574.605 39.8209 578.272 36.0801C578.957 35.3823 579.518 34.5703 580.087 33.7739C580.103 33.7651 580.111 33.7407 580.118 33.7163C580.329 33.2976 579.928 32.8682 579.482 32.9696C578.558 33.1901 577.769 33.6605 577.03 34.1446Z" fill="white"/>
<path d="M558.821 54.6235C560.799 54.5852 562.776 54.5065 564.762 54.484C568.438 54.4368 572.05 54.7721 575.516 55.9617C576.674 56.35 577.761 56.8789 578.569 57.7844C579.495 58.8294 579.269 60.1154 578.07 60.8507C577.69 61.0788 577.242 61.2616 576.802 61.3796C576.214 61.5369 575.609 61.6627 574.994 61.6922C568.55 62.0657 562.944 59.8812 557.739 56.5396C556.981 56.0352 557.258 54.8437 558.174 54.6707C558.346 54.6382 558.534 54.6373 558.83 54.6392L558.821 54.6235ZM561.059 57.0744C565.076 59.0446 569.299 60.3109 573.901 60.1468C574.73 60.1232 575.555 59.9384 576.371 59.7378C576.387 59.729 576.404 59.7201 576.42 59.7113C576.802 59.5638 576.881 59.0516 576.556 58.8009C575.678 58.0763 574.99 57.7785 573.686 57.4697C571.326 56.9211 568.929 56.5761 566.49 56.5397C564.683 56.5052 562.862 56.5603 560.827 56.5691C561 56.9643 561.001 57.0449 561.035 57.0675L561.059 57.0744Z" fill="white"/>
<path d="M552.944 35.1108C553.422 32.9729 553.859 30.837 554.436 28.7267C555.066 26.4039 555.787 24.093 556.491 21.7909C556.866 20.5459 557.539 19.4239 558.429 18.469C559.792 16.991 561.772 17.4208 562.348 19.2902C562.436 19.5685 562.5 19.8802 562.474 20.1802C562.356 21.5097 562.345 22.8825 562.005 24.1904C561.257 27.1484 559.814 29.833 558.097 32.3613C557.119 33.8128 556.008 35.1738 554.897 36.5348C554.769 36.6862 554.641 36.8376 554.504 36.9733C553.781 37.6942 552.577 37.1061 552.736 36.1217C552.786 35.7884 552.886 35.4688 552.952 35.1265L552.944 35.1108ZM555.735 33.5885C557.708 30.7574 559.3 27.7266 560.22 24.4293C560.509 23.4145 560.65 22.3583 560.742 21.3287C560.741 21.2481 560.764 21.1743 560.762 21.0937C560.824 20.2028 559.562 19.9323 559.194 20.7652C558.585 22.1587 557.901 23.5315 557.465 24.9731C556.647 27.7246 555.978 30.5174 555.26 33.2965C555.253 33.3614 555.246 33.4263 555.24 33.4912C555.261 33.7242 555.584 33.8137 555.727 33.6131L555.735 33.5885Z" fill="white"/>
</svg>
