<svg width="618" height="505" viewBox="0 0 618 505" fill="none" xmlns="http://www.w3.org/2000/svg">
<path d="M36.4847 99.5802C11.7241 157.878 9.55123 306.292 40.9169 409.326C47.9111 432.302 70.3494 448.114 96.8841 443.92C311.919 409.95 435.428 483.633 550.377 436.34C568.855 428.755 583.215 410.897 586.852 389.07C602.295 296.387 598.919 181.657 587.27 117.427C583.25 95.1663 568.985 80.4756 550.203 73.071C458.501 37.0848 158.044 45.1154 78.668 60.3561C59.6977 66.4742 45.0844 79.314 36.4401 99.5855L36.4847 99.5802Z" fill="#5C0F8B"/>
<path opacity="0.05" d="M28.3229 351.201C28.3229 351.201 51.4793 263.76 123.888 258.991C161.295 256.526 178.31 288.333 214.865 281.305C253.596 273.857 248.13 235.116 285.068 223.697C352.436 202.873 370.291 277.51 439.957 295.98C507.691 313.939 553.373 279.469 573.302 239.766C588.245 209.996 552.778 193.269 532.987 216.609C514.75 238.116 537.794 296.363 592.487 332.344" stroke="white" stroke-width="4" stroke-linecap="round"/>
</svg>
