<svg width="107" height="102" viewBox="0 0 107 102" fill="none" xmlns="http://www.w3.org/2000/svg">
<path d="M75.8324 63.7621C78.3123 64.3131 79.5098 60.7971 77.2411 59.6858C54.9528 49.0437 32.2843 39.4101 8.08765 33.9997C3.2959 32.9611 0.705824 33.2965 0.692141 35.1151C0.714359 38.451 3.77288 38.7401 5.95431 39.6585C11.6021 42.0756 17.2849 44.57 23.1017 46.5389C39.0008 51.8928 55.0019 57.0611 71.0241 62.1734C72.558 62.6877 74.0671 63.3526 75.871 63.7447L75.8324 63.7621Z" fill="white"/>
<path d="M92.0922 45.6695C93.7924 47.2703 96.4972 45.4424 95.7477 43.2721C95.2213 41.6978 94.3753 40.547 93.5293 39.3962C88.7437 32.8248 83.8984 26.3268 78.9548 19.9198C77.8011 18.397 76.1423 17.1957 74.5744 16.0927C74.0389 15.7308 72.8826 15.7429 72.2828 16.0607C71.7005 16.4171 71.0714 17.4917 71.2386 18.0667C71.8652 20.4786 72.3337 23.0549 73.6197 25.0754C75.5275 28.1623 77.8633 30.9626 80.2974 33.672C84.0781 37.8169 88.0379 41.7414 92.0362 45.6484L92.0922 45.6695Z" fill="white"/>
<path d="M62.639 86.3681C63.8348 85.827 63.8834 84.0856 62.7739 83.3793C62.4414 83.158 62.1438 83.0138 61.8039 82.9817C51.0595 81.5228 40.2756 80.5929 29.4119 81.2327C28.3676 81.287 27.305 81.8142 26.2846 82.2295C25.4359 82.6134 25.3414 84.5615 26.1745 85.0676C26.8781 85.4928 27.578 86.0126 28.3486 86.1751C39.6276 88.5075 50.9597 88.4922 62.3129 86.4691C62.4287 86.4167 62.5444 86.3644 62.6601 86.312L62.639 86.3681Z" fill="white"/>
</svg>
