<svg width="288" height="353" viewBox="0 0 288 353" fill="none" xmlns="http://www.w3.org/2000/svg">
<path d="M9.28277 25.0869C-2.41949 49.4953 -3.56179 295.705 11.0206 338.019C14.2723 347.454 24.7832 353.754 37.2444 351.726C138.228 335.3 196.103 364.448 250.125 343.605C258.809 340.262 265.573 332.711 267.31 323.634C274.686 285.092 273.178 52.8885 267.797 26.4244C265.941 17.2522 259.265 11.3267 250.458 8.46742C207.463 -5.42397 66.4172 1.20195 29.1371 8.384C20.2241 11.1254 13.3471 16.6019 9.26182 25.0896L9.28277 25.0869Z" fill="#5F1888"/>
<path d="M39.07 106.253C40.8174 106.2 41.9305 107.205 41.9147 108.82C41.8932 111.558 38.4083 114.955 35.4872 115.065C33.4942 115.146 32.0204 113.336 32.4844 111.384C33.0273 109.015 36.4899 106.33 39.0699 106.24L39.07 106.253ZM39.3411 107.889C37.1547 107.645 34.3602 110.201 34.3876 112.136C34.3913 112.652 35.0509 113.245 35.5695 113.214C37.5485 113.096 39.9487 110.771 39.9351 108.861C39.9324 108.474 39.5461 107.916 39.3411 107.889Z" fill="white"/>
<path d="M43.9496 125.772C43.6358 127.729 41.6676 129.45 39.6874 129.49C38.2535 129.524 37.4955 128.562 37.8819 127.208C38.4149 125.328 39.6215 124.067 41.6536 123.648C43.2493 123.32 44.1982 124.232 43.9495 125.759L43.9496 125.772ZM41.8588 125.613C41.0768 125.13 40.4923 125.514 39.9492 125.973C39.4333 126.404 39.5176 126.735 40.2876 127.464C41.1318 127.091 41.8111 126.585 41.8588 125.613Z" fill="white"/>
<path d="M51.0318 119.968C51.3335 118.205 53.0992 116.793 54.9573 116.837C55.9 116.859 56.6157 117.617 56.5403 118.527C56.3753 120.295 54.5162 122.035 52.6458 122.173C51.5398 122.252 50.8088 121.261 51.0318 119.968ZM54.4098 118.603C53.4792 118.361 52.9497 118.819 52.4892 119.364C52.3944 119.486 52.3689 119.746 52.4518 119.87C52.5347 120.008 52.7955 120.186 52.9318 120.139C53.7224 119.898 54.4028 119.534 54.4234 118.589L54.4098 118.603Z" fill="white"/>
<path d="M228.48 15.2918C228.297 18.403 230.959 20.8364 234.048 20.3899C234.231 17.2787 231.569 14.8454 228.48 15.2918Z" fill="#97C124"/>
<path d="M227.568 32.2351C226.307 35.1314 222.955 36.5254 220.089 35.3508C217.22 34.1691 215.923 30.866 217.181 27.9626C218.442 25.0662 221.054 23.5382 224.256 25.7797C228.124 26.5872 228.829 29.3388 227.568 32.2351Z" fill="#E7194A"/>
<path d="M240.046 30.5742C241.219 33.5522 239.725 36.979 236.717 38.2326C233.701 39.4894 230.311 38.0957 229.138 35.1177C227.965 32.1397 228.808 29.1548 232.847 28.4144C236.335 26.1697 238.876 27.6033 240.046 30.5742Z" fill="#E7194A"/>
<path d="M222.911 27.6263C222.265 27.359 221.722 26.8447 221.453 26.1448C221.379 25.9746 221.469 25.7754 221.646 25.6986C221.816 25.6249 222.02 25.7053 222.086 25.8785C222.503 26.936 223.711 27.4313 224.779 26.9848C224.957 26.908 225.153 26.9914 225.219 27.1646C225.293 27.3348 225.203 27.534 225.026 27.6108C224.321 27.9078 223.564 27.8905 222.918 27.6232" fill="#262626"/>
<path d="M223.555 26.8591C223.45 26.8118 223.357 26.734 223.315 26.6175C221.537 22.108 223.81 16.8865 228.376 14.9916C228.609 14.8903 228.87 15.0049 228.961 15.2348C229.052 15.4648 228.941 15.732 228.704 15.8263C224.605 17.5357 222.562 22.2196 224.157 26.2693C224.249 26.4992 224.137 26.7665 223.9 26.8607C223.787 26.9099 223.659 26.9063 223.555 26.8591Z" fill="#262626"/>
<path d="M230.994 30.6235C230.822 30.5552 230.743 30.3536 230.821 30.1849C230.896 30.0091 231.098 29.9302 231.267 29.9914C232.313 30.4225 233.548 29.9124 234.007 28.8545C234.082 28.6787 234.283 28.5997 234.453 28.661C234.626 28.7293 234.705 28.9308 234.629 29.1066C234.02 30.5162 232.385 31.1912 230.991 30.6164" fill="#262626"/>
<path d="M232.343 29.8874C227.386 27.8507 225.503 21.2558 228.148 15.1826C228.25 14.953 228.513 14.8393 228.746 14.9317C228.973 15.0272 229.079 15.2926 228.977 15.5222C226.534 21.1289 228.211 27.19 232.707 29.0389C232.934 29.1343 233.04 29.3997 232.938 29.6294C232.835 29.8591 232.573 29.9727 232.34 29.8803" fill="#262626"/>
<path d="M66.3884 88.3587C69.0951 82.5727 61.6655 77.5817 58.6175 76.5602C56.5753 75.8713 46.9627 71.6317 44.2594 77.4279C41.5527 83.2139 41.8254 92.0054 48.8081 95.7461C56.3552 99.7918 63.6851 94.1549 66.3917 88.3689L66.3884 88.3587Z" fill="#975B2E"/>
<path d="M44.4272 77.1271C46.6319 72.9556 53.3064 72.1487 59.3352 75.3249C65.364 78.5011 68.4641 84.4577 66.2594 88.6293C64.0548 92.8009 57.3803 93.6078 51.3515 90.4315C45.3227 87.2553 42.2226 81.2987 44.4272 77.1271Z" fill="#7EB73C"/>
<path d="M51.442 80.1981C52.1018 78.9074 54.5835 78.8533 56.9851 80.0771C59.3867 81.3009 60.7987 83.3392 60.1389 84.6299C59.4792 85.9205 56.9975 85.9747 54.5959 84.7509C52.1943 83.5271 50.7823 81.4887 51.442 80.1981Z" fill="#B9D988"/>
<path d="M53.5802 88.2563C53.4325 88.5763 53.609 88.9842 53.9731 89.1612C54.3373 89.3383 54.7563 89.2255 54.904 88.9055C55.0517 88.5856 55.1001 87.708 54.7359 87.5309C54.3718 87.3538 53.7382 87.933 53.5802 88.2563Z" fill="black"/>
<path d="M49.3279 85.4221C48.9605 85.5183 48.7952 85.8891 48.9448 86.2488C49.0944 86.6085 49.5128 86.8133 49.8768 86.7069C50.2441 86.6107 50.9418 86.0903 50.7955 85.7409C50.6459 85.3812 49.6952 85.326 49.3279 85.4221Z" fill="black"/>
<path d="M62.4659 86.6049C62.83 86.782 63.2491 86.6691 63.3968 86.3492C63.5445 86.0292 63.368 85.6213 63.0039 85.4443C62.6397 85.2672 61.6932 85.1197 61.5455 85.4397C61.3979 85.7596 62.1018 86.4278 62.4692 86.6152L62.4659 86.6049Z" fill="black"/>
<path d="M59.9176 90.5079C60.0673 90.8679 60.4862 91.0728 60.8505 90.9663C61.2182 90.8701 61.3837 90.4989 61.234 90.1389C61.0842 89.7789 60.4423 89.0562 60.0779 89.1627C59.7102 89.2589 59.7576 90.1512 59.9143 90.4976L59.9176 90.5079Z" fill="black"/>
<path d="M57.8264 77.9427C57.9741 77.6227 57.7977 77.2148 57.4335 77.0377C57.0694 76.8606 56.6503 76.9735 56.5026 77.2935C56.3549 77.6134 56.3066 78.491 56.6707 78.6681C57.0349 78.8451 57.6684 78.266 57.8264 77.9427Z" fill="black"/>
<path d="M61.6899 81.9349C62.0573 81.8388 62.2226 81.4679 62.073 81.1082C61.9234 80.7485 61.505 80.5438 61.141 80.6502C60.7736 80.7463 60.076 81.2667 60.2223 81.6161C60.3719 81.9758 61.3226 82.031 61.6899 81.9349Z" fill="black"/>
<path d="M48.3298 81.1199C47.9656 80.9429 47.5466 81.0557 47.3989 81.3757C47.2512 81.6956 47.4276 82.1035 47.7918 82.2806C48.1559 82.4577 49.1024 82.6051 49.2501 82.2852C49.3978 81.9653 48.6939 81.297 48.3265 81.1097L48.3298 81.1199Z" fill="black"/>
<path d="M50.8882 77.352C50.7385 76.992 50.3197 76.787 49.9553 76.8935C49.5877 76.9898 49.4221 77.361 49.5719 77.721C49.7216 78.081 50.3636 78.8037 50.7279 78.6972C51.0956 78.601 51.0483 77.7087 50.8915 77.3623L50.8882 77.352Z" fill="black"/>
<path d="M267.3 95.2535C269.915 98.4308 269.483 107.083 266.22 109.637C262.966 112.189 254.234 110.744 251.618 107.557C246.888 101.804 251.47 98.2001 254.723 95.6478C257.977 93.0956 263.025 90.0567 267.3 95.2535Z" fill="#C10230"/>
<path d="M257.203 90.3184C255.767 90.7799 254.773 91.8786 254.635 93.0136C254.251 93.0813 253.885 93.2274 253.568 93.4688C253.429 93.5826 253.301 93.7053 253.195 93.8459C252.128 93.8906 250.994 94.5826 250.306 95.7315C249.316 97.3706 248.778 100.657 250.104 101.418C251.303 102.111 253.627 100.491 254.789 98.9656C256.193 100.009 258.078 100.755 258.97 100.047C259.918 99.3028 259.487 97.1625 258.67 95.5707C258.759 95.5521 258.846 95.5235 258.933 95.4949C260.777 94.9032 263.412 92.7822 262.931 91.3477C262.45 89.9132 259.046 89.7168 257.202 90.3085" fill="#B0DF30"/>
<path d="M255.554 96.0374C255.322 96.2204 254.988 96.1831 254.806 95.9607C252.361 92.987 252.842 88.6145 255.891 86.2225C256.124 86.0395 256.458 86.0768 256.64 86.2992C256.822 86.5216 256.784 86.8458 256.561 87.0278C253.968 89.0646 253.561 92.769 255.632 95.2989C255.814 95.5213 255.775 95.8454 255.553 96.0275" fill="#262626"/>
<path d="M260.239 103.176C260.046 102.944 260.082 102.591 260.324 102.407C260.565 102.213 260.92 102.258 261.113 102.489C261.307 102.731 261.554 103.417 261.312 103.601C261.071 103.795 260.432 103.407 260.239 103.176Z" fill="#262626"/>
<path d="M262.798 106.279C262.605 106.048 262.64 105.694 262.882 105.51C263.124 105.316 263.479 105.361 263.671 105.593C263.865 105.834 264.113 106.521 263.871 106.705C263.629 106.898 262.991 106.511 262.798 106.279Z" fill="#262626"/>
<path d="M255.08 104.063C254.887 103.832 254.922 103.478 255.165 103.294C255.406 103.1 255.761 103.146 255.954 103.377C256.148 103.618 256.395 104.305 256.153 104.489C255.912 104.683 255.273 104.295 255.08 104.063Z" fill="#262626"/>
<path d="M257.804 106.829C257.564 106.632 257.54 106.284 257.748 106.054C257.955 105.823 258.304 105.799 258.543 105.996C258.773 106.193 259.145 106.827 258.938 107.058C258.73 107.289 258.044 107.026 257.803 106.819" fill="#262626"/>
<path d="M263.084 97.7803C262.891 97.5489 262.536 97.5037 262.294 97.6976C262.053 97.8915 262.017 98.2355 262.21 98.4668C262.404 98.7081 263.042 99.0859 263.283 98.892C263.524 98.6981 263.276 98.0116 263.084 97.7803Z" fill="#262626"/>
<path d="M265.26 100.981C265.114 100.715 264.774 100.618 264.498 100.766C264.222 100.913 264.125 101.243 264.271 101.509C264.417 101.775 264.976 102.261 265.251 102.113C265.527 101.966 265.407 101.247 265.26 100.981Z" fill="#262626"/>
<path d="M268.777 113.64C269.121 116.782 271.595 119.673 274.057 121.163C277.37 123.168 282.482 123.523 283.48 121.634C283.9 120.838 283.951 120.127 283.154 119.435C282.17 118.579 280.206 119.417 280.249 121.525C280.31 124.57 283.635 127.618 287.144 128.281" stroke="white" stroke-width="1.64356" stroke-linecap="round"/>
</svg>
