<svg width="323" height="400" viewBox="0 0 323 400" fill="none" xmlns="http://www.w3.org/2000/svg">
<path d="M62.2833 128.263C64.0306 128.21 65.1437 129.215 65.1279 130.83C65.1065 133.568 61.6216 136.966 58.7004 137.076C56.7075 137.156 55.2336 135.346 55.6976 133.395C56.2405 131.025 59.7032 128.34 62.2832 128.25L62.2833 128.263ZM62.5543 129.899C60.368 129.656 57.5734 132.211 57.6009 134.146C57.6045 134.662 58.2642 135.255 58.7828 135.224C60.7618 135.106 63.162 132.781 63.1484 130.871C63.1456 130.484 62.7593 129.926 62.5543 129.899Z" fill="white"/>
<path d="M67.1635 147.783C66.8496 149.741 64.8814 151.461 62.9013 151.502C61.4674 151.536 60.7094 150.573 61.0958 149.219C61.6287 147.339 62.8353 146.078 64.8674 145.659C66.4631 145.331 67.412 146.244 67.1634 147.77L67.1635 147.783ZM65.0726 147.624C64.2907 147.141 63.7061 147.525 63.1631 147.984C62.6471 148.415 62.7314 148.746 63.5015 149.476C64.3456 149.102 65.0249 148.596 65.0726 147.624Z" fill="white"/>
<path d="M74.2451 141.979C74.5467 140.216 76.3125 138.805 78.1706 138.849C79.1133 138.87 79.829 139.629 79.7535 140.538C79.5885 142.306 77.7295 144.047 75.859 144.184C74.7531 144.263 74.0221 143.273 74.2451 141.979ZM77.6231 140.614C76.6925 140.372 76.163 140.83 75.7024 141.375C75.6077 141.497 75.5822 141.757 75.6651 141.882C75.748 142.019 76.0088 142.197 76.1451 142.15C76.9356 141.909 77.6161 141.545 77.6367 140.6L77.6231 140.614Z" fill="white"/>
<path d="M251.694 37.3021C251.51 40.4132 254.173 42.8466 257.262 42.4002C257.445 39.289 254.783 36.8556 251.694 37.3021Z" fill="#97C124"/>
<path d="M250.782 54.2453C249.521 57.1416 246.169 58.5356 243.303 57.361C240.434 56.1794 239.137 52.8762 240.395 49.9728C241.656 47.0765 244.268 45.5485 247.47 47.79C251.338 48.5974 252.043 51.349 250.782 54.2453Z" fill="#E7194A"/>
<path d="M263.259 52.5844C264.433 55.5624 262.939 58.9892 259.93 60.2429C256.915 61.4996 253.524 60.1059 252.351 57.128C251.178 54.15 252.022 51.165 256.061 50.4247C259.549 48.18 262.089 49.6135 263.259 52.5844Z" fill="#E7194A"/>
<path d="M246.125 49.6365C245.479 49.3692 244.936 48.855 244.666 48.155C244.593 47.9849 244.683 47.7857 244.86 47.7089C245.03 47.6352 245.233 47.7155 245.3 47.8888C245.716 48.9462 246.924 49.4416 247.993 48.995C248.17 48.9183 248.367 49.0017 248.433 49.1749C248.507 49.345 248.417 49.5442 248.239 49.621C247.535 49.918 246.778 49.9007 246.132 49.6334" fill="#262626"/>
<path d="M246.768 48.8693C246.664 48.822 246.571 48.7443 246.529 48.6278C244.751 44.1183 247.024 38.8968 251.589 37.0019C251.823 36.9005 252.083 37.0151 252.174 37.2451C252.266 37.475 252.154 37.7423 251.917 37.8365C247.819 39.546 245.775 44.2299 247.371 48.2795C247.462 48.5095 247.351 48.7767 247.114 48.871C247.001 48.9201 246.873 48.9166 246.768 48.8693Z" fill="#262626"/>
<path d="M254.208 52.6338C254.035 52.5655 253.956 52.3639 254.034 52.1952C254.11 52.0194 254.311 51.9404 254.481 52.0017C255.526 52.4327 256.761 51.9226 257.22 50.8647C257.295 50.6889 257.497 50.61 257.666 50.6712C257.839 50.7395 257.918 50.9411 257.843 51.1169C257.233 52.5264 255.598 53.2014 254.204 52.6267" fill="#262626"/>
<path d="M255.556 51.8981C250.599 49.8614 248.717 43.2665 251.361 37.1934C251.464 36.9637 251.726 36.85 251.96 36.9425C252.186 37.0379 252.293 37.3033 252.19 37.533C249.748 43.1397 251.424 49.2007 255.92 51.0496C256.147 51.1451 256.254 51.4105 256.151 51.6401C256.049 51.8698 255.787 51.9835 255.553 51.8911" fill="#262626"/>
<path d="M89.6024 110.37C92.309 104.584 84.8795 99.5934 81.8314 98.572C79.7892 97.883 70.1767 93.6434 67.4733 99.4396C64.7667 105.226 65.0394 114.017 72.022 117.758C79.5692 121.804 86.899 116.167 89.6057 110.381L89.6024 110.37Z" fill="#975B2E"/>
<path d="M67.6408 99.1393C69.8454 94.9678 76.5199 94.1609 82.5487 97.3371C88.5775 100.513 91.6776 106.47 89.473 110.642C87.2683 114.813 80.5938 115.62 74.565 112.444C68.5362 109.268 65.4361 103.311 67.6408 99.1393Z" fill="#7EB73C"/>
<path d="M74.6554 102.21C75.3152 100.92 77.7969 100.866 80.1985 102.089C82.6001 103.313 84.0121 105.351 83.3524 106.642C82.6926 107.933 80.2109 107.987 77.8093 106.763C75.4077 105.539 73.9957 103.501 74.6554 102.21Z" fill="#B9D988"/>
<path d="M76.7939 110.268C76.6462 110.587 76.8227 110.995 77.1869 111.172C77.551 111.35 77.97 111.237 78.1177 110.917C78.2654 110.597 78.3139 109.719 77.9497 109.542C77.5855 109.365 76.9519 109.944 76.7939 110.268Z" fill="black"/>
<path d="M72.5418 107.433C72.1744 107.53 72.0091 107.9 72.1587 108.26C72.3083 108.62 72.7267 108.824 73.0907 108.718C73.4581 108.622 74.1557 108.102 74.0094 107.752C73.8598 107.392 72.9091 107.337 72.5418 107.433Z" fill="black"/>
<path d="M85.6799 108.617C86.0441 108.794 86.4631 108.681 86.6108 108.361C86.7585 108.041 86.5821 107.634 86.2179 107.456C85.8538 107.279 84.9073 107.132 84.7596 107.452C84.6119 107.772 85.3158 108.44 85.6832 108.627L85.6799 108.617Z" fill="black"/>
<path d="M83.131 112.519C83.2808 112.879 83.6996 113.084 84.0639 112.978C84.4316 112.881 84.5971 112.51 84.4474 112.15C84.2977 111.79 83.6557 111.067 83.2913 111.174C82.9237 111.27 82.971 112.162 83.1277 112.509L83.131 112.519Z" fill="black"/>
<path d="M81.0405 99.9549C81.1882 99.6349 81.0117 99.227 80.6476 99.0499C80.2834 98.8728 79.8643 98.9857 79.7166 99.3057C79.569 99.6256 79.5206 100.503 79.8847 100.68C80.2489 100.857 80.8825 100.278 81.0405 99.9549Z" fill="black"/>
<path d="M84.9036 103.947C85.2709 103.851 85.4363 103.48 85.2867 103.12C85.1371 102.761 84.7187 102.556 84.3546 102.662C83.9873 102.759 83.2897 103.279 83.436 103.628C83.5856 103.988 84.5363 104.043 84.9036 103.947Z" fill="black"/>
<path d="M71.5436 103.131C71.1795 102.954 70.7605 103.067 70.6128 103.387C70.4651 103.707 70.6415 104.115 71.0056 104.292C71.3698 104.469 72.3163 104.616 72.464 104.296C72.6117 103.976 71.9078 103.308 71.5403 103.121L71.5436 103.131Z" fill="black"/>
<path d="M74.102 99.3632C73.9523 99.0032 73.5335 98.7983 73.1691 98.9048C72.8014 99.001 72.6359 99.3722 72.7857 99.7322C72.9354 100.092 73.5774 100.815 73.9417 100.708C74.3094 100.612 74.2621 99.7199 74.1053 99.3735L74.102 99.3632Z" fill="black"/>
<path d="M290.514 117.264C293.129 120.441 292.697 129.094 289.434 131.647C286.18 134.199 277.448 132.754 274.832 129.567C270.102 123.814 274.684 120.21 277.938 117.658C281.191 115.106 286.239 112.067 290.514 117.264Z" fill="#C10230"/>
<path d="M280.417 112.329C278.981 112.79 277.987 113.889 277.849 115.024C277.465 115.092 277.099 115.238 276.782 115.479C276.643 115.593 276.515 115.716 276.409 115.856C275.342 115.901 274.208 116.593 273.52 117.742C272.53 119.381 271.991 122.668 273.318 123.428C274.517 124.122 276.841 122.502 278.003 120.976C279.407 122.019 281.292 122.765 282.184 122.057C283.132 121.313 282.701 119.173 281.884 117.581C281.973 117.562 282.06 117.534 282.147 117.505C283.991 116.913 286.626 114.792 286.145 113.358C285.664 111.923 282.26 111.727 280.416 112.319" fill="#B0DF30"/>
<path d="M278.767 118.048C278.535 118.231 278.201 118.193 278.019 117.971C275.574 114.997 276.056 110.625 279.105 108.233C279.337 108.05 279.671 108.087 279.853 108.309C280.035 108.532 279.997 108.856 279.775 109.038C277.181 111.075 276.774 114.779 278.845 117.309C279.027 117.532 278.989 117.856 278.766 118.038" fill="#262626"/>
<path d="M283.453 125.186C283.26 124.955 283.295 124.601 283.538 124.417C283.779 124.223 284.134 124.268 284.327 124.5C284.52 124.741 284.768 125.427 284.526 125.611C284.285 125.805 283.646 125.417 283.453 125.186Z" fill="#262626"/>
<path d="M286.011 128.29C285.818 128.058 285.854 127.704 286.096 127.52C286.337 127.326 286.692 127.372 286.885 127.603C287.079 127.844 287.327 128.531 287.084 128.715C286.843 128.909 286.204 128.521 286.011 128.29Z" fill="#262626"/>
<path d="M278.294 126.074C278.101 125.842 278.136 125.488 278.379 125.305C278.62 125.111 278.975 125.156 279.168 125.387C279.362 125.628 279.609 126.315 279.367 126.499C279.126 126.693 278.487 126.305 278.294 126.074Z" fill="#262626"/>
<path d="M281.018 128.839C280.778 128.643 280.754 128.295 280.962 128.064C281.169 127.833 281.517 127.809 281.757 128.006C281.987 128.204 282.359 128.838 282.152 129.068C281.944 129.299 281.258 129.036 281.017 128.829" fill="#262626"/>
<path d="M286.297 119.791C286.104 119.559 285.749 119.514 285.508 119.708C285.267 119.902 285.23 120.246 285.423 120.477C285.617 120.718 286.255 121.096 286.496 120.902C286.737 120.708 286.49 120.022 286.297 119.791Z" fill="#262626"/>
<path d="M288.474 122.991C288.327 122.725 287.988 122.629 287.712 122.776C287.436 122.923 287.338 123.253 287.484 123.519C287.631 123.785 288.189 124.271 288.465 124.124C288.741 123.976 288.62 123.257 288.474 122.991Z" fill="#262626"/>
<path d="M291.991 135.65C292.335 138.793 294.809 141.683 297.271 143.173C300.584 145.178 305.695 145.534 306.694 143.644C307.114 142.848 307.165 142.137 306.368 141.445C305.384 140.59 303.42 141.427 303.462 143.535C303.524 146.58 306.849 149.628 310.357 150.291" stroke="white" stroke-width="1.64356" stroke-linecap="round"/>
</svg>
