<svg width="118" height="124" viewBox="0 0 118 124" fill="none" xmlns="http://www.w3.org/2000/svg">
<path d="M76.399 30.0923L65.1043 39.876C64.7124 40.2517 64.2338 40.5249 63.711 40.6714C63.1881 40.8179 62.6372 40.8332 62.1071 40.7158C61.577 40.5985 61.084 40.3522 60.6718 39.9987C60.2597 39.6453 59.9411 39.1956 59.7443 38.6896L57.5178 32.9632C57.1508 32.0177 56.4607 31.2328 55.57 30.7478C54.6793 30.2628 53.6456 30.109 52.6523 30.3137C51.6589 30.5185 50.7703 31.0685 50.1439 31.8661C49.5176 32.6638 49.1941 33.6576 49.2309 34.6711L49.4427 40.5457C49.4622 41.0883 49.3474 41.6272 49.1087 42.1148C48.87 42.6023 48.5147 43.0235 48.0742 43.3409C47.6338 43.6582 47.1219 43.8621 46.5838 43.9342C46.0458 44.0064 45.4982 43.9447 44.9897 43.7546L33.6534 39.5159C32.6682 39.1475 31.5872 39.1246 30.5873 39.4509C29.5874 39.7772 28.7279 40.4333 28.1496 41.3119C27.5713 42.1904 27.3085 43.2393 27.4042 44.2867C27.4998 45.3341 27.9483 46.318 28.6762 47.0773L35.9844 55.8137C36.36 56.2058 36.6331 56.6844 36.7795 57.2072C36.9259 57.73 36.941 58.2808 36.8236 58.8109C36.7062 59.341 36.4599 59.8339 36.1064 60.246C35.7529 60.6581 35.3033 60.9766 34.7973 61.1734L30.3853 63.3016C29.4408 63.6694 28.6571 64.3597 28.1729 65.2501C27.6887 66.1405 27.5353 67.1736 27.7399 68.1663C27.9445 69.159 28.4938 70.0472 29.2907 70.6736C30.0875 71.3 31.0803 71.6241 32.0932 71.5885L37.1657 71.3693C37.7083 71.35 38.2473 71.4648 38.7349 71.7036C39.2225 71.9425 39.6437 72.2979 39.9611 72.7384C40.2785 73.1789 40.4823 73.691 40.5544 74.2291C40.6266 74.7673 40.5649 75.3149 40.3748 75.8235L29.5586 96.0934C29.1907 97.0787 29.1681 98.1596 29.4945 99.1593C29.8209 100.159 30.4771 101.018 31.3555 101.597C32.234 102.175 33.2827 102.438 34.33 102.342C35.3774 102.247 36.3613 101.799 37.1207 101.071L53.3871 85.237C53.779 84.8613 54.2576 84.5881 54.7805 84.4416C55.3033 84.2951 55.8542 84.2798 56.3843 84.3971C56.9144 84.5145 57.4074 84.7608 57.8196 85.1142C58.2318 85.4677 58.5504 85.9174 58.7472 86.4234L60.7223 90.4362C61.0902 91.3806 61.7804 92.1644 62.6708 92.6486C63.5613 93.1328 64.5943 93.2862 65.587 93.0816C66.5797 92.877 67.4679 92.3276 68.0943 91.5308C68.7207 90.734 69.0448 89.7412 69.0092 88.7282L68.8057 84.081C68.7863 83.5384 68.901 82.9995 69.1397 82.5119C69.3784 82.0244 69.7337 81.6032 70.1742 81.2858C70.6146 80.9685 71.1265 80.7646 71.6646 80.6925C72.2026 80.6203 72.7502 80.682 73.2587 80.8721L85.1373 84.241C86.1225 84.6093 87.2035 84.6322 88.2034 84.3059C89.2033 83.9797 90.0628 83.3235 90.6411 82.445C91.2194 81.5664 91.4822 80.5176 91.3866 79.4701C91.2909 78.4227 90.8424 77.4388 90.1145 76.6796L81.3426 67.5232C80.9674 67.1313 80.6947 66.6529 80.5484 66.1304C80.4022 65.6079 80.3871 65.0574 80.5043 64.5277C80.6215 63.998 80.8676 63.5053 81.2206 63.0933C81.5736 62.6813 82.0228 62.3627 82.5283 62.1657L87.8576 60.0936C88.803 59.7266 89.5879 59.0365 90.0729 58.1458C90.558 57.2551 90.7118 56.2214 90.507 55.2281C90.3023 54.2348 89.7523 53.3461 88.9546 52.7198C88.1569 52.0934 87.1631 51.7699 86.1496 51.8067L80.7022 52.0013C80.1596 52.0206 79.6206 51.9058 79.133 51.667C78.6453 51.4282 78.2242 51.0728 77.9068 50.6322C77.5894 50.1917 77.3856 49.6797 77.3134 49.1415C77.2412 48.6034 77.3029 48.0558 77.4931 47.5472L83.9624 35.0679C84.3301 34.0826 84.3524 33.0016 84.0257 32.002C83.699 31.0024 83.0426 30.1433 82.164 29.5653C81.2854 28.9873 80.2366 28.7247 79.1893 28.8204C78.142 28.9162 77.1582 29.3646 76.399 30.0923Z" fill="#8755EA"/>
<path d="M16.3239 58.3664C17.1288 58.1998 17.9651 58.2759 18.7268 58.5848C19.4886 58.8937 20.1416 59.4216 20.6032 60.1017C21.0648 60.7818 21.3143 61.5836 21.3202 62.4056C21.326 63.2276 21.0879 64.0328 20.6359 64.7194C20.184 65.406 19.5385 65.9431 18.7812 66.2628C18.0239 66.5824 17.1888 66.6703 16.3816 66.5152C15.5744 66.3601 14.8313 65.9691 14.2464 65.3915C13.6614 64.814 13.261 64.076 13.0956 63.2708C12.8742 62.1924 13.0897 61.0702 13.695 60.1506C14.3003 59.2311 15.2458 58.5893 16.3239 58.3664Z" fill="#8755EA"/>
<path d="M98.112 54.4055C98.917 54.2389 99.7533 54.3148 100.515 54.6237C101.277 54.9325 101.93 55.4604 102.392 56.1405C102.853 56.8207 103.103 57.6225 103.109 58.4445C103.115 59.2665 102.877 60.0718 102.425 60.7584C101.973 61.4451 101.327 61.9822 100.57 62.3019C99.8125 62.6215 98.9773 62.7094 98.1701 62.5542C97.3628 62.3991 96.6197 62.0079 96.0348 61.4303C95.4499 60.8527 95.0495 60.1145 94.8842 59.3093C94.663 58.2311 94.8786 57.1091 95.4838 56.1897C96.0889 55.2703 97.0342 54.6286 98.112 54.4055Z" fill="#8755EA"/>
<path d="M79.2956 18.5714C79.4623 19.3763 79.3864 20.2127 79.0775 20.9745C78.7687 21.7363 78.2408 22.3894 77.5607 22.8511C76.8805 23.3128 76.0787 23.5624 75.2567 23.5682C74.4347 23.5741 73.6294 23.3359 72.9427 22.884C72.2561 22.432 71.719 21.7865 71.3993 21.0292C71.0796 20.2718 70.9918 19.4367 71.147 18.6294C71.3021 17.8221 71.6933 17.079 72.2709 16.4941C72.8485 15.9092 73.5866 15.5088 74.3919 15.3436C75.4701 15.1223 76.5921 15.3379 77.5115 15.9431C78.4309 16.5483 79.0725 17.4935 79.2956 18.5714Z" fill="#8755EA"/>
<path d="M80.4706 95.5421C80.6373 96.347 80.5613 97.1834 80.2525 97.9452C79.9437 98.707 79.4158 99.3601 78.7356 99.8218C78.0555 100.284 77.2537 100.533 76.4317 100.539C75.6096 100.545 74.8044 100.307 74.1177 99.8547C73.4311 99.4027 72.8939 98.7572 72.5743 97.9999C72.2546 97.2425 72.1668 96.4074 72.322 95.6001C72.4771 94.7928 72.8682 94.0497 73.4459 93.4648C74.0235 92.8799 74.7616 92.4795 75.5669 92.3143C76.6451 92.093 77.7671 92.3086 78.6865 92.9138C79.6058 93.519 80.2475 94.4642 80.4706 95.5421Z" fill="#8755EA"/>
</svg>
