<svg width="56" height="50" viewBox="0 0 56 50" fill="none" xmlns="http://www.w3.org/2000/svg">
<path fill-rule="evenodd" clip-rule="evenodd" d="M14.0753 15.4828C14.2318 15.8959 14.0236 16.3575 13.6106 16.514L12.1973 17.0491L12.9689 18.3486C13.1944 18.7283 13.0694 19.2191 12.6895 19.4447C12.607 19.4937 12.5193 19.5261 12.4301 19.543C12.1089 19.6038 11.77 19.4626 11.5934 19.1654L10.4841 17.2974L8.56288 16.6254L8.94158 18.6252L10.6237 20.0002C10.9659 20.2797 11.0165 20.7837 10.7368 21.1257C10.6131 21.2772 10.4451 21.3716 10.2668 21.4054C10.0426 21.4478 9.80203 21.3945 9.61149 21.2388L8.44133 20.2825L7.70169 21.6004C7.48575 21.9857 6.99803 22.1228 6.61289 21.9066C6.22753 21.6906 6.09042 21.203 6.30671 20.8177L7.36976 18.9229L6.99107 16.923L5.44845 18.2509L5.09897 20.3953C5.0432 20.7365 4.77916 20.9918 4.45822 21.0526C4.36912 21.0695 4.27552 21.0715 4.18077 21.056C3.74473 20.9849 3.44892 20.5738 3.52 20.1379L3.76311 18.6463L2.25197 18.6649C1.81036 18.6703 1.4478 18.3167 1.4424 17.875C1.43688 17.4333 1.79035 17.0707 2.23219 17.0653L4.40477 17.0386L5.94739 15.7107L4.02607 15.0387L1.99412 15.8081C1.94944 15.825 1.90431 15.8376 1.85888 15.8463C1.48486 15.9171 1.10249 15.7118 0.962995 15.3433C0.806512 14.9302 1.01468 14.4684 1.4277 14.3121L2.841 13.7768L2.0694 12.4775C1.84384 12.0977 1.96887 11.6069 2.34873 11.3813C2.72838 11.1558 3.21928 11.2808 3.44497 11.6606L4.55426 13.5287L6.47554 14.2007L6.09682 12.2007L4.41458 10.8258C4.07242 10.5464 4.02176 10.0424 4.30143 9.70032C4.58089 9.35827 5.08498 9.30759 5.42681 9.58732L6.5971 10.5436L7.33661 9.22567C7.55263 8.84031 8.04003 8.70324 8.42541 8.91938C8.8108 9.13553 8.94791 9.62314 8.7316 10.0083L7.66864 11.9031L8.04736 13.903L9.58985 12.5752L9.93943 10.4308C10.0105 9.99478 10.4215 9.69899 10.8575 9.77005C11.2936 9.84111 11.5894 10.2522 11.5183 10.6883L11.2752 12.1797L12.7863 12.1612C13.2279 12.1557 13.5905 12.5094 13.5959 12.9511C13.6008 13.345 13.3199 13.676 12.9459 13.7468C12.9005 13.7554 12.8539 13.7601 12.8061 13.7608L10.6336 13.7875L9.09094 15.1154L11.0123 15.7874L13.0442 15.0179C13.4574 14.8614 13.9189 15.0696 14.0753 15.4828Z" fill="#7DC2F3"/>
<path d="M40.5619 19.2398L33.9898 20.8548C33.7927 20.8813 33.5921 20.8588 33.4058 20.7892C33.2195 20.7196 33.0532 20.6052 32.9217 20.456C32.7902 20.3068 32.6976 20.1274 32.652 19.9338C32.6064 19.7403 32.6092 19.5384 32.6603 19.3462L33.2383 17.1713C33.334 16.8123 33.2993 16.431 33.1406 16.0952C32.9818 15.7593 32.7092 15.4906 32.3711 15.3366C32.0331 15.1826 31.6514 15.1534 31.2938 15.2541C30.9362 15.3549 30.6259 15.579 30.4179 15.8868L29.2118 17.6705C29.1004 17.8352 28.95 17.9698 28.7741 18.0625C28.5982 18.1552 28.4021 18.2031 28.2033 18.2018C28.0044 18.2006 27.809 18.1503 27.6342 18.0555C27.4594 17.9606 27.3108 17.8241 27.2014 17.6581L23.7631 12.9557C23.5512 12.634 23.2363 12.3937 22.8701 12.2743C22.5038 12.1549 22.1078 12.1634 21.747 12.2984C21.3862 12.4334 21.0819 12.6869 20.884 13.0175C20.6861 13.348 20.6062 13.7359 20.6576 14.1178L22.2487 19.5113C22.2751 19.7084 22.2525 19.909 22.1829 20.0953C22.1133 20.2815 21.9989 20.4478 21.8496 20.5792C21.7004 20.7107 21.5211 20.8033 21.3275 20.8489C21.134 20.8945 20.9321 20.8916 20.7399 20.8405L18.6592 20.2867C18.3004 20.1915 17.9194 20.2265 17.5839 20.3853C17.2483 20.5442 16.9798 20.8166 16.8259 21.1545C16.6721 21.4924 16.6428 21.8738 16.7432 22.2312C16.8437 22.5886 17.0674 22.8989 17.3747 23.1072L19.2385 24.3684C19.4032 24.4799 19.5379 24.6302 19.6306 24.8062C19.7233 24.9822 19.7711 25.1783 19.7699 25.3772C19.7686 25.576 19.7183 25.7715 19.6234 25.9463C19.5286 26.1211 19.392 26.2698 19.226 26.3792L13.3735 29.9165C13.0519 30.1285 12.8117 30.4434 12.6924 30.8097C12.5731 31.176 12.5816 31.5719 12.7166 31.9327C12.8516 32.2935 13.1051 32.5977 13.4355 32.7957C13.766 32.9936 14.1538 33.0735 14.5356 33.0223L20.9572 31.428C21.1543 31.4015 21.3549 31.424 21.5412 31.4936C21.7275 31.5631 21.8938 31.6776 22.0253 31.8268C22.1567 31.976 22.2494 32.1554 22.295 32.3489C22.3406 32.5425 22.3377 32.7444 22.2867 32.9366L21.7738 34.8662C21.6786 35.225 21.7135 35.606 21.8724 35.9415C22.0312 36.2771 22.3037 36.5456 22.6416 36.6994C22.9795 36.8533 23.3609 36.8826 23.7183 36.7821C24.0757 36.6817 24.386 36.458 24.5942 36.1506L25.7683 34.416C25.8797 34.2513 26.03 34.1166 26.206 34.0239C26.3819 33.9312 26.578 33.8834 26.7768 33.8846C26.9756 33.8858 27.1711 33.9361 27.3459 34.031C27.5206 34.1258 27.6693 34.2623 27.7787 34.4284L31.3347 39.3064C31.5466 39.6281 31.8615 39.8684 32.2277 39.9878C32.594 40.1072 32.99 40.0987 33.3508 39.9637C33.7116 39.8287 34.0159 39.5751 34.2138 39.2446C34.4117 38.9141 34.4915 38.5261 34.4402 38.1443L32.8226 32.541C32.7963 32.344 32.8189 32.1436 32.8885 31.9574C32.9581 31.7713 33.0725 31.6052 33.2216 31.4738C33.3707 31.3424 33.5499 31.2498 33.7433 31.2041C33.9367 31.1585 34.1384 31.1612 34.3305 31.2121L36.3546 31.7501C36.7136 31.8457 37.0948 31.8111 37.4307 31.6523C37.7665 31.4936 38.0353 31.221 38.1893 30.8829C38.3432 30.5448 38.3724 30.1631 38.2717 29.8056C38.171 29.448 37.9469 29.1376 37.6391 28.9296L35.9855 27.8107C35.8208 27.6992 35.6861 27.5489 35.5935 27.3729C35.5008 27.1969 35.4529 27.0008 35.4542 26.8019C35.4554 26.6031 35.5057 26.4076 35.6006 26.2328C35.6955 26.058 35.832 25.9093 35.9981 25.7999L41.7249 22.3453C42.0464 22.1332 42.2865 21.8183 42.4057 21.452C42.525 21.0857 42.5163 20.6898 42.3812 20.329C42.2461 19.9683 41.9926 19.6641 41.6621 19.4662C41.3316 19.2683 40.9437 19.1885 40.5619 19.2398Z" fill="#8755EA"/>
<path d="M7.8728 26.1626C8.17086 26.2981 8.42203 26.519 8.59454 26.7972C8.76705 27.0755 8.85313 27.3987 8.84191 27.7259C8.83069 28.0531 8.72266 28.3697 8.53149 28.6355C8.34032 28.9013 8.0746 29.1044 7.76796 29.2191C7.46132 29.3339 7.12753 29.3551 6.80883 29.2801C6.49014 29.205 6.20085 29.0372 5.97759 28.7977C5.75432 28.5582 5.6071 28.2579 5.55457 27.9348C5.50203 27.6116 5.54653 27.2801 5.68243 26.9822C5.86446 26.5833 6.19736 26.2729 6.60804 26.1193C7.01873 25.9656 7.47361 25.9812 7.8728 26.1626Z" fill="#8755EA"/>
<path d="M48.6365 17.8147C48.5011 18.1128 48.2803 18.364 48.002 18.5366C47.7237 18.7091 47.4005 18.7953 47.0733 18.784C46.7461 18.7728 46.4295 18.6648 46.1637 18.4737C45.8979 18.2825 45.6947 18.0168 45.58 17.7101C45.4652 17.4034 45.444 17.0696 45.5191 16.7509C45.5941 16.4322 45.762 16.1429 46.0015 15.9196C46.241 15.6964 46.5413 15.5492 46.8645 15.4967C47.1877 15.4442 47.5192 15.4887 47.8171 15.6247C48.2159 15.8067 48.5262 16.1396 48.6798 16.5502C48.8335 16.9608 48.8179 17.4156 48.6365 17.8147Z" fill="#8755EA"/>
<path d="M25.9694 44.6721C25.8339 44.9702 25.6131 45.2215 25.3348 45.394C25.0565 45.5665 24.7333 45.6527 24.4061 45.6415C24.0789 45.6303 23.7623 45.5222 23.4965 45.3311C23.2307 45.1399 23.0275 44.8742 22.9128 44.5675C22.798 44.2609 22.7768 43.927 22.8519 43.6083C22.9269 43.2896 23.0948 43.0003 23.3343 42.7771C23.5738 42.5538 23.8741 42.4066 24.1973 42.3541C24.5205 42.3016 24.852 42.3461 25.1499 42.4821C25.5487 42.6641 25.859 42.997 26.0126 43.4076C26.1663 43.8182 26.1507 44.273 25.9694 44.6721Z" fill="#8755EA"/>
<path d="M47.9887 39.6545C48.3442 39.6545 48.6323 39.3663 48.6323 39.0109C48.6323 38.6554 48.3442 38.3672 47.9887 38.3672C47.6332 38.3672 47.345 38.6554 47.345 39.0109C47.345 39.3663 47.6332 39.6545 47.9887 39.6545Z" fill="#10CFC9"/>
<path d="M47.9892 34.5059C47.6337 34.5059 47.3455 34.794 47.3455 35.1495L47.3455 36.4368C47.3455 36.7923 47.6337 37.0805 47.9892 37.0805C48.3446 37.0805 48.6328 36.7923 48.6328 36.4368L48.6328 35.1495C48.6328 34.7939 48.3446 34.5059 47.9892 34.5059Z" fill="#10CFC9"/>
<path d="M47.9884 40.9453C47.633 40.9453 47.3448 41.2334 47.3448 41.5889L47.3448 42.8763C47.3448 43.2318 47.633 43.52 47.9884 43.52C48.3439 43.52 48.6321 43.2318 48.6321 42.8763L48.6321 41.5889C48.6321 41.2334 48.3439 40.9453 47.9884 40.9453Z" fill="#10CFC9"/>
<path d="M46.0816 37.1695L44.9669 36.5258C44.6589 36.3481 44.2655 36.4535 44.0875 36.7614C43.9096 37.0692 44.0153 37.4628 44.3233 37.6406L45.438 38.2843C45.7457 38.462 46.1394 38.3565 46.3171 38.0487C46.4949 37.7408 46.3893 37.3471 46.0816 37.1695Z" fill="#10CFC9"/>
<path d="M51.6568 40.3862L50.5421 39.7426C50.2341 39.5649 49.8406 39.6703 49.6627 39.9782C49.4851 40.2861 49.5904 40.6798 49.8984 40.8575L51.0131 41.5012C51.3211 41.6789 51.7145 41.5734 51.8925 41.2655C52.0701 40.9577 51.9648 40.564 51.6568 40.3862Z" fill="#10CFC9"/>
<path d="M45.4365 39.7425L44.3221 40.3862C44.0141 40.5639 43.9085 40.9576 44.0864 41.2655C44.2643 41.5734 44.6578 41.6788 44.9658 41.5011L46.0802 40.8575C46.3882 40.6797 46.4938 40.286 46.3159 39.9782C46.138 39.6703 45.7445 39.5649 45.4365 39.7425Z" fill="#10CFC9"/>
<path d="M50.5634 38.2569L51.6781 37.6133C51.9857 37.4355 52.0914 37.0419 51.9138 36.734C51.7359 36.4262 51.3421 36.3207 51.0344 36.4984L49.9197 37.1421C49.6117 37.3198 49.5064 37.7135 49.684 38.0214C49.8619 38.3292 50.2554 38.4347 50.5634 38.2569Z" fill="#10CFC9"/>
<path fill-rule="evenodd" clip-rule="evenodd" d="M31 6.45012C31 6.14109 31.1686 5.86016 31.4495 5.71969L34.315 4.34312L35.7197 1.44949C35.8602 1.16856 36.1411 1 36.4501 1C36.7591 1 37.0401 1.16856 37.1805 1.44949L38.5571 4.34312L41.4507 5.71969C41.7317 5.86016 41.9002 6.14109 41.9002 6.45012C41.9002 6.75915 41.7317 7.04008 41.4507 7.18055L38.5571 8.55713L37.1805 11.4507C37.0401 11.7317 36.7591 11.9002 36.4501 11.9002C36.1411 11.9002 35.8602 11.7317 35.7197 11.4507L34.315 8.55713L31.4495 7.18055C31.1686 7.04008 31 6.75915 31 6.45012Z" fill="#FF3BE8"/>
<path fill-rule="evenodd" clip-rule="evenodd" d="M22.5697 5.98174C22.5026 6.13807 22.3564 6.2436 22.1838 6.25368L20.4355 6.32813L19.0969 7.48703C18.9649 7.59865 18.7862 7.62295 18.6299 7.55588C18.4736 7.48881 18.3681 7.34258 18.358 7.16998L18.2896 5.40747L17.1246 4.08312C17.013 3.95109 16.9887 3.7724 17.0558 3.61607C17.1228 3.45975 17.2691 3.35422 17.4417 3.34413L19.2042 3.27579L20.5285 2.11079C20.6606 1.99916 20.8392 1.97487 20.9956 2.04193C21.1519 2.109 21.2574 2.25524 21.2675 2.42784L21.3501 4.19645L22.5009 5.5147C22.6125 5.64673 22.6368 5.82542 22.5697 5.98174Z" fill="#FF9318"/>
</svg>
