<svg width="401" height="393" viewBox="0 0 401 393" fill="none" xmlns="http://www.w3.org/2000/svg">
<path d="M176.155 18.9636L161.145 83.4675C160.498 86.2483 159.161 88.8295 157.253 90.9823C155.345 93.1352 152.925 94.7933 150.207 95.8096C147.489 96.8259 144.558 97.169 141.672 96.8085C138.787 96.448 136.037 95.3951 133.666 93.7431L106.837 75.0471C102.41 71.9585 97.01 70.5076 91.5958 70.952C86.1816 71.3963 81.103 73.7072 77.2612 77.4745C73.4194 81.2418 71.0629 86.2219 70.6097 91.5311C70.1566 96.8402 71.6362 102.135 74.7859 106.476L93.037 131.641C94.7218 133.966 95.7958 136.662 96.1637 139.491C96.5316 142.32 96.1821 145.194 95.1461 147.859C94.1101 150.523 92.4197 152.896 90.2247 154.767C88.0297 156.638 85.3979 157.949 82.5626 158.583L19.3515 172.726C13.8582 173.955 8.95329 176.977 5.44011 181.297C1.92692 185.617 0.013663 190.978 0.0136633 196.503C0.0136635 202.028 1.92692 207.39 5.44011 211.71C8.95329 216.029 13.8582 219.051 19.3515 220.28L82.5626 234.423C85.398 235.059 88.0298 236.37 90.2247 238.241C92.4196 240.112 94.1099 242.486 95.1459 245.151C96.1818 247.816 96.5313 250.69 96.1634 253.519C95.7956 256.348 94.7217 259.045 93.037 261.369L74.7859 286.535C71.6432 290.876 70.1693 296.169 70.6253 301.475C71.0812 306.78 73.4376 311.756 77.277 315.521C81.1163 319.286 86.1907 321.597 91.6012 322.044C97.0117 322.491 102.409 321.045 106.837 317.964L133.666 299.268C136.037 297.616 138.787 296.563 141.672 296.202C144.558 295.842 147.489 296.185 150.207 297.201C152.925 298.218 155.345 299.876 157.253 302.029C159.161 304.181 160.498 306.763 161.145 309.543L176.155 374.043C177.411 379.429 180.493 384.237 184.899 387.681C189.304 391.125 194.771 393 200.405 393C206.039 393 211.506 391.125 215.911 387.681C220.316 384.237 223.399 379.429 224.654 374.043L239.175 311.665C239.822 308.884 241.159 306.303 243.067 304.15C244.975 301.997 247.395 300.339 250.113 299.323C252.831 298.306 255.762 297.963 258.648 298.324C261.533 298.684 264.283 299.737 266.654 301.389L290.456 317.977C294.884 321.059 300.281 322.504 305.692 322.057C311.102 321.61 316.177 319.299 320.016 315.534C323.855 311.769 326.212 306.793 326.668 301.488C327.123 296.182 325.65 290.89 322.507 286.548L304.763 262.059C303.078 259.735 302.004 257.039 301.637 254.21C301.269 251.381 301.618 248.507 302.654 245.842C303.69 243.177 305.381 240.804 307.576 238.934C309.771 237.063 312.402 235.752 315.238 235.117L381.458 220.276C386.951 219.047 391.856 216.025 395.369 211.705C398.883 207.386 400.796 202.024 400.796 196.499C400.796 190.974 398.883 185.612 395.369 181.293C391.856 176.973 386.951 173.951 381.458 172.722L315.238 157.88C312.404 157.244 309.775 155.933 307.582 154.063C305.388 152.192 303.699 149.821 302.664 147.158C301.628 144.495 301.278 141.622 301.644 138.795C302.01 135.967 303.082 133.272 304.763 130.947L322.507 106.463C325.657 102.122 327.136 96.8271 326.683 91.518C326.23 86.2088 323.873 81.2287 320.032 77.4614C316.19 73.6941 311.111 71.3833 305.697 70.9389C300.283 70.4945 294.883 71.9454 290.456 75.0341L266.654 91.6216C264.283 93.2737 261.533 94.3266 258.648 94.6871C255.762 95.0475 252.831 94.7044 250.113 93.6881C247.395 92.6718 244.975 91.0137 243.067 88.8609C241.159 86.708 239.822 84.1268 239.175 81.3461L224.654 18.9505C223.397 13.5651 220.313 8.75768 215.907 5.31503C211.501 1.87237 206.033 -0.00152887 200.399 -7.39637e-06C194.766 0.00151408 189.299 1.8784 184.895 5.32343C180.49 8.76847 177.409 13.5776 176.155 18.9636Z" fill="url(#paint0_linear_2001_797)"/>
<defs>
<linearGradient id="paint0_linear_2001_797" x1="26.9048" y1="196.428" x2="346.905" y2="196.428" gradientUnits="userSpaceOnUse">
<stop stop-color="#E4A5FF"/>
<stop offset="1" stop-color="#F033A1"/>
</linearGradient>
</defs>
</svg>
