<svg width="13" height="13" viewBox="0 0 13 13" fill="none" preserveAspectRatio="none" xmlns="http://www.w3.org/2000/svg">
<path d="M6.35707 3.30739e-05C5.14945 0.213653 3.93047 0.453794 2.91061 1.17037C1.3671 2.25461 0.313405 3.87827 0.0591739 5.75899C-0.162737 7.40215 0.242167 9.08278 1.31074 10.3667C2.55837 11.8654 4.35686 12.542 6.24767 12.7405C7.32739 12.6261 8.50037 12.3052 9.42626 11.7269C9.61686 11.6088 9.80068 11.4813 9.97782 11.3442C10.155 11.207 10.3245 11.061 10.4861 10.9062C10.6481 10.7515 10.8019 10.5887 10.947 10.4178C11.0918 10.2471 11.2276 10.0693 11.3542 9.88435C11.481 9.69949 11.5976 9.50865 11.7041 9.3119C11.8108 9.1147 11.9071 8.91274 11.9929 8.70575C12.0787 8.49877 12.1535 8.28795 12.2171 8.07292C12.2808 7.85825 12.3333 7.64082 12.3746 7.42049C12.4133 7.20561 12.4406 6.98914 12.4565 6.77136C12.4725 6.55383 12.4769 6.33595 12.4697 6.11769C12.4626 5.89943 12.444 5.68219 12.414 5.46594C12.3841 5.24969 12.3428 5.03554 12.2904 4.82339C12.2379 4.61149 12.1744 4.40297 12.0998 4.19778C12.0254 3.99253 11.9403 3.79169 11.8445 3.59552C11.7489 3.39928 11.6431 3.20848 11.5272 3.02335C11.4116 2.83812 11.2864 2.65958 11.1518 2.48778C9.94062 0.928249 8.26382 0.243184 6.35707 3.30739e-05Z" fill="#C1022F"/>
</svg>
