<svg width="30" height="15" viewBox="0 0 30 15" fill="none" preserveAspectRatio="none" xmlns="http://www.w3.org/2000/svg">
<path d="M5.67557 0.0301569C4.69708 -0.0222886 3.86012 -0.0513455 2.9378 0.341603C2.78813 0.404557 2.64209 0.475055 2.49978 0.553134C2.35747 0.631115 2.21938 0.716181 2.08552 0.808304C1.95185 0.900329 1.82319 0.999025 1.69954 1.10431C1.57608 1.20969 1.45823 1.32098 1.34607 1.43825C1.23381 1.55581 1.12794 1.67867 1.02816 1.80664C0.928475 1.9349 0.83556 2.06788 0.749624 2.20567C0.663688 2.34337 0.584924 2.48498 0.513228 2.63063C0.441828 2.77648 0.377997 2.92556 0.321623 3.07779C0.262695 3.23257 0.211713 3.39011 0.168597 3.55029C0.125482 3.71018 0.0905288 3.87193 0.063815 4.03565C0.0372976 4.19908 0.0190294 4.3636 0.00910995 4.52909C-0.000809516 4.69457 -0.00248162 4.86015 0.00409862 5.02564C0.0109735 5.19113 0.0261954 5.35604 0.0496682 5.52025C0.073141 5.68417 0.104861 5.8466 0.144931 6.00757C0.184708 6.16825 0.232634 6.32656 0.288714 6.48262C0.344793 6.63868 0.408535 6.7915 0.479935 6.94088C1.20828 8.43656 2.3723 9.07387 3.88251 9.59715C4.86866 9.64154 5.76112 9.59253 6.67843 9.19545C6.82712 9.1327 6.97238 9.06256 7.1141 8.98507C7.25563 8.90729 7.39292 8.82264 7.5261 8.7311C7.65898 8.63957 7.78695 8.54156 7.91011 8.43697C8.03307 8.33217 8.15043 8.22148 8.26239 8.1049C8.37406 7.98832 8.47955 7.86645 8.57874 7.73917C8.67823 7.61189 8.77095 7.47977 8.85688 7.34287C8.94262 7.20615 9.02129 7.06541 9.09288 6.92055C9.16448 6.77568 9.22851 6.62768 9.28488 6.47643C9.33998 6.32548 9.38743 6.17207 9.4272 6.01621C9.46668 5.86064 9.4983 5.70331 9.52207 5.54421C9.54574 5.3853 9.56145 5.2257 9.56912 5.06532C9.57648 4.90465 9.57589 4.74416 9.56724 4.58368C9.55831 4.4233 9.54152 4.26361 9.51677 4.1048C9.49173 3.94619 9.45892 3.78914 9.41807 3.63357C9.37701 3.47829 9.3283 3.32539 9.27192 3.17492C9.21584 3.02446 9.1521 2.87714 9.08061 2.73306C8.34981 1.24357 7.18805 0.555397 5.67557 0.0301569Z" fill="#A05CFF"/>
</svg>
