<svg width="10" height="10" viewBox="0 0 10 10" fill="none" preserveAspectRatio="none" xmlns="http://www.w3.org/2000/svg">
<path d="M5.14156 0C4.44956 0.00500884 3.80037 0.0761059 3.14166 0.305236C2.98943 0.35827 2.84055 0.418966 2.6949 0.487322C2.54906 0.555874 2.40723 0.631782 2.26954 0.71487C2.13155 0.798253 1.99848 0.888516 1.87022 0.985746C1.74166 1.08298 1.61869 1.18659 1.50113 1.29678C1.38357 1.40668 1.272 1.52258 1.16642 1.64456C1.06114 1.76624 0.962235 1.89313 0.869915 2.02513C0.777595 2.15703 0.69244 2.29344 0.614361 2.43448C0.536577 2.57551 0.466168 2.72008 0.403214 2.86828C-0.118884 4.10075 -0.142654 5.57816 0.382881 6.81407C1.10661 8.51629 2.37738 9.22204 4.01576 9.83528C4.98777 9.77596 5.8924 9.74239 6.76689 9.25653C6.90969 9.17776 7.04817 9.09201 7.18232 8.99949C7.31648 8.90697 7.44564 8.8078 7.56988 8.70193C7.69411 8.59635 7.81275 8.48476 7.92599 8.3672C8.03894 8.24993 8.14589 8.12707 8.24656 7.99881C8.34733 7.87054 8.44122 7.73756 8.52843 7.59977C8.61594 7.46208 8.69607 7.32025 8.76905 7.17441C8.84221 7.02876 8.90792 6.87988 8.96606 6.72765C9.0242 6.57513 9.07458 6.42026 9.11711 6.26292C9.46939 4.96848 9.30803 3.52632 8.62133 2.36722C7.8155 1.00757 6.63194 0.365351 5.14156 0Z" fill="#FFFFFF"/>
</svg>
