<svg width="675" height="511" viewBox="0 0 675 511" fill="none" xmlns="http://www.w3.org/2000/svg">
<path d="M54.5725 105.133C30.0721 163.671 29.0731 312.068 61.53 414.753C68.7675 437.651 91.5213 453.228 118.245 448.762C334.814 412.589 459.953 484.981 575.488 436.518C594.061 428.746 608.397 410.745 611.889 388.885C626.718 296.068 622.392 181.402 610.129 117.309C605.897 95.0954 591.394 80.5553 572.394 73.3458C479.633 38.3124 176.716 49.4321 96.7952 65.4855C77.7146 71.7972 63.0817 84.784 54.5276 105.139L54.5725 105.133Z" fill="#5F1888"/>
<path opacity="0.05" d="M8.32956 241.458C8.32956 241.458 31.0992 155.478 102.298 150.788C139.08 148.365 155.811 179.64 191.755 172.729C229.84 165.406 224.465 127.312 260.786 116.084C327.028 95.6074 344.586 168.998 413.088 187.16C479.69 204.818 524.609 170.924 544.205 131.885C558.898 102.612 524.024 86.1637 504.563 109.114C477.209 141.374 544.311 257.701 672.248 252.136" stroke="white" stroke-width="4" stroke-linecap="round"/>
</svg>
