<svg width="211" height="10" viewBox="0 0 211 10" fill="none" xmlns="http://www.w3.org/2000/svg">
<path d="M84.029 0.00253013C122.607 0.441036 161.066 2.9737 199.417 6.94784C202.893 7.33266 206.346 7.74095 209.82 8.20761C210.016 8.23397 210.195 8.33501 210.317 8.49081C210.439 8.6466 210.495 8.84468 210.471 9.04062C210.448 9.23644 210.347 9.4148 210.192 9.53769C210.037 9.66052 209.84 9.71781 209.644 9.69784C206.174 9.34348 202.72 9.04297 199.243 8.7623C160.893 5.93358 122.375 4.09495 84.029 3.90292C73.6392 3.93755 63.2504 4.22868 52.8698 4.74765C38.9613 5.46939 25.0487 6.24408 11.198 7.69491C7.77144 8.07178 4.28266 8.49525 0.91183 9.14218C0.721098 9.17953 0.520929 9.14633 0.354212 9.04355C0.187514 8.94074 0.0676448 8.77791 0.0212046 8.58944C-0.0251879 8.40097 0.00530878 8.20126 0.105189 8.0328C0.205062 7.86438 0.366269 7.74166 0.552455 7.68612C3.93735 6.69308 7.41942 5.96787 10.8474 5.32089C24.6967 2.79285 38.6725 1.47901 52.6696 0.75253C63.1155 0.230318 73.5682 -0.0287391 84.029 0.00253013Z" fill="#FFCD03"/>
</svg>
