<svg width="98" height="96" viewBox="0 0 98 96" fill="none" xmlns="http://www.w3.org/2000/svg">
<path d="M46.3046 0.06411C46.6126 0.0275456 47.0387 0.0204607 47.358 0.0134961C60.4203 -0.292768 73.0647 4.62416 82.4886 13.6742C88.7454 19.6938 93.2514 27.2985 95.5257 35.6776C97.094 41.3029 97.5671 47.4054 96.9253 53.2125C95.692 63.881 90.9243 73.8297 83.3808 81.4746C75.3096 89.7992 63.7597 95.0136 52.2464 95.904C51.7535 95.9425 51.2456 95.9461 50.7502 95.9533C38.4075 96.493 26.3177 92.3413 16.9111 84.3319C7.60427 76.4432 1.18436 64.5601 0.187513 52.3648C-0.945444 39.6113 3.08895 26.9367 11.3857 17.1845C18.3091 9.05668 27.7076 3.42419 38.1397 1.1509C40.0217 0.745445 41.9725 0.479887 43.8833 0.234443C44.6494 0.136038 45.5207 0.125831 46.3046 0.06411Z" fill="black"/>
<path d="M2.34767 46.421C2.32341 45.647 2.46973 44.2119 2.55571 43.4368C2.94627 39.7438 3.78971 36.1129 5.06713 32.6259C9.32469 21.0794 18.0088 11.706 29.1972 6.58072C32.0334 5.25594 35.4488 4.17089 38.5072 3.50967C47.1497 1.58413 56.1629 2.17438 64.4809 5.21055C64.9318 5.36347 65.3803 5.52534 65.8252 5.69603C77.3445 10.2253 86.5426 19.2207 91.3272 30.6364C95.9413 41.4725 96.0644 53.6973 91.6689 64.624C87.6095 74.7623 80.0805 83.1295 70.4249 88.2323C58.4745 94.6308 43.902 95.4606 31.3395 90.3433C19.6473 85.6866 10.3542 76.4717 5.59926 64.8191C3.69479 60.2765 2.57084 54.9035 2.34539 50.0084C2.30324 49.0934 2.20363 47.3114 2.34767 46.421Z" fill="#FBD147"/>
<path d="M65.8252 5.6958C77.3445 10.2251 86.5426 19.2205 91.3272 30.6362C95.9413 41.4723 96.0644 53.697 91.6689 64.6237C87.6095 74.7621 80.0805 83.1293 70.4249 88.2321C58.4745 94.6306 43.902 95.4603 31.3395 90.3431C19.6473 85.6864 10.3542 76.4714 5.59926 64.8189C3.69479 60.2762 2.57084 54.9032 2.34539 50.0082C2.30324 49.0932 2.20363 47.3112 2.34767 46.4208C2.39426 46.7786 2.34419 47.032 2.4211 47.5177L2.3909 46.9041C2.63598 48.8554 2.79641 51.2534 3.22017 53.1308C3.72637 55.3745 4.60722 58.4984 5.48381 60.6154C9.9308 71.562 18.5778 80.2702 29.4924 84.7948C38.1526 88.4512 47.7705 89.1777 56.8816 86.8632C72.5053 82.8075 84.8921 70.5665 88.6909 54.8156C90.8733 45.8877 90.1546 36.4966 86.6381 28.005C83.1228 19.6324 77.1367 12.6013 69.3255 7.88462C68.24 7.22928 67.0152 6.50322 65.8456 6.02494L65.8252 5.6958Z" fill="#F5B231"/>
<path d="M64.4814 5.21045C64.9323 5.36337 65.3808 5.52524 65.8257 5.69593L65.8462 6.02507C65.2674 5.8198 64.8315 5.72217 64.4814 5.21045Z" fill="#F5B231"/>
<path d="M30.1936 37.5107C36.5043 36.7999 37.7613 48.4576 31.3413 49.7682C30.3915 49.8841 29.4308 49.6698 28.62 49.1618C25.5973 47.252 25.1814 42.5705 27.0188 39.7134C27.7423 38.5864 28.8847 37.7938 30.1936 37.5107Z" fill="black"/>
<path d="M65.8541 37.5154C66.9511 37.4056 67.653 37.5858 68.5878 38.1552C72.6279 40.6147 71.9969 48.7623 67.0754 49.7391C60.6613 50.6061 59.3884 38.8487 65.8541 37.5154Z" fill="black"/>
<path d="M47.1265 61.4158C47.4098 61.3935 47.7335 61.3899 48.0199 61.3833C53.0542 61.232 58.0375 62.4322 62.4511 64.8585C62.914 65.1142 64.1916 65.7969 64.5375 66.1457C64.7746 66.3799 64.9049 66.7011 64.8977 67.0343C64.8773 68.0148 63.9197 68.3816 63.1319 67.9403C61.6267 67.0973 60.217 66.2178 58.5947 65.5903C55.9169 64.5294 53.0878 63.8984 50.2131 63.7201C45.8136 63.3677 40.9554 64.4238 36.988 66.2964C35.9892 66.7677 32.4366 69.5494 32.2898 67.0643C32.268 66.7395 32.3811 66.4201 32.6025 66.1811C32.9363 65.8173 34.1732 65.1617 34.6502 64.8927C38.5507 62.691 42.6696 61.6583 47.1265 61.4158Z" fill="black"/>
<path d="M48.3917 68.8624C48.4085 68.8612 48.4253 68.86 48.4427 68.8588C49.9989 68.7987 54.8736 69.3727 56.0444 70.4895C56.2743 70.7086 56.4526 71.0172 56.4442 71.3426C56.4358 71.6446 56.2809 71.8782 56.0648 72.0775C55.8264 72.2961 55.5586 72.4318 55.229 72.4137C54.4965 72.3747 53.6902 71.9388 52.9727 71.7503C51.6296 71.3979 50.2739 71.2448 48.8906 71.1943C47.2917 71.1535 45.6902 71.3943 44.1433 71.7653C43.4099 71.9184 41.7116 72.8694 41.0855 72.1051C38.9244 69.4664 47.1776 68.908 48.3917 68.8624Z" fill="#F5B231"/>
</svg>
