<svg width="618" height="505" viewBox="0 0 618 505" fill="none" xmlns="http://www.w3.org/2000/svg">
<path d="M83.0341 340.347C88.4651 344.465 96.1268 342.587 99.0739 336.43C93.6428 332.312 85.9812 334.19 83.0341 340.347Z" fill="#97C124"/>
<path d="M112.716 362.619C116.445 368.435 114.9 376.222 109.279 380.001C103.641 383.777 96.0595 382.115 92.3138 376.297C88.5847 370.481 88.9856 363.875 96.9552 360.783C103.129 354.736 108.987 356.803 112.716 362.619Z" fill="#E7194A"/>
<path d="M124.878 337.923C131.717 339.414 136.127 346.299 134.745 353.291C133.36 360.3 126.702 364.766 119.863 363.274C113.024 361.783 108.626 356.618 112.195 348.377C112.359 339.307 118.055 336.435 124.878 337.923Z" fill="#E7194A"/>
<path d="M98.6741 365.475C97.4022 366.324 95.8073 366.685 94.2071 366.324C93.8082 366.251 93.5561 365.844 93.6321 365.429C93.705 365.03 94.0983 364.759 94.4942 364.848C96.9225 365.378 99.2924 363.786 99.7815 361.3C99.8575 360.884 100.248 360.63 100.644 360.719C101.042 360.792 101.295 361.199 101.219 361.614C100.901 363.256 99.9491 364.61 98.6772 365.459" fill="#262626"/>
<path d="M98.0621 363.373C97.8488 363.506 97.5949 363.579 97.3319 363.514C86.9734 361.259 80.2502 350.775 82.3612 340.173C82.4615 339.625 82.9863 339.291 83.5152 339.405C84.0441 339.519 84.3942 340.047 84.2773 340.592C82.397 350.12 88.423 359.532 97.7238 361.56C98.2526 361.674 98.6028 362.201 98.4859 362.747C98.4373 363.012 98.2753 363.24 98.0621 363.373Z" fill="#262626"/>
<path d="M113.956 354.433C113.621 354.664 113.159 354.562 112.948 354.214C112.72 353.863 112.822 353.401 113.139 353.168C115.195 351.792 115.77 348.927 114.406 346.806C114.178 346.456 114.28 345.993 114.597 345.76C114.932 345.529 115.394 345.631 115.622 345.981C117.442 348.804 116.679 352.596 113.939 354.43" fill="#262626"/>
<path d="M114.259 351.089C104.527 357.618 90.2514 353.015 82.4326 340.82C82.1398 340.355 82.2522 339.74 82.7044 339.428C83.1536 339.132 83.7656 339.261 84.0584 339.727C91.2751 350.988 104.329 355.316 113.16 349.394C113.609 349.098 114.221 349.227 114.514 349.693C114.807 350.159 114.695 350.773 114.242 351.085" fill="#262626"/>
<path d="M558.117 126.469C562.786 121.187 556.475 113.587 553.567 111.556C551.619 110.19 542.764 102.706 538.095 108C533.426 113.282 530.975 122.675 537.202 128.812C543.932 135.447 553.449 131.763 558.117 126.481L558.117 126.469Z" fill="#975B2E"/>
<path d="M538.366 107.734C542 104.005 549.318 105.23 554.711 110.472C560.104 115.713 561.53 122.986 557.896 126.715C554.262 130.445 546.944 129.219 541.551 123.978C536.158 118.736 534.732 111.464 538.366 107.734Z" fill="#7EB73C"/>
<path d="M544.836 113.171C545.936 112.01 548.581 112.726 550.742 114.77C552.903 116.815 553.763 119.413 552.662 120.573C551.562 121.734 548.917 121.018 546.756 118.974C544.595 116.93 543.735 114.332 544.836 113.171Z" fill="#B9D988"/>
<path d="M544.589 122.368C544.333 122.661 544.392 123.148 544.723 123.449C545.053 123.75 545.532 123.761 545.788 123.468C546.044 123.175 546.369 122.261 546.039 121.96C545.708 121.659 544.857 122.075 544.589 122.368Z" fill="black"/>
<path d="M540.97 118.043C540.551 118.031 540.261 118.372 540.307 118.799C540.353 119.227 540.732 119.574 541.151 119.575C541.57 119.587 542.47 119.254 542.424 118.838C542.378 118.411 541.389 118.056 540.97 118.043Z" fill="black"/>
<path d="M554.511 123.39C554.841 123.691 555.32 123.702 555.576 123.409C555.832 123.117 555.772 122.63 555.442 122.329C555.112 122.028 554.156 121.577 553.9 121.869C553.644 122.162 554.181 123.089 554.511 123.402L554.511 123.39Z" fill="black"/>
<path d="M550.596 126.727C550.642 127.155 551.022 127.502 551.44 127.503C551.86 127.516 552.151 127.175 552.104 126.747C552.058 126.319 551.604 125.354 551.185 125.353C550.765 125.34 550.537 126.3 550.595 126.715L550.596 126.727Z" fill="black"/>
<path d="M552.298 112.773C552.554 112.48 552.494 111.993 552.164 111.692C551.833 111.391 551.355 111.38 551.099 111.673C550.842 111.966 550.518 112.88 550.848 113.181C551.178 113.481 552.03 113.066 552.298 112.773Z" fill="black"/>
<path d="M555.144 118.203C555.563 118.216 555.854 117.875 555.807 117.448C555.761 117.02 555.382 116.673 554.963 116.672C554.545 116.66 553.644 116.993 553.69 117.409C553.736 117.836 554.725 118.191 555.144 118.203Z" fill="black"/>
<path d="M541.254 113.176C540.924 112.875 540.445 112.864 540.189 113.157C539.933 113.45 539.992 113.936 540.323 114.237C540.653 114.538 541.609 114.989 541.865 114.697C542.121 114.404 541.584 113.477 541.254 113.164L541.254 113.176Z" fill="black"/>
<path d="M545.136 109.984C545.09 109.556 544.711 109.209 544.292 109.208C543.872 109.195 543.581 109.537 543.628 109.965C543.674 110.393 544.128 111.358 544.547 111.359C544.967 111.371 545.195 110.412 545.137 109.996L545.136 109.984Z" fill="black"/>
<path d="M63.5247 163.121C65.6177 163.058 66.951 164.262 66.932 166.196C66.9063 169.476 62.7322 173.545 59.2332 173.676C56.8461 173.773 55.0808 171.605 55.6365 169.268C56.2868 166.43 60.4343 163.213 63.5246 163.106L63.5247 163.121ZM63.8494 165.081C61.2306 164.789 57.8833 167.85 57.9162 170.168C57.9206 170.786 58.7107 171.496 59.3319 171.459C61.7023 171.318 64.5773 168.532 64.561 166.245C64.5577 165.781 64.095 165.113 63.8494 165.081Z" fill="white"/>
<path d="M69.3698 186.502C68.9939 188.846 66.6364 190.906 64.2646 190.955C62.5471 190.996 61.6392 189.843 62.102 188.221C62.7404 185.969 64.1856 184.459 66.6196 183.957C68.5309 183.564 69.6675 184.657 69.3697 186.486L69.3698 186.502ZM66.8654 186.311C65.9288 185.732 65.2286 186.192 64.5782 186.742C63.9602 187.258 64.0612 187.655 64.9835 188.528C65.9946 188.081 66.8083 187.475 66.8654 186.311Z" fill="white"/>
<path d="M77.8521 179.55C78.2134 177.438 80.3284 175.747 82.554 175.8C83.6832 175.825 84.5404 176.734 84.45 177.824C84.2524 179.942 82.0257 182.026 79.7853 182.191C78.4606 182.286 77.585 181.099 77.8521 179.55ZM81.8982 177.914C80.7836 177.625 80.1493 178.174 79.5977 178.826C79.4842 178.972 79.4537 179.284 79.5529 179.433C79.6523 179.597 79.9647 179.811 80.1279 179.755C81.0748 179.466 81.8898 179.03 81.9145 177.898L81.8982 177.914Z" fill="white"/>
<path d="M528.065 346.444C528.693 352.18 533.208 357.456 537.701 360.175C543.75 363.836 553.079 364.485 554.901 361.035C555.669 359.583 555.761 358.286 554.307 357.021C552.511 355.46 548.926 356.99 549.003 360.837C549.115 366.395 555.185 371.958 561.589 373.169" stroke="white" stroke-width="3" stroke-linecap="round"/>
</svg>
