<svg width="107" height="102" viewBox="0 0 107 102" fill="none" xmlns="http://www.w3.org/2000/svg">
<path d="M30.5197 63.7621C28.0397 64.3131 26.8422 60.7971 29.1109 59.6858C51.3992 49.0437 74.0678 39.4101 98.2644 33.9997C103.056 32.9611 105.646 33.2965 105.66 35.1151C105.638 38.451 102.579 38.7401 100.398 39.6585C94.7499 42.0756 89.0671 44.57 83.2503 46.5389C67.3512 51.8928 51.3501 57.0611 35.328 62.1734C33.7941 62.6877 32.285 63.3526 30.4811 63.7447L30.5197 63.7621Z" fill="white"/>
<path d="M14.2598 45.6695C12.5596 47.2703 9.8548 45.4424 10.6044 43.2721C11.1308 41.6978 11.9767 40.547 12.8227 39.3962C17.6083 32.8248 22.4536 26.3268 27.3972 19.9198C28.5509 18.397 30.2097 17.1957 31.7776 16.0927C32.3131 15.7308 33.4695 15.7429 34.0692 16.0607C34.6515 16.4171 35.2806 17.4917 35.1134 18.0667C34.4869 20.4786 34.0183 23.0549 32.7324 25.0754C30.8245 28.1623 28.4887 30.9626 26.0546 33.672C22.2739 37.8169 18.3142 41.7414 14.3158 45.6484L14.2598 45.6695Z" fill="white"/>
<path d="M43.713 86.3681C42.5172 85.827 42.4686 84.0856 43.5782 83.3793C43.9107 83.158 44.2083 83.0138 44.5481 82.9817C55.2925 81.5228 66.0764 80.5929 76.9402 81.2327C77.9845 81.287 79.0471 81.8142 80.0675 82.2295C80.9161 82.6134 81.0106 84.5615 80.1776 85.0676C79.474 85.4928 78.7741 86.0126 78.0035 86.1751C66.7245 88.5075 55.3923 88.4922 44.0391 86.4691C43.9234 86.4167 43.8077 86.3644 43.6919 86.312L43.713 86.3681Z" fill="white"/>
</svg>
