<svg width="548" height="399" viewBox="0 0 548 399" fill="none" xmlns="http://www.w3.org/2000/svg">
<path d="M32.345 78.6654C10.3938 124.719 8.46751 241.961 36.2743 323.355C42.4749 341.505 62.3672 353.996 85.8912 350.683C276.527 323.848 386.023 382.055 487.929 344.695C504.311 338.704 517.041 324.596 520.265 307.353C533.956 234.137 530.963 143.503 520.635 92.7639C517.072 75.1785 504.425 63.5734 487.774 57.7239C406.478 29.2959 140.112 35.6398 69.7419 47.6796C52.9241 52.5126 39.9689 62.6557 32.3054 78.6696L32.345 78.6654Z" fill="#5C0F8B"/>
<path opacity="0.05" d="M20.786 238.817C20.786 238.817 44.2421 177.062 109.252 174.125C142.837 172.608 157.091 195.226 190.054 190.473C224.98 185.437 221.285 157.98 254.728 150.122C315.721 135.79 329.399 188.731 391.231 202.229C451.348 215.352 493.338 191.23 512.422 163.247C526.731 142.265 495.48 130.209 477.027 146.61C460.024 161.723 478.859 203.094 526.735 228.895" stroke="white" stroke-width="4" stroke-linecap="round"/>
</svg>
