<svg width="880" height="625" viewBox="0 0 880 625" fill="none" xmlns="http://www.w3.org/2000/svg">
<g clip-path="url(#clip0_750_2832)">
<rect width="880" height="625" fill="#8EC046"/>
<path opacity="0.2" d="M878.857 -130C878.857 -130 813.352 -108.013 814.009 -54.5904C814.348 -26.9915 839.688 -16.3167 836.485 10.9167C833.092 39.7723 803.134 37.9702 796.597 65.7358C784.674 116.374 842.824 125.222 861.094 175.305C878.857 224 855.208 259.499 826.025 276.393C804.143 289.06 789.24 263.981 805.916 248.122C829.356 225.829 923.901 269.171 927.308 365" stroke="white" stroke-width="4" stroke-linecap="round"/>
<path opacity="0.2" d="M896.109 396.195C874.706 397.222 855.536 408.213 852.696 426.251C848.862 450.602 873.747 458.623 884.503 453.226C892.187 449.372 891.14 439.389 880.691 438.037C862.778 435.719 783.863 453.146 775.611 535.356C770.66 584.682 811.775 602.571 820.124 591.94C822.402 589.041 819.509 583.482 814.358 586.672C804.572 592.733 809.564 613.41 817.261 621.841C831.086 636.986 851.02 638.895 861.121 636.852" stroke="white" stroke-width="4" stroke-linecap="round"/>
<path opacity="0.2" d="M63.9307 -137C63.9307 -137 107.602 -35.1707 104.168 18.9423C98.0912 114.683 -2.4712 108.167 -13.2514 147.966C-16.72 160.771 -24.8762 195.341 3.43886 203.01C12.1259 205.363 19.4053 205.263 28.9973 198.536C33.0101 195.722 35.6937 191.026 33.6359 186.842C31.5782 182.659 24.101 182.188 21.9191 188.331C18.2376 198.697 46.3211 199.602 58.4178 187.856" stroke="white" stroke-width="4" stroke-linecap="round"/>
<path opacity="0.2" d="M46.7754 920.723C54.1075 860.859 121.466 863.792 134.213 804.99C146.647 747.634 74.6639 724 78.371 665.221C80.6704 628.761 100.28 624.613 96.5668 588.216C90.8943 532.618 24.4713 534.686 10.8399 480.487C-2.79141 426.288 55.5005 379.729 74.351 377.622C93.2016 375.514 97.3219 395.369 76.5943 397.687C55.8667 400.004 -3.43834 352.774 -6.88145 321.977" stroke="white" stroke-width="4" stroke-linecap="round"/>
<path d="M137.88 110.688C137.562 108.075 137.378 105.998 136.993 103.937C136.926 103.552 136.071 103.184 135.535 103.083C135.301 103.05 134.732 103.686 134.681 104.071C134.531 105.361 134.564 106.668 134.497 107.957C134.447 108.895 134.313 109.833 134.212 110.956C132.588 111.391 131.08 111.776 128.986 112.329C129.891 112.999 130.276 113.451 130.779 113.619C131.834 113.987 132.923 114.222 134.045 114.523C134.799 116.5 134.497 118.476 134.782 120.369C135.05 122.195 134.799 124.205 136.172 125.913C137.177 123.97 137.16 123.97 137.261 120.419C137.311 118.66 137.445 116.902 137.545 114.959C139.539 114.741 141.297 114.624 142.989 114.289C143.425 114.205 143.86 113.434 143.994 112.915C144.061 112.664 143.542 111.994 143.19 111.894C141.482 111.425 139.74 111.09 137.88 110.671V110.688Z" fill="white"/>
<path d="M116.441 93.033C115.068 93.1 113.862 94.3228 114.013 95.512C114.197 97.0362 115.52 98.2255 116.961 98.1752C118.217 98.125 119.389 96.8687 119.373 95.6125C119.339 94.1385 117.999 92.9493 116.441 93.033Z" fill="white"/>
<path d="M666.363 38.8084C666.798 42.3795 667.05 45.2181 667.576 48.0337C667.668 48.5602 668.835 49.0638 669.568 49.2012C669.888 49.247 670.667 48.3771 670.735 47.8506C670.941 46.0879 670.896 44.3024 670.987 42.5398C671.056 41.2578 671.239 39.9759 671.376 38.4422C673.597 37.847 675.657 37.3205 678.519 36.5651C677.282 35.6494 676.756 35.0313 676.069 34.8024C674.627 34.2988 673.139 33.9783 671.605 33.5663C670.575 30.8651 670.987 28.1639 670.598 25.5771C670.232 23.0819 670.575 20.3349 668.698 18C667.325 20.6554 667.347 20.6554 667.21 25.5084C667.141 27.912 666.958 30.3157 666.821 32.9711C664.097 33.2687 661.693 33.4289 659.381 33.8867C658.786 34.0012 658.191 35.0542 658.008 35.7639C657.916 36.1072 658.626 37.0229 659.107 37.1602C661.441 37.8012 663.822 38.259 666.363 38.8313V38.8084Z" fill="white"/>
<path d="M695.663 62.9361C697.54 62.8445 699.189 61.1734 698.983 59.5481C698.731 57.465 696.922 55.8397 694.954 55.9083C693.237 55.977 691.634 57.6939 691.657 59.4108C691.703 61.4252 693.534 63.0505 695.663 62.9361Z" fill="white"/>
<path d="M831.603 116.389C830.55 113.386 828.849 111.509 827.398 109.489C825.96 107.507 824.093 105.827 822.763 103.865C823.398 102.924 823.985 103.328 824.373 103.583C828.402 106.225 831.67 109.673 834.448 113.561C834.932 114.228 835.282 115.023 835.556 115.822C836.231 117.763 835.477 119.492 833.489 120.216C832.204 120.686 830.764 120.753 829.428 121.083C828.544 121.304 827.707 121.684 826.806 121.996C826.98 123.793 828.111 124.743 828.81 125.899C829.813 127.579 831.003 129.159 831.844 130.904C833.163 133.672 832.492 135.791 829.725 137.205C828.261 137.945 826.584 138.403 824.951 138.606C823.165 138.819 821.311 138.57 819.5 138.497C819.22 138.486 818.935 138.398 818.692 138.281C818.053 137.962 817.42 137.494 817.594 136.716C817.695 136.245 818.139 135.646 818.56 135.495C820.281 134.894 822.047 134.47 823.793 133.949C824.842 133.644 825.865 133.278 827.119 132.877C826.776 132.046 826.632 131.363 826.277 130.813C825.526 129.628 824.646 128.535 823.852 127.381C823.299 126.57 822.724 125.774 822.296 124.89C820.405 120.876 821.902 118.018 826.255 117.201C827.072 117.043 827.921 117.023 828.75 116.905C829.561 116.784 830.356 116.641 831.615 116.429L831.603 116.389Z" fill="white"/>
<path d="M68.9403 593.915C68.4601 597.53 65.8765 599.587 62.341 599.172C56.3436 598.479 50.0827 590.49 50.8378 584.442C51.3413 580.314 55.8126 577.705 59.9334 579.123C64.9437 580.804 69.6521 588.578 68.9687 593.918L68.9403 593.915ZM65.2625 594.058C66.5427 589.609 61.8922 583.242 57.6398 582.841C56.5066 582.726 54.9807 583.945 54.8718 585.022C54.4562 589.13 58.7366 594.629 62.9295 595.053C63.7794 595.139 65.1345 594.475 65.2625 594.058Z" fill="white"/>
<path d="M26.3058 599.19C22.1251 598.08 19.0278 593.616 19.6134 589.526C20.0277 586.562 22.3952 585.228 25.23 586.345C29.1666 587.888 31.5179 590.673 31.7424 594.96C31.9169 598.326 29.5943 600.066 26.3341 599.193L26.3058 599.19ZM27.3706 594.89C28.6955 593.393 28.0538 592.097 27.2336 590.869C26.4643 589.704 25.7105 589.799 23.8502 591.214C24.3807 593.042 25.2573 594.562 27.3706 594.89Z" fill="white"/>
<path d="M37.0541 615.73C40.8127 616.769 43.3014 620.741 42.5715 624.56C42.2038 626.497 40.2982 627.793 38.3323 627.422C34.5167 626.664 31.3398 622.422 31.6759 618.535C31.8798 616.237 34.2981 614.965 37.0541 615.73ZM38.8928 623.014C39.7394 621.154 38.9163 619.954 37.8805 618.876C37.6456 618.652 37.0848 618.538 36.7843 618.679C36.4555 618.818 35.976 619.313 36.0323 619.605C36.291 621.291 36.856 622.779 38.9183 623.045L38.8928 623.014Z" fill="white"/>
</g>
<defs>
<clipPath id="clip0_750_2832">
<rect width="880" height="625" fill="white"/>
</clipPath>
</defs>
</svg>
