<svg width="292" height="353" viewBox="0 0 292 353" fill="none" xmlns="http://www.w3.org/2000/svg">
<path d="M12.3862 156.122C14.2395 159.496 18.6232 160.291 21.5601 157.793C19.7068 154.42 15.3231 153.625 12.3862 156.122Z" fill="#97C124"/>
<path d="M22.5695 174.44C23.1544 178.298 20.5657 181.958 16.7966 182.614C13.0197 183.264 9.49206 180.662 8.89931 176.799C8.31442 172.941 10.0413 169.627 14.8633 169.866C19.4392 168.168 21.9846 170.582 22.5695 174.44Z" fill="#E7194A"/>
<path d="M34.5253 164.502C37.7094 166.845 38.3994 171.41 36.0773 174.699C33.7498 177.995 29.2885 178.766 26.1044 176.423C22.9203 174.079 21.8409 170.403 25.578 166.974C27.7501 162.335 31.349 162.164 34.5253 164.502Z" fill="#E7194A"/>
<path d="M14.6698 172.682C13.8184 172.827 12.9128 172.646 12.1707 172.091C11.9817 171.962 11.9453 171.694 12.0801 171.497C12.2095 171.308 12.4747 171.259 12.6583 171.396C13.7888 172.228 15.3775 171.952 16.2019 170.783C16.3366 170.586 16.5965 170.544 16.7801 170.682C16.9691 170.811 17.0055 171.079 16.8707 171.276C16.3291 172.049 15.5266 172.528 14.6752 172.674" fill="#262626"/>
<path d="M14.8378 171.456C14.6973 171.475 14.5494 171.455 14.4288 171.361C9.60535 167.814 8.55058 160.859 12.0793 155.877C12.2572 155.617 12.6046 155.566 12.8511 155.747C13.0977 155.927 13.1568 156.28 12.9711 156.534C9.80847 161.016 10.7503 167.257 15.0806 170.443C15.3272 170.623 15.3863 170.976 15.2006 171.23C15.1143 171.356 14.9784 171.437 14.8378 171.456Z" fill="#262626"/>
<path d="M25.0924 170.503C24.867 170.545 24.6519 170.386 24.6229 170.159C24.5861 169.925 24.7449 169.71 24.9626 169.663C26.3391 169.426 27.2953 168.081 27.0798 166.673C27.043 166.44 27.2018 166.225 27.4194 166.178C27.6449 166.136 27.86 166.295 27.8968 166.528C28.1859 168.402 26.92 170.183 25.0846 170.498" fill="#262626"/>
<path d="M26.0186 168.848C19.4965 169.976 13.1932 164.317 11.9672 156.228C11.9233 155.92 12.1228 155.629 12.4278 155.572C12.7275 155.523 13.0135 155.73 13.0573 156.038C14.1878 163.507 19.9246 168.743 25.842 167.721C26.1417 167.672 26.4276 167.88 26.4714 168.187C26.5153 168.495 26.3158 168.786 26.0108 168.843" fill="#262626"/>
<path d="M190.643 41.6392C194.946 36.7705 189.13 29.7659 186.449 27.8936C184.654 26.6346 176.491 19.7363 172.188 24.616C167.885 29.4847 165.626 38.1422 171.365 43.7983C177.568 49.9142 186.34 46.5189 190.643 41.6502L190.643 41.6392Z" fill="#975B2E"/>
<path d="M172.438 24.3706C175.787 20.933 182.532 22.0629 187.503 26.8941C192.474 31.7254 193.788 38.4286 190.439 41.8661C187.089 45.3037 180.344 44.1738 175.373 39.3426C170.402 34.5113 169.088 27.8081 172.438 24.3706Z" fill="#7EB73C"/>
<path d="M178.401 29.3824C179.416 28.3124 181.853 28.9724 183.845 30.8565C185.837 32.7406 186.629 35.1353 185.615 36.2053C184.6 37.2752 182.163 36.6152 180.171 34.7311C178.179 32.847 177.386 30.4523 178.401 29.3824Z" fill="#B9D988"/>
<path d="M178.174 37.8592C177.938 38.129 177.993 38.5778 178.298 38.8552C178.602 39.1326 179.043 39.1428 179.279 38.873C179.515 38.6032 179.815 37.7607 179.51 37.4833C179.206 37.2059 178.421 37.5891 178.174 37.8592Z" fill="black"/>
<path d="M174.838 33.873C174.452 33.8613 174.184 34.1757 174.227 34.5696C174.269 34.9636 174.619 35.2836 175.005 35.2843C175.391 35.296 176.221 34.9886 176.179 34.6056C176.136 34.2116 175.224 33.8847 174.838 33.873Z" fill="black"/>
<path d="M187.319 38.8013C187.623 39.0787 188.064 39.0889 188.3 38.8191C188.536 38.5493 188.481 38.1006 188.177 37.8232C187.873 37.5458 186.991 37.13 186.755 37.3998C186.519 37.6696 187.014 38.5239 187.319 38.8123L187.319 38.8013Z" fill="black"/>
<path d="M183.71 41.877C183.752 42.2713 184.102 42.5916 184.488 42.5923C184.875 42.604 185.143 42.2893 185.1 41.895C185.058 41.5007 184.639 40.611 184.253 40.6103C183.866 40.5986 183.656 41.4829 183.709 41.866L183.71 41.877Z" fill="black"/>
<path d="M185.279 29.0152C185.515 28.7454 185.46 28.2966 185.156 28.0192C184.851 27.7418 184.41 27.7316 184.174 28.0014C183.938 28.2712 183.638 29.1137 183.943 29.3911C184.247 29.6685 185.032 29.2853 185.279 29.0152Z" fill="black"/>
<path d="M187.903 34.021C188.289 34.0327 188.557 33.7183 188.514 33.3243C188.471 32.9304 188.122 32.6104 187.736 32.6096C187.35 32.5979 186.52 32.9053 186.562 33.2883C186.605 33.6823 187.517 34.0093 187.903 34.021Z" fill="black"/>
<path d="M175.099 29.387C174.795 29.1096 174.354 29.0994 174.117 29.3691C173.881 29.6389 173.936 30.0877 174.241 30.3651C174.545 30.6425 175.427 31.0583 175.663 30.7885C175.899 30.5187 175.404 29.6644 175.099 29.376L175.099 29.387Z" fill="black"/>
<path d="M178.678 26.4451C178.636 26.0507 178.286 25.7304 177.9 25.7297C177.513 25.718 177.245 26.0327 177.288 26.427C177.331 26.8214 177.749 27.711 178.136 27.7117C178.522 27.7234 178.732 26.8391 178.679 26.456L178.678 26.4451Z" fill="black"/>
<path d="M258.253 234.32C258.815 239.451 262.855 244.17 266.874 246.603C272.284 249.878 280.629 250.458 282.259 247.372C282.946 246.073 283.029 244.913 281.728 243.782C280.121 242.385 276.914 243.753 276.983 247.195C277.083 252.167 282.513 257.143 288.241 258.226" stroke="white" stroke-width="2.68356" stroke-linecap="round"/>
<path d="M21.297 248.692C21.4622 246.079 20.7746 244.111 20.3233 242.115C19.8682 240.152 18.9919 238.28 18.6136 236.367C19.3964 235.857 19.712 236.351 19.9237 236.669C22.1304 239.963 23.5016 243.624 24.3597 247.461C24.5129 248.122 24.5232 248.836 24.4741 249.53C24.3632 251.217 23.2377 252.286 21.4996 252.197C20.3748 252.141 19.2618 251.73 18.1436 251.552C17.4025 251.436 16.6464 251.455 15.8639 251.403C15.4195 252.821 15.9717 253.903 16.1312 255.004C16.3528 256.598 16.7475 258.177 16.8253 259.769C16.9377 262.29 15.7492 263.68 13.1996 263.865C11.8529 263.956 10.4346 263.765 9.13198 263.395C7.71048 262.985 6.38503 262.201 5.03635 261.566C4.82788 261.467 4.63968 261.309 4.4936 261.142C4.11109 260.696 3.78191 260.139 4.16297 259.605C4.39071 259.28 4.91863 258.969 5.28655 258.989C6.78381 259.085 8.25787 259.33 9.74767 259.495C10.6408 259.6 11.5331 259.651 12.6121 259.749C12.6183 259.01 12.7285 258.446 12.6364 257.915C12.4467 256.777 12.1307 255.666 11.8989 254.537C11.7396 253.745 11.5592 252.957 11.518 252.15C11.3725 248.502 13.423 246.816 16.9837 247.593C17.6534 247.735 18.3036 247.992 18.9696 248.168C19.6227 248.336 20.2714 248.483 21.2933 248.726L21.297 248.692Z" fill="white"/>
<path d="M23.6561 0.219248C25.749 0.15604 27.0823 1.35987 27.0634 3.29398C27.0377 6.57384 22.8635 10.6428 19.3646 10.7746C16.9775 10.8708 15.2121 8.70315 15.7679 6.36583C16.4182 3.52802 20.5657 0.311138 23.6559 0.203799L23.6561 0.219248ZM23.9808 2.17921C21.3619 1.88725 18.0147 4.94808 18.0476 7.26568C18.052 7.88397 18.8421 8.59449 19.4633 8.55737C21.8337 8.41572 24.7086 5.63055 24.6923 3.34288C24.689 2.87916 24.2263 2.21093 23.9808 2.17921Z" fill="white"/>
<path d="M29.5009 23.5992C29.125 25.9436 26.7675 28.004 24.3957 28.0529C22.6782 28.0937 21.7703 26.9406 22.2331 25.3185C22.8715 23.0669 24.3167 21.5564 26.7508 21.0548C28.662 20.6619 29.7986 21.7549 29.5008 23.5838L29.5009 23.5992ZM26.9965 23.4084C26.0599 22.8298 25.3597 23.2896 24.7093 23.8393C24.0913 24.3561 24.1923 24.7525 25.1146 25.6261C26.1257 25.1787 26.9394 24.5728 26.9965 23.4084Z" fill="white"/>
<path d="M37.9835 16.6482C38.3448 14.536 40.4598 12.8454 42.6854 12.8981C43.8145 12.9235 44.6718 13.8324 44.5814 14.9218C44.3837 17.0397 42.157 19.124 39.9166 19.289C38.592 19.3837 37.7163 18.1972 37.9835 16.6482ZM42.0296 15.0125C40.9149 14.7229 40.2807 15.2719 39.729 15.9243C39.6155 16.0705 39.585 16.382 39.6843 16.5309C39.7836 16.6954 40.096 16.909 40.2592 16.8527C41.2062 16.5638 42.0211 16.1279 42.0458 14.996L42.0296 15.0125Z" fill="white"/>
<path d="M220.808 30.1889C220.522 32.5351 220.356 34.4001 220.01 36.25C219.95 36.5959 219.183 36.9268 218.702 37.0171C218.491 37.0471 217.98 36.4756 217.935 36.1297C217.8 34.9716 217.83 33.7985 217.769 32.6404C217.724 31.7982 217.604 30.9559 217.514 29.9483C216.055 29.5572 214.701 29.2113 212.821 28.715C213.633 28.1134 213.979 27.7073 214.431 27.5569C215.378 27.226 216.356 27.0155 217.363 26.7448C218.04 24.97 217.769 23.1953 218.025 21.4958C218.266 19.8565 218.04 18.0517 219.273 16.5176C220.176 18.2622 220.161 18.2622 220.251 21.4507C220.296 23.0299 220.416 24.6091 220.507 26.3537C222.296 26.5492 223.876 26.6545 225.395 26.9553C225.786 27.0305 226.177 27.7224 226.297 28.1886C226.357 28.4142 225.891 29.0158 225.575 29.106C224.041 29.5271 222.477 29.828 220.808 30.204V30.1889Z" fill="white"/>
<path d="M207.194 47.5464C205.961 47.4862 204.878 46.3883 205.013 45.3205C205.179 43.9518 206.367 42.884 207.66 42.9291C208.788 42.9742 209.841 44.1022 209.826 45.2302C209.796 46.5537 208.593 47.6216 207.194 47.5464Z" fill="white"/>
<path d="M20.7296 116.555C18.9792 116.47 17.4423 114.911 17.6344 113.396C17.8692 111.453 19.5556 109.938 21.3913 110.002C22.9922 110.066 24.4864 111.667 24.4651 113.268C24.4224 115.146 22.7147 116.662 20.7296 116.555Z" fill="white"/>
<path d="M233.447 39.401C232.507 39.3551 231.682 38.5183 231.785 37.7045C231.911 36.6614 232.817 35.8475 233.803 35.8819C234.662 35.9163 235.465 36.776 235.453 37.6357C235.43 38.6444 234.513 39.4583 233.447 39.401Z" fill="white"/>
</svg>
