<svg width="17" height="17" viewBox="0 0 17 17" fill="none" xmlns="http://www.w3.org/2000/svg">
<path fill-rule="evenodd" clip-rule="evenodd" d="M13.8821 11.0929C13.7477 11.4061 13.4547 11.6176 13.1089 11.6378L9.60574 11.7869L6.92361 14.1091C6.65906 14.3328 6.301 14.3814 5.98777 14.2471C5.67454 14.1127 5.46308 13.8196 5.44288 13.4738L5.30592 9.94218L2.97156 7.28852C2.74789 7.02397 2.69921 6.66591 2.8336 6.35268C2.96798 6.03945 3.26101 5.828 3.60685 5.80779L7.13847 5.67083L9.79212 3.33648C10.0567 3.11281 10.4147 3.06412 10.728 3.19851C11.0412 3.3329 11.2526 3.62592 11.2729 3.97176L11.4383 7.5156L13.7442 10.157C13.9678 10.4216 14.0165 10.7797 13.8821 11.0929Z" fill="#FF9318"/>
</svg>
