<svg width="33" height="30" viewBox="0 0 33 30" fill="none" xmlns="http://www.w3.org/2000/svg">
<path d="M14.3219 14.4747C14.2401 15.6717 15.1441 16.7083 16.341 16.7901C17.5379 16.8719 18.5745 15.9679 18.6563 14.7709C18.7381 13.5739 17.8341 12.5372 16.6372 12.4554C15.4403 12.3736 14.4037 13.2777 14.3219 14.4747Z" fill="white"/>
<path d="M31.6596 15.6615C31.7414 14.4646 30.8376 13.4278 29.6405 13.346L25.306 13.0498C24.1092 12.968 23.0725 13.8722 22.9907 15.0691C22.9089 16.266 23.813 17.3027 25.0098 17.3845L29.3443 17.6807C30.5417 17.7626 31.5778 16.8584 31.6596 15.6615Z" fill="white"/>
<path d="M9.97677 14.1771C10.0586 12.9802 9.15476 11.9435 7.95791 11.8617L3.62318 11.5655C2.42633 11.4837 1.38963 12.3878 1.30784 13.5847C1.22604 14.7816 2.13011 15.8184 3.32696 15.9002L7.66169 16.1964C8.85881 16.2782 9.89497 15.374 9.97677 14.1771Z" fill="white"/>
<path d="M23.1268 8.62491L25.5505 5.01943C26.2198 4.02325 25.9552 2.67419 24.9597 2.00409C23.9642 1.33399 22.6146 1.59941 21.945 2.59557L19.5213 6.20105C18.852 7.19615 19.1166 8.54629 20.1122 9.21531C21.108 9.88516 22.4578 9.62003 23.1268 8.62491Z" fill="white"/>
<path d="M11.0202 26.6595L13.4439 23.054C14.1132 22.0578 13.8486 20.7087 12.853 20.0386C11.8571 19.3699 10.5074 19.6339 9.83809 20.6301L7.41435 24.2356C6.74505 25.2318 7.00967 26.5808 8.00546 27.251C9.00108 27.9197 10.3509 27.6556 11.0202 26.6595Z" fill="white"/>
<path d="M14.6154 5.86228L12.7047 1.96168C12.1771 0.883712 10.8759 0.437415 9.79846 0.965586C8.72077 1.49374 8.27507 2.79453 8.80263 3.8725L10.7134 7.7731C11.241 8.85107 12.5422 9.29737 13.6196 8.76919C14.6973 8.24104 15.1427 6.94023 14.6154 5.86228Z" fill="white"/>
<path d="M18.4396 23.4658L20.3504 27.3675C20.878 28.4443 22.1792 28.8906 23.2566 28.3636C24.334 27.8354 24.7797 26.5335 24.2521 25.4566L22.3414 21.5549C21.8138 20.477 20.5125 20.0318 19.4352 20.5588C18.3578 21.087 17.9118 22.3878 18.4396 23.4658Z" fill="white"/>
</svg>
