<svg width="22" height="23" viewBox="0 0 22 23" fill="none" xmlns="http://www.w3.org/2000/svg">
<path fill-rule="evenodd" clip-rule="evenodd" d="M0.158737 11.7703C0.158737 11.151 0.496489 10.5881 1.05941 10.3067L6.80118 7.54836L9.61578 1.75028C9.89724 1.18736 10.4602 0.849609 11.0794 0.849609C11.6986 0.849609 12.2615 1.18736 12.543 1.75028L15.3013 7.54836L21.0993 10.3067C21.6622 10.5881 22 11.151 22 11.7703C22 12.3895 21.6622 12.9524 21.0993 13.2338L15.3013 15.9922L12.543 21.7902C12.2615 22.3532 11.6986 22.6909 11.0794 22.6909C10.4602 22.6909 9.89724 22.3532 9.61578 21.7902L6.80118 15.9922L1.05941 13.2338C0.496489 12.9524 0.158737 12.3895 0.158737 11.7703Z" fill="#7DC2F3"/>
</svg>
