<svg width="38" height="38" viewBox="0 0 38 38" fill="none" xmlns="http://www.w3.org/2000/svg">
<path fill-rule="evenodd" clip-rule="evenodd" d="M35.518 19.154C35.9067 20.1802 35.3895 21.327 34.3636 21.7156L30.8528 23.045L32.7696 26.2728C33.3299 27.2162 33.0193 28.4353 32.0757 28.9956C31.8706 29.1174 31.6528 29.1979 31.4311 29.2399C30.6333 29.391 29.7914 29.0403 29.3529 28.3019L26.5971 23.6616L21.8247 21.9924L22.7654 26.9601L26.944 30.3756C27.794 31.0699 27.9198 32.3219 27.225 33.1713C26.9176 33.5477 26.5003 33.7823 26.0573 33.8662C25.5004 33.9716 24.9029 33.8391 24.4296 33.4523L21.5228 31.0769L19.6855 34.3507C19.1491 35.3076 17.9375 35.6483 16.9808 35.1112C16.0236 34.5746 15.683 33.3633 16.2203 32.4063L18.861 27.6995L17.9202 22.7318L14.0883 26.0303L13.2202 31.357C13.0816 32.2045 12.4257 32.8389 11.6285 32.9899C11.4071 33.0318 11.1746 33.0368 10.9393 32.9982C9.85612 32.8217 9.1213 31.8005 9.29787 30.7176L9.90178 27.0125L6.14801 27.0587C5.05101 27.072 4.15038 26.1937 4.13698 25.0964C4.12327 23.9992 5.00131 23.0986 6.09885 23.0852L11.4957 23.0188L15.3277 19.7202L10.555 18.051L5.50749 19.9623C5.39649 20.0042 5.28439 20.0356 5.17153 20.0569C4.24246 20.2329 3.29263 19.7228 2.9461 18.8076C2.55738 17.7814 3.07449 16.6343 4.10047 16.246L7.6112 14.9163L5.6945 11.6888C5.13418 10.7452 5.44476 9.52599 6.38838 8.96567C7.33144 8.40546 8.55087 8.71599 9.1115 9.65955L11.867 14.3L16.6397 15.9692L15.6989 11.0011L11.5201 7.5858C10.6701 6.89167 10.5443 5.63979 11.239 4.79003C11.9332 3.94037 13.1854 3.81447 14.0345 4.50933L16.9416 6.88473L18.7786 3.61097C19.3152 2.6537 20.5259 2.31321 21.4833 2.85013C22.4406 3.38705 22.7812 4.59832 22.2438 5.55509L19.6034 10.2618L20.5442 15.2299L24.3758 11.9314L25.2442 6.60465C25.4207 5.5215 26.4416 4.78672 27.5248 4.96325C28.6079 5.13977 29.3427 6.16093 29.1662 7.24414L28.5623 10.949L32.3161 10.903C33.413 10.8893 34.3137 11.7679 34.3271 12.8652C34.3392 13.8435 33.6416 14.6658 32.7125 14.8417C32.5997 14.8631 32.4839 14.8749 32.3652 14.8764L26.9684 14.9429L23.1365 18.2415L27.9092 19.9107L32.9566 17.9993C33.9831 17.6105 35.1295 18.1277 35.518 19.154Z" fill="white"/>
</svg>
