<svg width="17" height="19" viewBox="0 0 17 19" fill="none" xmlns="http://www.w3.org/2000/svg">
<path d="M8.77506 10.7767C9.48735 10.7767 10.0648 10.1993 10.0648 9.487C10.0648 8.7747 9.48735 8.19727 8.77506 8.19727C8.06277 8.19727 7.48535 8.7747 7.48535 9.487C7.48535 10.1993 8.06277 10.7767 8.77506 10.7767Z" fill="#FF94B8"/>
<path d="M8.77604 0.458984C8.06379 0.458984 7.48633 1.0363 7.48633 1.74872L7.48633 4.3282C7.48633 5.04045 8.0638 5.61793 8.77604 5.61793C9.48828 5.61793 10.0657 5.04045 10.0657 4.3282L10.0657 1.74872C10.0657 1.03614 9.48828 0.458984 8.77604 0.458984Z" fill="#FF94B8"/>
<path d="M8.77445 13.3613C8.06221 13.3613 7.48474 13.9387 7.48474 14.6509L7.48474 17.2305C7.48474 17.9428 8.06221 18.5203 8.77445 18.5203C9.48669 18.5203 10.0642 17.9428 10.0642 17.2305L10.0642 14.6509C10.0642 13.9385 9.48669 13.3613 8.77445 13.3613Z" fill="#FF94B8"/>
<path d="M4.95427 5.79867L2.72066 4.50893C2.10353 4.1528 1.3152 4.36416 0.958594 4.98098C0.60199 5.59779 0.813823 6.38646 1.43095 6.74275L3.66456 8.03249C4.28104 8.38862 5.07002 8.17727 5.42598 7.56045C5.78242 6.94347 5.57075 6.15463 4.95427 5.79867Z" fill="#FF94B8"/>
<path d="M16.1251 12.2401L13.8914 10.9503C13.2743 10.5942 12.486 10.8056 12.1294 11.4224C11.7736 12.0394 11.9846 12.8282 12.6017 13.1843L14.8353 14.4741C15.4525 14.8302 16.2408 14.6188 16.5974 14.0019C16.9532 13.385 16.7422 12.5962 16.1251 12.2401Z" fill="#FF94B8"/>
<path d="M3.66141 10.9503L1.42844 12.24C0.81131 12.5961 0.599638 13.385 0.956081 14.0018C1.31252 14.6188 2.10102 14.8301 2.71814 14.474L4.95111 13.1842C5.56824 12.8281 5.77991 12.0393 5.42347 11.4225C5.06703 10.8055 4.27853 10.5943 3.66141 10.9503Z" fill="#FF94B8"/>
<path d="M13.934 7.9739L16.1677 6.68416C16.7841 6.32803 16.9958 5.5392 16.64 4.92238C16.2836 4.30557 15.4944 4.09421 14.878 4.45034L12.6443 5.74007C12.0272 6.0962 11.8162 6.88504 12.172 7.50186C12.5284 8.11867 13.3169 8.33019 13.934 7.9739Z" fill="#FF94B8"/>
</svg>
