<svg width="11" height="11" viewBox="0 0 11 11" fill="none" xmlns="http://www.w3.org/2000/svg">
<path fill-rule="evenodd" clip-rule="evenodd" d="M-1.04308e-06 5.45012C-1.04308e-06 5.14109 0.168559 4.86016 0.449493 4.71969L3.31502 3.34312L4.71968 0.449495C4.86015 0.16856 5.14108 0 5.45011 0C5.75914 0 6.04007 0.16856 6.18054 0.449495L7.55711 3.34312L10.4507 4.71969C10.7317 4.86016 10.9002 5.14109 10.9002 5.45012C10.9002 5.75915 10.7317 6.04008 10.4507 6.18055L7.55711 7.55713L6.18054 10.4507C6.04007 10.7317 5.75914 10.9002 5.45011 10.9002C5.14108 10.9002 4.86015 10.7317 4.71968 10.4507L3.31502 7.55713L0.449493 6.18055C0.168559 6.04008 -1.04308e-06 5.75915 -1.04308e-06 5.45012Z" fill="#FF3BE8"/>
</svg>
