<svg width="54" height="47" viewBox="0 0 54 47" fill="none" xmlns="http://www.w3.org/2000/svg">
<path d="M38.5619 16.2398L31.9898 17.8548C31.7927 17.8813 31.5921 17.8588 31.4058 17.7892C31.2194 17.7196 31.0532 17.6052 30.9217 17.456C30.7902 17.3068 30.6975 17.1274 30.6519 16.9338C30.6063 16.7403 30.6092 16.5384 30.6603 16.3462L31.2383 14.1713C31.334 13.8123 31.2993 13.431 31.1406 13.0952C30.9818 12.7593 30.7092 12.4906 30.3711 12.3366C30.0331 12.1826 29.6514 12.1534 29.2938 12.2541C28.9362 12.3549 28.6259 12.579 28.4179 12.8868L27.2118 14.6705C27.1004 14.8352 26.95 14.9698 26.7741 15.0625C26.5982 15.1552 26.4021 15.2031 26.2033 15.2018C26.0044 15.2006 25.809 15.1503 25.6342 15.0555C25.4594 14.9606 25.3108 14.8241 25.2014 14.6581L21.7631 9.95573C21.5512 9.63399 21.2363 9.39373 20.8701 9.2743C20.5038 9.15488 20.1078 9.16337 19.747 9.29839C19.3862 9.4334 19.0819 9.68693 18.884 10.0175C18.686 10.348 18.6062 10.7359 18.6576 11.1178L20.2486 16.5113C20.2751 16.7084 20.2525 16.909 20.1829 17.0953C20.1133 17.2815 19.9988 17.4478 19.8496 17.5792C19.7004 17.7107 19.5211 17.8033 19.3275 17.8489C19.1339 17.8945 18.9321 17.8916 18.7399 17.8405L16.6592 17.2867C16.3003 17.1915 15.9194 17.2265 15.5838 17.3853C15.2483 17.5442 14.9798 17.8166 14.8259 18.1545C14.6721 18.4924 14.6428 18.8738 14.7432 19.2312C14.8437 19.5886 15.0674 19.8989 15.3747 20.1072L17.2385 21.3684C17.4032 21.4799 17.5379 21.6302 17.6306 21.8062C17.7232 21.9822 17.7711 22.1783 17.7698 22.3772C17.7686 22.576 17.7183 22.7715 17.6234 22.9463C17.5286 23.1211 17.392 23.2698 17.2259 23.3792L11.3735 26.9165C11.0519 27.1285 10.8117 27.4434 10.6924 27.8097C10.573 28.176 10.5816 28.5719 10.7166 28.9327C10.8516 29.2935 11.105 29.5977 11.4355 29.7957C11.766 29.9936 12.1538 30.0735 12.5356 30.0223L18.9572 28.428C19.1543 28.4015 19.3549 28.424 19.5412 28.4936C19.7275 28.5631 19.8938 28.6776 20.0252 28.8268C20.1567 28.976 20.2494 29.1554 20.295 29.3489C20.3406 29.5425 20.3377 29.7444 20.2867 29.9366L19.7737 31.8662C19.6786 32.225 19.7135 32.606 19.8724 32.9415C20.0312 33.2771 20.3037 33.5456 20.6416 33.6994C20.9794 33.8533 21.3609 33.8826 21.7183 33.7821C22.0757 33.6817 22.386 33.458 22.5942 33.1506L23.7683 31.416C23.8797 31.2513 24.03 31.1166 24.2059 31.0239C24.3819 30.9312 24.5779 30.8834 24.7768 30.8846C24.9756 30.8858 25.1711 30.9361 25.3459 31.031C25.5206 31.1258 25.6693 31.2623 25.7787 31.4284L29.3347 36.3064C29.5466 36.6281 29.8614 36.8684 30.2277 36.9878C30.594 37.1072 30.99 37.0987 31.3508 36.9637C31.7116 36.8287 32.0159 36.5751 32.2138 36.2446C32.4117 35.9141 32.4915 35.5261 32.4402 35.1443L30.8226 29.541C30.7963 29.344 30.8189 29.1436 30.8885 28.9574C30.9581 28.7713 31.0725 28.6052 31.2216 28.4738C31.3707 28.3424 31.5499 28.2498 31.7433 28.2041C31.9367 28.1585 32.1384 28.1612 32.3305 28.2121L34.3546 28.7501C34.7136 28.8457 35.0948 28.8111 35.4307 28.6523C35.7665 28.4936 36.0353 28.221 36.1892 27.8829C36.3432 27.5448 36.3724 27.1631 36.2717 26.8056C36.171 26.448 35.9469 26.1376 35.6391 25.9296L33.9855 24.8107C33.8208 24.6992 33.6861 24.5489 33.5934 24.3729C33.5008 24.1969 33.4529 24.0008 33.4542 23.8019C33.4554 23.6031 33.5057 23.4076 33.6006 23.2328C33.6955 23.058 33.832 22.9093 33.9981 22.7999L39.7249 19.3453C40.0464 19.1332 40.2865 18.8183 40.4057 18.452C40.525 18.0857 40.5163 17.6898 40.3812 17.329C40.2461 16.9683 39.9926 16.6641 39.6621 16.4662C39.3315 16.2683 38.9436 16.1885 38.5619 16.2398Z" fill="#8755EA"/>
<path d="M5.87279 23.1646C6.17085 23.3001 6.42202 23.5209 6.59453 23.7992C6.76704 24.0775 6.85313 24.4007 6.8419 24.7279C6.83068 25.0551 6.72265 25.3716 6.53148 25.6374C6.34031 25.9032 6.07459 26.1063 5.76795 26.2211C5.46131 26.3358 5.12752 26.357 4.80883 26.282C4.49013 26.207 4.20085 26.0391 3.97758 25.7997C3.75431 25.5602 3.6071 25.2599 3.55456 24.9367C3.50202 24.6135 3.54652 24.2821 3.68243 23.9842C3.86445 23.5853 4.19735 23.2749 4.60804 23.1212C5.01872 22.9675 5.4736 22.9831 5.87279 23.1646Z" fill="#8755EA"/>
<path d="M46.6365 14.8147C46.5011 15.1128 46.2803 15.364 46.002 15.5366C45.7237 15.7091 45.4005 15.7953 45.0733 15.784C44.746 15.7728 44.4295 15.6648 44.1637 15.4737C43.8978 15.2825 43.6947 15.0168 43.58 14.7101C43.4652 14.4034 43.444 14.0696 43.519 13.7509C43.5941 13.4322 43.762 13.1429 44.0015 12.9196C44.241 12.6964 44.5413 12.5492 44.8645 12.4967C45.1877 12.4442 45.5192 12.4887 45.8171 12.6247C46.2159 12.8067 46.5262 13.1396 46.6798 13.5502C46.8335 13.9608 46.8179 14.4156 46.6365 14.8147Z" fill="#8755EA"/>
<path d="M23.9694 41.6721C23.8339 41.9702 23.6131 42.2215 23.3348 42.394C23.0565 42.5665 22.7333 42.6527 22.4061 42.6415C22.0789 42.6303 21.7623 42.5222 21.4965 42.3311C21.2307 42.1399 21.0275 41.8742 20.9128 41.5675C20.798 41.2609 20.7768 40.927 20.8519 40.6083C20.9269 40.2896 21.0948 40.0003 21.3343 39.7771C21.5738 39.5538 21.8741 39.4066 22.1973 39.3541C22.5205 39.3016 22.852 39.3461 23.1499 39.4821C23.5487 39.6641 23.859 39.997 24.0126 40.4076C24.1663 40.8182 24.1507 41.273 23.9694 41.6721Z" fill="#8755EA"/>
</svg>
