<svg width="15" height="14" viewBox="0 0 15 14" fill="none" xmlns="http://www.w3.org/2000/svg">
<path fill-rule="evenodd" clip-rule="evenodd" d="M14.0753 7.48276C14.2318 7.89588 14.0236 8.35753 13.6106 8.51399L12.1973 9.04915L12.9689 10.3486C13.1944 10.7283 13.0694 11.2191 12.6895 11.4447C12.607 11.4937 12.5193 11.5261 12.4301 11.543C12.1089 11.6038 11.77 11.4626 11.5934 11.1654L10.4841 9.29735L8.56288 8.6254L8.94158 10.6252L10.6237 12.0002C10.9659 12.2797 11.0165 12.7837 10.7368 13.1257C10.6131 13.2772 10.4451 13.3716 10.2668 13.4054C10.0426 13.4478 9.80203 13.3945 9.61149 13.2388L8.44133 12.2825L7.70169 13.6004C7.48575 13.9857 6.99803 14.1228 6.61289 13.9066C6.22753 13.6906 6.09042 13.203 6.30671 12.8177L7.36976 10.9229L6.99107 8.92304L5.44845 10.2509L5.09897 12.3953C5.0432 12.7365 4.77916 12.9918 4.45822 13.0526C4.36912 13.0695 4.27552 13.0715 4.18077 13.056C3.74473 12.9849 3.44892 12.5738 3.52 12.1379L3.76311 10.6463L2.25197 10.6649C1.81036 10.6703 1.4478 10.3167 1.4424 9.87498C1.43688 9.43327 1.79035 9.07073 2.23219 9.06531L4.40477 9.03858L5.94739 7.71067L4.02607 7.03872L1.99412 7.80815C1.94944 7.82501 1.90431 7.83765 1.85888 7.84625C1.48486 7.91708 1.10249 7.71176 0.962995 7.34332C0.806512 6.9302 1.01468 6.46842 1.4277 6.31209L2.841 5.7768L2.0694 4.47752C1.84384 4.09766 1.96887 3.60685 2.34873 3.38129C2.72838 3.15576 3.21928 3.28077 3.44497 3.66062L4.55426 5.52872L6.47554 6.20065L6.09682 4.2007L4.41458 2.8258C4.07242 2.54637 4.02176 2.0424 4.30143 1.70032C4.58089 1.35827 5.08498 1.30759 5.42681 1.58732L6.5971 2.54357L7.33661 1.22567C7.55263 0.840305 8.04003 0.703236 8.42541 0.919382C8.8108 1.13553 8.94791 1.62314 8.7316 2.00831L7.66864 3.90308L8.04736 5.90303L9.58985 4.57518L9.93943 2.43082C10.0105 1.99478 10.4215 1.69899 10.8575 1.77005C11.2936 1.84111 11.5894 2.2522 11.5183 2.68826L11.2752 4.17969L12.7863 4.16119C13.2279 4.15569 13.5905 4.50938 13.5959 4.95112C13.6007 5.34495 13.3199 5.67595 12.9459 5.74678C12.9005 5.75538 12.8539 5.76014 12.8061 5.76076L10.6336 5.78752L9.09094 7.11542L11.0123 7.78738L13.0442 7.01793C13.4574 6.8614 13.9189 7.06961 14.0753 7.48276Z" fill="#7DC2F3"/>
</svg>
