<svg width="6" height="6" viewBox="0 0 6 6" fill="none" xmlns="http://www.w3.org/2000/svg">
<path fill-rule="evenodd" clip-rule="evenodd" d="M5.5697 3.9837C5.50264 4.14002 5.3564 4.24555 5.1838 4.25564L3.4355 4.33008L2.09694 5.48898C1.96492 5.60061 1.78622 5.6249 1.6299 5.55784C1.47357 5.49077 1.36804 5.34453 1.35796 5.17193L1.28961 3.40942L0.124613 2.08507C0.0129862 1.95304 -0.0113102 1.77435 0.0557576 1.61803C0.122825 1.4617 0.269063 1.35617 0.441661 1.34609L2.20417 1.27774L3.52852 0.112742C3.66055 0.00111578 3.83924 -0.0231806 3.99556 0.0438875C4.15189 0.110955 4.25742 0.257194 4.2675 0.429791L4.35006 2.1984L5.50085 3.51665C5.61247 3.64868 5.63677 3.82737 5.5697 3.9837Z" fill="#FF9318"/>
</svg>
