<svg width="8" height="10" viewBox="0 0 8 10" fill="none" xmlns="http://www.w3.org/2000/svg">
<path d="M3.98868 5.65647C4.34416 5.65647 4.63233 5.36829 4.63233 5.0128C4.63233 4.65732 4.34416 4.36914 3.98868 4.36914C3.6332 4.36914 3.34503 4.65732 3.34503 5.0128C3.34503 5.36829 3.6332 5.65647 3.98868 5.65647Z" fill="#10CFC9"/>
<path d="M3.98917 0.507812C3.63371 0.507812 3.34552 0.795932 3.34552 1.15148L3.34552 2.4388C3.34552 2.79427 3.63371 3.08247 3.98917 3.08247C4.34462 3.08247 4.63282 2.79427 4.63282 2.4388L4.63282 1.15148C4.63282 0.795852 4.34462 0.507812 3.98917 0.507812Z" fill="#10CFC9"/>
<path d="M3.98844 6.94727C3.63298 6.94727 3.34479 7.23539 3.34479 7.59085L3.34479 8.87826C3.34479 9.23372 3.63298 9.52192 3.98844 9.52192C4.34389 9.52192 4.63209 9.23372 4.63209 8.87826L4.63209 7.59085C4.63209 7.23531 4.34389 6.94727 3.98844 6.94727Z" fill="#10CFC9"/>
<path d="M2.08164 3.1714L0.966919 2.52774C0.658933 2.35001 0.265503 2.45549 0.0875336 2.76332C-0.0904354 3.07115 0.0152834 3.46475 0.32327 3.64257L1.43799 4.28623C1.74565 4.46396 2.13941 4.35848 2.31705 4.05065C2.49494 3.74274 2.3893 3.34906 2.08164 3.1714Z" fill="#10CFC9"/>
<path d="M7.65678 6.3882L6.54206 5.74454C6.23407 5.56681 5.84064 5.67229 5.66267 5.98012C5.4851 6.28803 5.59042 6.68171 5.89841 6.85944L7.01313 7.50311C7.32111 7.68084 7.71455 7.57536 7.89252 7.26745C8.07008 6.95961 7.96476 6.56593 7.65678 6.3882Z" fill="#10CFC9"/>
<path d="M1.43653 5.7445L0.322135 6.38816C0.014149 6.56589 -0.0914893 6.95958 0.0863992 7.26741C0.264288 7.57532 0.657798 7.6808 0.965784 7.50307L2.08018 6.8594C2.38817 6.68167 2.49381 6.28799 2.31592 5.98016C2.13803 5.67225 1.74452 5.56685 1.43653 5.7445Z" fill="#10CFC9"/>
<path d="M6.56336 4.25888L7.67808 3.61522C7.98574 3.43749 8.09138 3.04381 7.91382 2.73598C7.73593 2.42815 7.34209 2.32267 7.03443 2.5004L5.91971 3.14406C5.61172 3.32179 5.50641 3.71547 5.68397 4.02331C5.86186 4.33114 6.25537 4.4367 6.56336 4.25888Z" fill="#10CFC9"/>
</svg>
