<svg width="25" height="25" viewBox="0 0 25 25" fill="none" xmlns="http://www.w3.org/2000/svg">
<path d="M12.9164 14.0569C13.7771 13.8262 14.2879 12.9415 14.0572 12.0808C13.8266 11.22 12.9419 10.7092 12.0811 10.9398C11.2204 11.1705 10.7096 12.0552 10.9403 12.916C11.1709 13.7767 12.0556 14.2875 12.9164 14.0569Z" fill="#10CFC9"/>
<path d="M9.57681 1.59021C8.71613 1.82083 8.20524 2.70545 8.43592 3.56634L9.27113 6.6834C9.50175 7.5441 10.3866 8.05495 11.2472 7.82433C12.1079 7.59371 12.6188 6.7089 12.3881 5.84821L11.5529 2.73115C11.3222 1.87006 10.4375 1.3596 9.57681 1.59021Z" fill="#10CFC9"/>
<path d="M13.7527 17.1742C12.892 17.4048 12.3811 18.2894 12.6118 19.1501L13.447 22.2674C13.6777 23.1281 14.5625 23.6389 15.4231 23.4083C16.2838 23.1777 16.7947 22.2929 16.564 21.4322L15.7288 18.3149C15.4981 17.454 14.6134 16.9436 13.7527 17.1742Z" fill="#10CFC9"/>
<path d="M6.68712 9.26929L3.57038 8.43399C2.70933 8.20346 1.82513 8.71412 1.59393 9.57495C1.36272 10.4358 1.87407 11.3202 2.73518 11.551L5.85191 12.3863C6.71219 12.617 7.59716 12.1061 7.82759 11.2455C8.05855 10.3845 7.54734 9.49983 6.68712 9.26929Z" fill="#10CFC9"/>
<path d="M22.2712 13.4471L19.1545 12.6118C18.2934 12.3813 17.4092 12.892 17.178 13.7528C16.9478 14.6136 17.4583 15.4985 18.3193 15.729L21.4361 16.5643C22.2971 16.7948 23.1813 16.2842 23.4125 15.4231C23.6427 14.5626 23.1323 13.6777 22.2712 13.4471Z" fill="#10CFC9"/>
<path d="M6.79276 15.9234L4.51202 18.205C3.88159 18.8351 3.88122 19.8569 4.51167 20.4869C5.14218 21.117 6.16344 21.1171 6.79387 20.4869L9.07461 18.2054C9.70504 17.5752 9.70541 16.5534 9.07496 15.9235C8.44445 15.2933 7.42325 15.2934 6.79276 15.9234Z" fill="#10CFC9"/>
<path d="M18.2033 9.08068L20.4848 6.79892C21.1145 6.16896 21.1148 5.14719 20.4852 4.51702C19.8547 3.88707 18.8327 3.88718 18.203 4.51714L15.9215 6.7989C15.2911 7.42907 15.2915 8.45064 15.9211 9.0808C16.5516 9.71076 17.5729 9.71104 18.2033 9.08068Z" fill="#10CFC9"/>
</svg>
