<svg width="25" height="25" viewBox="0 0 25 25" fill="none" xmlns="http://www.w3.org/2000/svg">
<path d="M12.9158 14.0569C13.7765 13.8262 14.2873 12.9415 14.0567 12.0808C13.8261 11.22 12.9413 10.7092 12.0806 10.9398C11.2199 11.1705 10.7091 12.0552 10.9397 12.916C11.1703 13.7767 12.0551 14.2875 12.9158 14.0569Z" fill="white"/>
<path d="M9.57626 1.59021C8.71558 1.82083 8.20469 2.70545 8.43537 3.56634L9.27058 6.6834C9.50121 7.5441 10.386 8.05495 11.2467 7.82433C12.1074 7.59371 12.6182 6.7089 12.3876 5.84821L11.5524 2.73115C11.3216 1.87006 10.4369 1.3596 9.57626 1.59021Z" fill="white"/>
<path d="M13.7522 17.1742C12.8915 17.4048 12.3806 18.2894 12.6112 19.1501L13.4465 22.2674C13.6771 23.1281 14.5619 23.6389 15.4226 23.4083C16.2833 23.1777 16.7941 22.2929 16.5635 21.4322L15.7282 18.3149C15.4975 17.454 14.6128 16.9436 13.7522 17.1742Z" fill="white"/>
<path d="M6.68663 9.26929L3.56989 8.43399C2.70884 8.20346 1.82465 8.71412 1.59344 9.57495C1.36224 10.4358 1.87358 11.3202 2.73469 11.551L5.85142 12.3863C6.7117 12.617 7.59668 12.1061 7.8271 11.2455C8.05806 10.3845 7.54685 9.49983 6.68663 9.26929Z" fill="white"/>
<path d="M22.2707 13.4471L19.1539 12.6118C18.2929 12.3813 17.4087 12.892 17.1775 13.7528C16.9473 14.6136 17.4577 15.4985 18.3188 15.729L21.4355 16.5643C22.2966 16.7948 23.1808 16.2842 23.4119 15.4231C23.6422 14.5626 23.1317 13.6777 22.2707 13.4471Z" fill="white"/>
<path d="M6.79221 15.9234L4.51147 18.205C3.88104 18.8351 3.88067 19.8569 4.51112 20.4869C5.14163 21.117 6.16289 21.1171 6.79332 20.4869L9.07406 18.2054C9.70449 17.5752 9.70486 16.5534 9.07441 15.9235C8.4439 15.2933 7.4227 15.2934 6.79221 15.9234Z" fill="white"/>
<path d="M18.2028 9.08068L20.4843 6.79892C21.114 6.16896 21.1143 5.14719 20.4847 4.51702C19.8542 3.88707 18.8322 3.88718 18.2025 4.51714L15.921 6.7989C15.2906 7.42907 15.291 8.45064 15.9207 9.0808C16.5511 9.71076 17.5724 9.71104 18.2028 9.08068Z" fill="white"/>
</svg>
