<svg width="26" height="25" viewBox="0 0 26 25" fill="none" xmlns="http://www.w3.org/2000/svg">
<path fill-rule="evenodd" clip-rule="evenodd" d="M22.2018 16.4437C21.9783 16.9648 21.4908 17.3165 20.9155 17.3502L15.0878 17.5983L10.6259 21.4613C10.1858 21.8334 9.5902 21.9144 9.06912 21.6908C8.54805 21.4673 8.19628 20.9798 8.16266 20.4045L7.93483 14.5294L4.05151 10.115C3.67942 9.67486 3.59843 9.07921 3.82199 8.55814C4.04555 8.03706 4.53301 7.68529 5.10834 7.65168L10.9834 7.42384L15.3979 3.54052C15.838 3.16843 16.4336 3.08745 16.9547 3.31101C17.4758 3.53456 17.8275 4.02202 17.8611 4.59735L18.1363 10.4927L21.9723 14.8869C22.3444 15.327 22.4254 15.9226 22.2018 16.4437Z" fill="white"/>
</svg>
