<svg width="26" height="25" viewBox="0 0 26 25" fill="none" xmlns="http://www.w3.org/2000/svg">
<path fill-rule="evenodd" clip-rule="evenodd" d="M22.2023 16.4437C21.9787 16.9648 21.4913 17.3165 20.916 17.3502L15.0883 17.5983L10.6264 21.4613C10.1863 21.8334 9.59069 21.9144 9.06961 21.6908C8.54853 21.4673 8.19677 20.9798 8.16315 20.4045L7.93532 14.5294L4.052 10.115C3.67991 9.67486 3.59892 9.07921 3.82248 8.55814C4.04604 8.03706 4.5335 7.68529 5.10883 7.65168L10.9839 7.42384L15.3984 3.54052C15.8384 3.16843 16.4341 3.08745 16.9552 3.31101C17.4762 3.53456 17.828 4.02202 17.8616 4.59735L18.1368 10.4927L21.9728 14.8869C22.3449 15.327 22.4259 15.9226 22.2023 16.4437Z" fill="#F9004B"/>
</svg>
