<svg width="26" height="25" viewBox="0 0 26 25" fill="none" xmlns="http://www.w3.org/2000/svg">
<path fill-rule="evenodd" clip-rule="evenodd" d="M22.8435 12.6085C23.0864 13.2498 22.7632 13.9666 22.122 14.2095L19.9278 15.0403L21.1257 17.0577C21.4759 17.6473 21.2818 18.4093 20.692 18.7595C20.5639 18.8356 20.4277 18.8859 20.2892 18.9121C19.7906 19.0066 19.2644 18.7874 18.9903 18.3259L17.2679 15.4257L14.2852 14.3825L14.8732 17.4873L17.4847 19.6219C18.016 20.0559 18.0946 20.8384 17.6604 21.3693C17.4683 21.6045 17.2074 21.7511 16.9306 21.8036C16.5825 21.8695 16.2091 21.7867 15.9132 21.5449L14.0965 20.0603L12.9482 22.1064C12.6129 22.7045 11.8557 22.9174 11.2578 22.5817C10.6595 22.2463 10.4466 21.4893 10.7824 20.8911L12.4328 17.9494L11.8449 14.8446L9.44992 16.9061L8.90734 20.2353C8.82076 20.765 8.41082 21.1615 7.91255 21.2559C7.77422 21.2821 7.6289 21.2852 7.48179 21.2611C6.80483 21.1507 6.34556 20.5125 6.45592 19.8357L6.83336 17.52L4.48725 17.5489C3.80163 17.5572 3.23874 17.0083 3.23036 16.3225C3.22179 15.6367 3.77057 15.0738 4.45653 15.0654L7.82957 15.0239L10.2245 12.9623L7.24162 11.9191L4.08693 13.1136C4.01755 13.1398 3.94749 13.1594 3.87695 13.1728C3.29628 13.2828 2.70264 12.964 2.48606 12.392C2.24311 11.7506 2.5663 11.0337 3.20754 10.7909L5.40175 9.95989L4.20381 7.9427C3.85361 7.35294 4.04772 6.59095 4.63748 6.24075C5.2269 5.89062 5.98904 6.0847 6.33943 6.67443L8.06165 9.57473L11.0445 10.6179L10.4566 7.51292L7.8448 5.37833C7.31357 4.9445 7.23492 4.16208 7.66913 3.63098C8.103 3.09994 8.88561 3.02126 9.41633 3.45554L11.2333 4.94017L12.3814 2.89406C12.7168 2.29577 13.4735 2.08297 14.0718 2.41854C14.6701 2.75412 14.883 3.51116 14.5472 4.10914L12.8969 7.05085L13.4848 10.1559L15.8796 8.09432L16.4224 4.76512C16.5327 4.08815 17.1708 3.62891 17.8477 3.73924C18.5247 3.84957 18.984 4.48779 18.8736 5.1648L18.4962 7.48031L20.8423 7.45158C21.5279 7.44305 22.0908 7.99217 22.0992 8.67798C22.1067 9.28942 21.6708 9.80332 21.0901 9.91328C21.0195 9.92663 20.9472 9.93402 20.873 9.93499L17.5 9.97653L15.1051 12.0381L18.088 13.0814L21.2426 11.8868C21.8842 11.6438 22.6007 11.967 22.8435 12.6085Z" fill="#10CFC9"/>
</svg>
