<svg width="26" height="25" viewBox="0 0 26 25" fill="none" xmlns="http://www.w3.org/2000/svg">
<path fill-rule="evenodd" clip-rule="evenodd" d="M22.843 12.6085C23.086 13.2498 22.7627 13.9666 22.1215 14.2095L19.9273 15.0403L21.1253 17.0577C21.4754 17.6473 21.2813 18.4093 20.6915 18.7595C20.5634 18.8356 20.4272 18.8859 20.2887 18.9121C19.7901 19.0066 19.2639 18.7874 18.9898 18.3259L17.2674 15.4257L14.2847 14.3825L14.8727 17.4873L17.4842 19.6219C18.0155 20.0559 18.0941 20.8384 17.6599 21.3693C17.4678 21.6045 17.2069 21.7511 16.9301 21.8036C16.582 21.8695 16.2086 21.7867 15.9127 21.5449L14.096 20.0603L12.9477 22.1064C12.6124 22.7045 11.8552 22.9174 11.2573 22.5817C10.659 22.2463 10.4461 21.4893 10.7819 20.8911L12.4324 17.9494L11.8444 14.8446L9.44943 16.9061L8.90686 20.2353C8.82027 20.765 8.41033 21.1615 7.91206 21.2559C7.77373 21.2821 7.62842 21.2852 7.48131 21.2611C6.80434 21.1507 6.34508 20.5125 6.45543 19.8357L6.83288 17.52L4.48676 17.5489C3.80114 17.5572 3.23825 17.0083 3.22987 16.3225C3.2213 15.6367 3.77008 15.0738 4.45604 15.0654L7.82908 15.0239L10.2241 12.9623L7.24113 11.9191L4.08644 13.1136C4.01707 13.1398 3.947 13.1594 3.87646 13.1728C3.29579 13.2828 2.70215 12.964 2.48557 12.392C2.24262 11.7506 2.56581 11.0337 3.20705 10.7909L5.40126 9.95989L4.20332 7.9427C3.85312 7.35294 4.04723 6.59095 4.63699 6.24075C5.22641 5.89062 5.98855 6.0847 6.33894 6.67443L8.06116 9.57473L11.044 10.6179L10.4561 7.51292L7.84431 5.37833C7.31308 4.9445 7.23443 4.16208 7.66864 3.63098C8.10251 3.09994 8.88512 3.02126 9.41584 3.45554L11.2328 4.94017L12.3809 2.89406C12.7163 2.29577 13.473 2.08297 14.0713 2.41854C14.6696 2.75412 14.8825 3.51116 14.5467 4.10914L12.8964 7.05085L13.4844 10.1559L15.8791 8.09432L16.4219 4.76512C16.5322 4.08815 17.1703 3.62891 17.8472 3.73924C18.5242 3.84957 18.9835 4.48779 18.8732 5.1648L18.4957 7.48031L20.8418 7.45158C21.5274 7.44305 22.0903 7.99217 22.0987 8.67798C22.1062 9.28942 21.6703 9.80332 21.0896 9.91328C21.0191 9.92663 20.9467 9.93402 20.8725 9.93499L17.4995 9.97653L15.1046 12.0381L18.0875 13.0814L21.2421 11.8868C21.8837 11.6438 22.6002 11.967 22.843 12.6085Z" fill="white"/>
</svg>
