<svg width="58" height="63" viewBox="0 0 58 63" fill="none" xmlns="http://www.w3.org/2000/svg">
<path d="M20.1246 10.2062L22.5497 21.2185C22.5773 21.5212 22.5298 21.826 22.4114 22.1059C22.2931 22.3858 22.1074 22.6322 21.871 22.8233C21.6346 23.0143 21.3548 23.144 21.0562 23.201C20.7577 23.258 20.4497 23.2405 20.1596 23.1499L16.4893 21.4349C15.9475 21.2655 15.3631 21.2935 14.84 21.514C14.3168 21.7344 13.8887 22.1331 13.6315 22.6393C13.3744 23.1454 13.3049 23.7263 13.4353 24.2788C13.5657 24.8313 13.8877 25.3198 14.3441 25.6575L16.9888 27.6153C17.2329 27.7962 17.816 28.725 17.946 28.9997C18.076 29.2743 18.1363 29.5768 18.1215 29.8803C18.1066 30.1839 18.0171 30.479 17.8609 30.7397C17.7046 31.0003 17.4865 31.2184 17.2258 31.3746L9.34242 36.0175C8.83734 36.32 8.44996 36.7851 8.24372 37.3365C8.03748 37.888 8.0246 38.4931 8.20719 39.0529C8.38979 39.6126 8.75703 40.0937 9.24878 40.4175C9.74053 40.7412 10.3276 40.8884 10.914 40.8349L19.7322 39.0575C20.0348 39.0299 20.3396 39.0775 20.6195 39.1959C20.8994 39.3143 21.1457 39.5 21.3367 39.7364C21.5277 39.9728 21.6574 40.2526 21.7143 40.5512C21.7713 40.8497 21.7537 41.1576 21.6632 41.4478L20.8334 44.0497C20.6647 44.5913 20.6932 45.1753 20.9138 45.698C21.1344 46.2207 21.533 46.6484 22.0388 46.9054C22.5446 47.1623 23.1251 47.232 23.6773 47.1019C24.2295 46.9719 24.7179 46.6506 25.0559 46.1949L26.9516 43.9704C27.1326 43.7262 27.371 43.5304 27.6457 43.4003C27.9204 43.2703 28.223 43.2101 28.5265 43.225C28.8301 43.2398 29.1253 43.3294 29.386 43.4857C29.6467 43.6419 29.8648 43.8601 30.021 44.1208L35.1005 53.825C35.4032 54.3299 35.8684 54.7171 36.4198 54.9232C36.9712 55.1293 37.5763 55.1421 38.1359 54.9596C38.6956 54.777 39.1767 54.4098 39.5005 53.9182C39.8243 53.4266 39.9717 52.8396 39.9184 52.2533L37.8425 41.807C37.8149 41.5044 37.8624 41.1995 37.9808 40.9196C38.0992 40.6397 38.2848 40.3933 38.5212 40.2023C38.7576 40.0112 39.0375 39.8815 39.336 39.8245C39.6345 39.7675 39.9425 39.7851 40.2327 39.8756L43.1453 40.7846C43.687 40.9533 44.2709 40.9248 44.7936 40.7042C45.3163 40.4836 45.744 40.085 46.001 39.5792C46.258 39.0734 46.3276 38.493 46.1976 37.9407C46.0675 37.3885 45.7462 36.9001 45.2906 36.5621L42.7186 34.6563C42.4745 34.4754 42.2787 34.2371 42.1486 33.9625C42.0186 33.6878 41.9583 33.3853 41.9732 33.0818C41.988 32.7783 42.0775 32.4831 42.2338 32.2225C42.39 31.9618 42.6081 31.7437 42.8688 31.5876L48.9686 27.9591C49.4736 27.6566 49.861 27.1915 50.0673 26.6401C50.2735 26.0886 50.2864 25.4835 50.1038 24.9237C49.9212 24.364 49.5539 23.8829 49.0622 23.5591C48.5704 23.2354 47.9833 23.0882 47.397 23.1417L40.3163 23.7632C40.0138 23.7905 39.7093 23.7429 39.4296 23.6245C39.1499 23.5061 38.9037 23.3206 38.7129 23.0844C38.522 22.8482 38.3922 22.5685 38.3352 22.2703C38.2781 21.972 38.2955 21.6642 38.3857 21.3742L39.4908 17.78C39.6603 17.2381 39.6323 16.6538 39.4118 16.1306C39.1913 15.6075 38.7927 15.1794 38.2865 14.9222C37.7804 14.6651 37.1995 14.5956 36.647 14.726C36.0945 14.8564 35.606 15.1784 35.2683 15.6348L33.3004 18.6253C33.1194 18.8695 32.881 19.0653 32.6063 19.1953C32.3316 19.3254 32.0291 19.3856 31.7255 19.3707C31.4219 19.3559 31.1267 19.2663 30.866 19.11C30.6054 18.9538 30.3873 18.7356 30.2311 18.4749L24.942 8.63323C24.6392 8.12841 24.1739 7.74133 23.6224 7.53537C23.071 7.32941 22.4659 7.31676 21.9063 7.49949C21.3467 7.68221 20.8657 8.0495 20.542 8.54122C20.2183 9.03295 20.0712 9.61998 20.1246 10.2062Z" fill="white"/>
<path d="M13.6155 49.0197C13.8236 48.6093 14.1488 48.2699 14.5498 48.0444C14.9509 47.8189 15.4098 47.7174 15.8686 47.7528C16.3274 47.7882 16.7653 47.9588 17.127 48.2432C17.4888 48.5276 17.758 48.9129 17.9007 49.3503C18.0434 49.7877 18.0532 50.2577 17.9287 50.7006C17.8043 51.1436 17.5512 51.5397 17.2016 51.8388C16.8519 52.1379 16.4214 52.3266 15.9645 52.381C15.5076 52.4354 15.0449 52.353 14.6348 52.1443C14.0856 51.8648 13.6698 51.3787 13.4787 50.7929C13.2875 50.207 13.3368 49.5693 13.6155 49.0197Z" fill="white"/>
<path d="M40.4288 11.8461C40.6369 11.4357 40.962 11.0962 41.3631 10.8707C41.7642 10.6451 42.2231 10.5436 42.6819 10.5789C43.1407 10.6143 43.5787 10.785 43.9405 11.0693C44.3022 11.3537 44.5715 11.739 44.7142 12.1765C44.8569 12.6139 44.8666 13.0839 44.7422 13.5269C44.6177 13.9699 44.3646 14.366 44.0149 14.6651C43.6652 14.9642 43.2347 15.1529 42.7778 15.2072C42.3208 15.2615 41.8581 15.1791 41.448 14.9703C40.8989 14.6908 40.4832 14.2048 40.2921 13.619C40.1011 13.0333 40.1502 12.3957 40.4288 11.8461Z" fill="white"/>
<path d="M52.1565 35.4523C52.4207 35.5863 52.6393 35.7956 52.7845 36.0538C52.9297 36.3121 52.9951 36.6076 52.9723 36.9029C52.9496 37.1983 52.8397 37.4803 52.6566 37.7132C52.4735 37.9461 52.2254 38.1195 51.9438 38.2114C51.6621 38.3033 51.3596 38.3095 51.0743 38.2294C50.7891 38.1493 50.5341 37.9863 50.3415 37.7612C50.149 37.536 50.0275 37.2588 49.9925 36.9647C49.9575 36.6705 50.0106 36.3725 50.145 36.1085C50.325 35.755 50.6379 35.4874 51.015 35.3643C51.3921 35.2413 51.8027 35.273 52.1565 35.4523Z" fill="white"/>
</svg>
