<svg width="6" height="6" viewBox="0 0 6 6" fill="none" preserveAspectRatio="none" xmlns="http://www.w3.org/2000/svg">
<path d="M3.45997 0C2.81513 0.0595191 2.15832 0.191219 1.5861 0.510584C0.839638 0.927064 0.262267 1.65371 0.0727536 2.49563C0.0510314 2.58927 0.034069 2.68376 0.0219414 2.77918C0.00996734 2.8746 0.00290562 2.97039 0.000756424 3.06658C-0.00146953 3.16261 0.00121547 3.25857 0.00881441 3.35437C0.0164134 3.4504 0.0289316 3.54575 0.0465089 3.64032C0.063856 3.73473 0.0859613 3.82813 0.112903 3.92053C0.139998 4.01279 0.1717 4.10334 0.208006 4.19235C0.244312 4.28112 0.285071 4.36797 0.330281 4.45274C0.375491 4.5375 0.42499 4.61972 0.478567 4.69931C1.05946 5.55049 1.7707 5.79164 2.73599 6C3.30584 5.97329 3.82955 5.86654 4.34229 5.60615C4.43355 5.56084 4.52236 5.51081 4.60863 5.45608C4.69491 5.40157 4.77827 5.34274 4.85856 5.27959C4.93869 5.21644 5.01552 5.14936 5.08906 5.07842C5.16244 5.00748 5.23198 4.93284 5.29776 4.8544C5.36369 4.7762 5.42548 4.69483 5.48313 4.61022C5.54054 4.52561 5.59358 4.4383 5.64217 4.34829C5.69076 4.25827 5.73474 4.16595 5.77404 4.07139C5.81334 3.97674 5.84773 3.88048 5.8772 3.78244C5.90552 3.68818 5.92893 3.59277 5.94743 3.49619C5.96616 3.39962 5.97982 3.30219 5.98842 3.20392C5.99717 3.10587 6.001 3.00769 5.99978 2.90926C5.99839 2.81083 5.99202 2.71272 5.98066 2.61491C5.96953 2.5171 5.95334 2.42013 5.93223 2.3241C5.91112 2.22791 5.8851 2.13311 5.85417 2.03962C5.82347 1.94621 5.78801 1.8546 5.74779 1.76481C5.70772 1.67503 5.6632 1.58748 5.61415 1.50233C5.12015 0.650691 4.37813 0.245642 3.45997 0Z" fill="white"/>
</svg>
