<svg width="22" height="32" viewBox="0 0 22 32" fill="none" preserveAspectRatio="none" xmlns="http://www.w3.org/2000/svg">
<path d="M20.1251 0.00224644C19.1807 -0.0225945 18.4037 0.158946 17.5329 0.528753C14.7056 1.72954 10.7011 3.77628 9.53556 6.85946C7.96303 11.0185 10.6456 14.8956 12.2973 18.5033C8.41115 19.2052 3.93379 19.9278 1.36309 23.3443C0.318794 24.7323 -0.212431 26.5673 0.0798264 28.3105C0.290318 29.565 0.925287 30.3383 1.9118 31.061C2.49815 31.1892 3.13087 31.2409 3.72463 31.1395C4.27234 31.046 4.69949 30.8264 5.01281 30.3394C5.65686 29.3387 5.25412 28.1001 5.02614 27.0355C7.07219 24.4139 9.95463 24.8698 12.8371 24.1813C14.4956 23.7853 16.2468 23.0321 17.1412 21.4625C18.8079 18.5387 16.7365 15.0736 15.6287 12.3342C15.1772 11.2179 14.84 10.0927 14.5452 8.92432C16.0879 6.52104 18.5243 6.09927 20.4815 4.31395C21.0348 3.80896 21.5025 3.17178 21.5125 2.38291C21.5254 1.38663 20.7805 0.635521 20.1251 0.00224644Z" fill="white"/>
</svg>
