<svg width="16" height="14" viewBox="0 0 16 14" fill="none" preserveAspectRatio="none" xmlns="http://www.w3.org/2000/svg">
<path d="M15.695 11.2541C15.6823 10.9164 15.6638 10.5794 15.5921 10.2483C15.4751 9.70826 15.2748 9.19798 14.8962 8.78633C14.0406 7.85571 12.7282 7.07172 11.7113 6.29787C9.40171 4.54123 7.10962 2.70193 4.70275 1.08095C4.00753 0.612967 2.9665 -0.179882 2.09258 0.0364388C1.14121 0.271839 0.563856 1.05385 0.0698109 1.83787C0.00274139 2.43684 -0.0536536 3.026 0.0891293 3.61962C0.181072 4.00279 0.362031 4.3852 0.63982 4.66847C2.40918 6.4732 4.88819 7.95497 6.93364 9.45095C8.47931 10.5807 10.0039 11.8922 11.6501 12.8611C12.2818 13.2328 13.1479 13.288 13.8436 13.0606C14.7366 12.7689 15.2914 12.0658 15.695 11.2541Z" fill="#FFCE00"/>
</svg>
